<?xml version="1.0" encoding="utf-8"?>
<!-- Generator: Adobe Illustrator 23.0.1, SVG Export Plug-In . SVG Version: 6.00 Build 0)  -->
<svg version="1.1" id="Icon_Orange" xmlns="http://www.w3.org/2000/svg" xmlns:xlink="http://www.w3.org/1999/xlink" x="0px"
	 y="0px" viewBox="0 0 2500 2500" style="enable-background:new 0 0 2500 2500;" xml:space="preserve">
<style type="text/css">
	.st0{fill:#682F00;}
	.st1{fill:#FF9550;}
	.st2{fill:#F7BA6B;}
	.st3{fill:#EF9535;}
	.st4{fill:url(#SVGID_1_);}
	.st5{fill:url(#SVGID_2_);}
	.st6{fill:url(#SVGID_3_);}
	.st7{fill:url(#SVGID_4_);}
	.st8{fill:url(#SVGID_5_);}
	.st9{fill:url(#SVGID_6_);}
	.st10{fill:url(#SVGID_7_);}
	.st11{fill:url(#SVGID_8_);}
	.st12{fill:url(#SVGID_9_);}
	.st13{fill:url(#SVGID_10_);}
	.st14{fill:url(#SVGID_11_);}
	.st15{fill:url(#SVGID_12_);}
	.st16{fill:url(#SVGID_13_);}
	.st17{fill:url(#SVGID_14_);}
	.st18{fill:url(#SVGID_15_);}
	.st19{fill:url(#SVGID_16_);}
	.st20{fill:url(#SVGID_17_);}
	.st21{fill:url(#SVGID_18_);}
	.st22{fill:url(#SVGID_19_);}
	.st23{fill:url(#SVGID_20_);}
	.st24{fill:url(#SVGID_21_);}
	.st25{fill:url(#SVGID_22_);}
	.st26{fill:url(#SVGID_23_);}
	.st27{fill:url(#SVGID_24_);}
	.st28{fill:url(#SVGID_25_);}
	.st29{fill:url(#SVGID_26_);}
	.st30{fill:url(#SVGID_27_);}
	.st31{fill:url(#SVGID_28_);}
	.st32{fill:url(#SVGID_29_);}
	.st33{fill:url(#SVGID_30_);}
	.st34{fill:url(#SVGID_31_);}
	.st35{fill:url(#SVGID_32_);}
	.st36{fill:#FFFFFF;}
</style>
<path class="st0" d="M2349.9,1262.38c0.07-4.12,0.1-8.25,0.1-12.38c0-100.45-13.56-200.01-40.3-295.91
	c-5.43-19.46-24.16-32.12-44.24-29.92c-20.09,2.21-35.62,18.64-36.68,38.82c-9.85,186-87.89,361.07-219.75,492.93
	c-284.22,284.2-740.74,293.66-1036.44,28.38L1975.36,481.52c8.08-8.08,12.44-19.14,12.06-30.56c-0.39-11.42-5.49-22.16-14.09-29.68
	C1773.07,246.34,1516.18,150,1250,150c-293.81,0-570.05,114.42-777.81,322.19C264.42,679.95,150,956.19,150,1250
	s114.42,570.05,322.19,777.81C679.95,2235.58,956.19,2350,1250,2350c291.65,0,566.43-112.98,773.72-318.12
	c206.96-204.82,322.77-477.81,326.16-768.74l0.01-0.5v-0.09l0-0.11V1262.38z"/>
<path class="st1" d="M884.29,1514.25c158,157.99,368.08,245,591.53,245s433.52-87.01,591.53-245
	c66.44-66.44,120.52-142.8,160.83-225.67c-76.1,277.37-238,570.79-912.88,590.48c336.16,52.12,573.54,21.24,754.08-100.08
	c-149.12,172.13-368.95,281.51-612.39,281.51c-446.91,0-810.5-363.59-810.5-810.49c0-296.67,241.36-538.04,538.04-538.04
	c120.41,0,236.15,40,330.34,113.36l-122.42,122.42c-212.32-111.21-489.17-84.99-620.27,206
	c193.91-217.81,389.86-113.37,468.92-54.65l-356.82,356.82c-7.73,7.74-12.08,18.23-12.08,29.17
	C872.21,1496.03,876.55,1506.52,884.29,1514.25z"/>
<path class="st2" d="M232.5,1250c0-561.05,456.45-1017.5,1017.5-1017.5c231.43,0,455.27,78.74,635.14,222.57l-80.97,80.97
	C1350.25,228.59,867.37,316.07,593.44,590c-391.88,391.88-178.75,979.69-178.75,979.69s-89.38-525.94,237.19-866.25
	c404.25-421.27,954.32-96.78,1032.22-47.33l-110.49,110.49c-110.06-88.68-246.74-137.13-389.07-137.13
	c-342.17,0-620.54,278.37-620.54,620.54c0,238.52,92.89,462.77,261.56,631.44s392.92,261.56,631.44,261.56
	c165.77,0,324.84-45.04,463.11-129.2c-179.48,157.74-414.31,253.7-670.12,253.7C688.95,2267.5,232.5,1811.05,232.5,1250z"/>
<path class="st0" d="M481.07,2034.89c44.65,44.65,104.02,69.25,167.17,69.25h0c63.14,0,122.52-24.59,167.17-69.24
	c7.07-7.07,12.51-15.59,15.95-24.98c11.93-32.6,51.28-96.08,122.9-167.7c47.27-47.27,98.39-87.41,140.24-110.13
	c17.5-9.5,29.92-26.07,34.25-45.33c1.99,0.17,3.98,0.29,5.98,0.29c17.33,0,34.67-6.52,48.02-19.55l-0.05,0.05
	c0.7-0.67,1.4-1.34,2.09-2.03l81.22-81.22c12.07-12.08,18.67-27.53,19.88-43.32c16.29-1.26,31.68-8.24,43.31-19.87l773.92-773.92
	c28.31-28.31,43.9-65.95,43.9-105.99c0-40.04-15.59-77.68-43.9-105.99l-150.28-150.28c-28.31-28.31-65.95-43.9-105.99-43.9
	c-40.03,0-77.68,15.59-105.99,43.9l-773.92,773.92c-12.07,12.07-18.67,27.53-19.88,43.31c-15.79,1.22-31.24,7.81-43.31,19.88
	l-81.22,81.22c-0.66,0.66-1.3,1.33-2.04,2.1c-14.5,14.88-20.87,34.7-19.19,53.94c-19.26,4.33-35.84,16.75-45.34,34.25
	c-22.73,41.87-62.87,92.99-110.13,140.25c-71.61,71.61-135.1,110.97-167.71,122.91c-9.38,3.44-17.9,8.88-24.97,15.94
	c-44.65,44.65-69.25,104.02-69.25,167.17c0,63.15,24.59,122.52,69.25,167.17L481.07,2034.89z"/>
<g>
	<g>
		<path class="st3" d="M1280.6,1472.47l773.92-773.92c31.69-31.69,31.69-83.06,0-114.75l-150.28-150.28
			c-31.69-31.69-83.06-31.69-114.75,0l-773.92,773.92L1280.6,1472.47z"/>
	</g>
</g>
<linearGradient id="SVGID_1_" gradientUnits="userSpaceOnUse" x1="1909.8245" y1="1473.2998" x2="1909.8245" y2="1356.4248" gradientTransform="matrix(0.7071 0.7071 -0.7071 0.7071 693.5723 -906.4332)">
	<stop  offset="0" style="stop-color:#E89D39"/>
	<stop  offset="1" style="stop-color:#FFFFFF"/>
</linearGradient>
<path class="st4" d="M952.37,1270.64l-81.22,81.22c-0.48,0.48-0.93,0.97-1.4,1.45l264.97,264.97c0.48-0.47,0.98-0.92,1.45-1.4
	l81.22-81.22L952.37,1270.64z"/>
<linearGradient id="SVGID_2_" gradientUnits="userSpaceOnUse" x1="1909.8262" y1="2161.3435" x2="1909.8262" y2="1562.6748" gradientTransform="matrix(0.7071 0.7071 -0.7071 0.7071 693.5723 -906.4332)">
	<stop  offset="0" style="stop-color:#E89D39"/>
	<stop  offset="1" style="stop-color:#FFFFFF"/>
</linearGradient>
<path class="st5" d="M1061.7,1671.66l-245.32-245.32c-25.01,46.08-67.61,101.74-121.94,156.07
	c-69.71,69.71-141.64,120.16-192.68,138.85l0,0c-65.48,65.48-65.48,171.63,0,237.11l27.91,27.91c65.48,65.48,171.64,65.48,237.11,0
	l0,0c18.69-51.04,69.13-122.97,138.85-192.68C959.97,1739.27,1015.62,1696.67,1061.7,1671.66z"/>
<g>
	
		<linearGradient id="SVGID_3_" gradientUnits="userSpaceOnUse" x1="1790.5431" y1="256.9049" x2="1790.5431" y2="1133.0549" gradientTransform="matrix(0.7071 0.7071 -0.7071 0.7071 693.5723 -906.4332)">
		<stop  offset="0" style="stop-color:#EF9535"/>
		<stop  offset="0.5" style="stop-color:#682F00"/>
		<stop  offset="1" style="stop-color:#EF9535"/>
	</linearGradient>
	<polygon class="st6" points="1075.38,1243.97 1075.38,1158.17 1161.18,1158.17 1161.18,1243.97 	"/>
	
		<linearGradient id="SVGID_4_" gradientUnits="userSpaceOnUse" x1="1956.3713" y1="137.5072" x2="1915.5339" y2="1102.7572" gradientTransform="matrix(0.7071 0.7071 -0.7071 0.7071 693.5723 -906.4332)">
		<stop  offset="0" style="stop-color:#EF9535"/>
		<stop  offset="1" style="stop-color:#FFFFFF"/>
	</linearGradient>
	<polygon class="st7" points="1161.15,1329.75 1161.15,1243.95 1246.95,1243.95 1246.95,1329.75 	"/>
	
		<linearGradient id="SVGID_5_" gradientUnits="userSpaceOnUse" x1="2077.4578" y1="142.6301" x2="2036.6202" y2="1107.8801" gradientTransform="matrix(0.7071 0.7071 -0.7071 0.7071 693.5723 -906.4332)">
		<stop  offset="0" style="stop-color:#EF9535"/>
		<stop  offset="1" style="stop-color:#FFFFFF"/>
	</linearGradient>
	<polygon class="st8" points="1246.92,1415.52 1246.92,1329.72 1332.72,1329.72 1332.72,1415.52 	"/>
	
		<linearGradient id="SVGID_6_" gradientUnits="userSpaceOnUse" x1="1790.5431" y1="256.9049" x2="1790.5431" y2="1133.0549" gradientTransform="matrix(0.7071 0.7071 -0.7071 0.7071 693.5723 -906.4332)">
		<stop  offset="0" style="stop-color:#EF9535"/>
		<stop  offset="0.5" style="stop-color:#682F00"/>
		<stop  offset="1" style="stop-color:#EF9535"/>
	</linearGradient>
	<polygon class="st9" points="1157.26,1162.09 1157.26,1076.29 1243.06,1076.29 1243.06,1162.09 	"/>
	
		<linearGradient id="SVGID_7_" gradientUnits="userSpaceOnUse" x1="1951.4808" y1="137.3003" x2="1910.6434" y2="1102.5503" gradientTransform="matrix(0.7071 0.7071 -0.7071 0.7071 693.5723 -906.4332)">
		<stop  offset="0" style="stop-color:#EF9535"/>
		<stop  offset="1" style="stop-color:#FFFFFF"/>
	</linearGradient>
	<polygon class="st10" points="1243.03,1247.86 1243.03,1162.06 1328.83,1162.06 1328.83,1247.86 	"/>
	
		<linearGradient id="SVGID_8_" gradientUnits="userSpaceOnUse" x1="2072.5671" y1="142.4232" x2="2031.7297" y2="1107.6732" gradientTransform="matrix(0.7071 0.7071 -0.7071 0.7071 693.5723 -906.4332)">
		<stop  offset="0" style="stop-color:#EF9535"/>
		<stop  offset="1" style="stop-color:#FFFFFF"/>
	</linearGradient>
	<polygon class="st11" points="1328.81,1333.64 1328.81,1247.84 1414.61,1247.84 1414.61,1333.64 	"/>
	
		<linearGradient id="SVGID_9_" gradientUnits="userSpaceOnUse" x1="1790.5431" y1="256.9049" x2="1790.5431" y2="1133.0549" gradientTransform="matrix(0.7071 0.7071 -0.7071 0.7071 693.5723 -906.4332)">
		<stop  offset="0" style="stop-color:#EF9535"/>
		<stop  offset="0.5" style="stop-color:#682F00"/>
		<stop  offset="1" style="stop-color:#EF9535"/>
	</linearGradient>
	<polygon class="st12" points="1239.14,1080.21 1239.14,994.41 1324.94,994.41 1324.94,1080.21 	"/>
	
		<linearGradient id="SVGID_10_" gradientUnits="userSpaceOnUse" x1="1946.5903" y1="137.0934" x2="1905.7528" y2="1102.3434" gradientTransform="matrix(0.7071 0.7071 -0.7071 0.7071 693.5723 -906.4332)">
		<stop  offset="0" style="stop-color:#EF9535"/>
		<stop  offset="1" style="stop-color:#FFFFFF"/>
	</linearGradient>
	<polygon class="st13" points="1324.92,1165.98 1324.92,1080.18 1410.72,1080.18 1410.72,1165.98 	"/>
	
		<linearGradient id="SVGID_11_" gradientUnits="userSpaceOnUse" x1="2067.6768" y1="142.2163" x2="2026.8392" y2="1107.4663" gradientTransform="matrix(0.7071 0.7071 -0.7071 0.7071 693.5723 -906.4332)">
		<stop  offset="0" style="stop-color:#EF9535"/>
		<stop  offset="1" style="stop-color:#FFFFFF"/>
	</linearGradient>
	<polygon class="st14" points="1410.69,1251.75 1410.69,1165.95 1496.49,1165.95 1496.49,1251.75 	"/>
	
		<linearGradient id="SVGID_12_" gradientUnits="userSpaceOnUse" x1="1790.5431" y1="256.9049" x2="1790.5431" y2="1133.0549" gradientTransform="matrix(0.7071 0.7071 -0.7071 0.7071 693.5723 -906.4332)">
		<stop  offset="0" style="stop-color:#EF9535"/>
		<stop  offset="0.5" style="stop-color:#682F00"/>
		<stop  offset="1" style="stop-color:#EF9535"/>
	</linearGradient>
	<polygon class="st15" points="1321.03,998.32 1321.03,912.52 1406.83,912.52 1406.83,998.32 	"/>
	
		<linearGradient id="SVGID_13_" gradientUnits="userSpaceOnUse" x1="1941.6998" y1="136.8865" x2="1900.8623" y2="1102.1365" gradientTransform="matrix(0.7071 0.7071 -0.7071 0.7071 693.5723 -906.4332)">
		<stop  offset="0" style="stop-color:#EF9535"/>
		<stop  offset="1" style="stop-color:#FFFFFF"/>
	</linearGradient>
	<polygon class="st16" points="1406.8,1084.1 1406.8,998.3 1492.6,998.3 1492.6,1084.1 	"/>
	
		<linearGradient id="SVGID_14_" gradientUnits="userSpaceOnUse" x1="2062.7861" y1="142.0094" x2="2021.9487" y2="1107.2594" gradientTransform="matrix(0.7071 0.7071 -0.7071 0.7071 693.5723 -906.4332)">
		<stop  offset="0" style="stop-color:#EF9535"/>
		<stop  offset="1" style="stop-color:#FFFFFF"/>
	</linearGradient>
	<polygon class="st17" points="1492.58,1169.87 1492.58,1084.07 1578.38,1084.07 1578.38,1169.87 	"/>
	
		<linearGradient id="SVGID_15_" gradientUnits="userSpaceOnUse" x1="1790.5431" y1="256.9049" x2="1790.5431" y2="1133.0549" gradientTransform="matrix(0.7071 0.7071 -0.7071 0.7071 693.5723 -906.4332)">
		<stop  offset="0" style="stop-color:#EF9535"/>
		<stop  offset="0.5" style="stop-color:#682F00"/>
		<stop  offset="1" style="stop-color:#EF9535"/>
	</linearGradient>
	<polygon class="st18" points="1402.91,916.44 1402.91,830.64 1488.71,830.64 1488.71,916.44 	"/>
	
		<linearGradient id="SVGID_16_" gradientUnits="userSpaceOnUse" x1="1936.8093" y1="136.6796" x2="1895.9718" y2="1101.9296" gradientTransform="matrix(0.7071 0.7071 -0.7071 0.7071 693.5723 -906.4332)">
		<stop  offset="0" style="stop-color:#EF9535"/>
		<stop  offset="1" style="stop-color:#FFFFFF"/>
	</linearGradient>
	<polygon class="st19" points="1488.68,1002.21 1488.68,916.41 1574.48,916.41 1574.48,1002.21 	"/>
	
		<linearGradient id="SVGID_17_" gradientUnits="userSpaceOnUse" x1="2057.8958" y1="141.8025" x2="2017.0582" y2="1107.0525" gradientTransform="matrix(0.7071 0.7071 -0.7071 0.7071 693.5723 -906.4332)">
		<stop  offset="0" style="stop-color:#EF9535"/>
		<stop  offset="1" style="stop-color:#FFFFFF"/>
	</linearGradient>
	<polygon class="st20" points="1574.46,1087.99 1574.46,1002.19 1660.26,1002.19 1660.26,1087.99 	"/>
	
		<linearGradient id="SVGID_18_" gradientUnits="userSpaceOnUse" x1="1790.5431" y1="256.9049" x2="1790.5431" y2="1133.0549" gradientTransform="matrix(0.7071 0.7071 -0.7071 0.7071 693.5723 -906.4332)">
		<stop  offset="0" style="stop-color:#EF9535"/>
		<stop  offset="0.5" style="stop-color:#682F00"/>
		<stop  offset="1" style="stop-color:#EF9535"/>
	</linearGradient>
	<polygon class="st21" points="1484.79,834.56 1484.79,748.76 1570.59,748.76 1570.59,834.56 	"/>
	
		<linearGradient id="SVGID_19_" gradientUnits="userSpaceOnUse" x1="1931.9188" y1="136.4727" x2="1891.0813" y2="1101.7227" gradientTransform="matrix(0.7071 0.7071 -0.7071 0.7071 693.5723 -906.4332)">
		<stop  offset="0" style="stop-color:#EF9535"/>
		<stop  offset="1" style="stop-color:#FFFFFF"/>
	</linearGradient>
	<polygon class="st22" points="1570.57,920.33 1570.57,834.53 1656.37,834.53 1656.37,920.33 	"/>
	
		<linearGradient id="SVGID_20_" gradientUnits="userSpaceOnUse" x1="2053.0051" y1="141.5956" x2="2012.1677" y2="1106.8456" gradientTransform="matrix(0.7071 0.7071 -0.7071 0.7071 693.5723 -906.4332)">
		<stop  offset="0" style="stop-color:#EF9535"/>
		<stop  offset="1" style="stop-color:#FFFFFF"/>
	</linearGradient>
	<polygon class="st23" points="1656.34,1006.1 1656.34,920.3 1742.14,920.3 1742.14,1006.1 	"/>
	
		<linearGradient id="SVGID_21_" gradientUnits="userSpaceOnUse" x1="1790.5431" y1="256.9049" x2="1790.5431" y2="1133.0549" gradientTransform="matrix(0.7071 0.7071 -0.7071 0.7071 693.5723 -906.4332)">
		<stop  offset="0" style="stop-color:#EF9535"/>
		<stop  offset="0.5" style="stop-color:#682F00"/>
		<stop  offset="1" style="stop-color:#EF9535"/>
	</linearGradient>
	<polygon class="st24" points="1566.68,752.67 1566.68,666.87 1652.48,666.87 1652.48,752.67 	"/>
	
		<linearGradient id="SVGID_22_" gradientUnits="userSpaceOnUse" x1="1927.0283" y1="136.2658" x2="1886.1908" y2="1101.5157" gradientTransform="matrix(0.7071 0.7071 -0.7071 0.7071 693.5723 -906.4332)">
		<stop  offset="0" style="stop-color:#EF9535"/>
		<stop  offset="1" style="stop-color:#FFFFFF"/>
	</linearGradient>
	<polygon class="st25" points="1652.45,838.45 1652.45,752.65 1738.25,752.65 1738.25,838.45 	"/>
	
		<linearGradient id="SVGID_23_" gradientUnits="userSpaceOnUse" x1="2048.1147" y1="141.3886" x2="2007.2772" y2="1106.6387" gradientTransform="matrix(0.7071 0.7071 -0.7071 0.7071 693.5723 -906.4332)">
		<stop  offset="0" style="stop-color:#EF9535"/>
		<stop  offset="1" style="stop-color:#FFFFFF"/>
	</linearGradient>
	<polygon class="st26" points="1738.23,924.22 1738.23,838.42 1824.03,838.42 1824.03,924.22 	"/>
	
		<linearGradient id="SVGID_24_" gradientUnits="userSpaceOnUse" x1="1790.5431" y1="256.9049" x2="1790.5431" y2="1133.0549" gradientTransform="matrix(0.7071 0.7071 -0.7071 0.7071 693.5723 -906.4332)">
		<stop  offset="0" style="stop-color:#EF9535"/>
		<stop  offset="0.5" style="stop-color:#682F00"/>
		<stop  offset="1" style="stop-color:#EF9535"/>
	</linearGradient>
	<polygon class="st27" points="1637.17,682.18 1637.17,596.38 1722.97,596.38 1722.97,682.18 	"/>
	
		<linearGradient id="SVGID_25_" gradientUnits="userSpaceOnUse" x1="1922.8184" y1="136.0876" x2="1881.9808" y2="1101.3376" gradientTransform="matrix(0.7071 0.7071 -0.7071 0.7071 693.5723 -906.4332)">
		<stop  offset="0" style="stop-color:#EF9535"/>
		<stop  offset="1" style="stop-color:#FFFFFF"/>
	</linearGradient>
	<polygon class="st28" points="1722.94,767.96 1722.94,682.16 1808.74,682.16 1808.74,767.96 	"/>
	
		<linearGradient id="SVGID_26_" gradientUnits="userSpaceOnUse" x1="2043.9047" y1="141.2105" x2="2003.0671" y2="1106.4606" gradientTransform="matrix(0.7071 0.7071 -0.7071 0.7071 693.5723 -906.4332)">
		<stop  offset="0" style="stop-color:#EF9535"/>
		<stop  offset="1" style="stop-color:#FFFFFF"/>
	</linearGradient>
	<polygon class="st29" points="1808.72,853.73 1808.72,767.93 1894.52,767.93 1894.52,853.73 	"/>
	
		<linearGradient id="SVGID_27_" gradientUnits="userSpaceOnUse" x1="1790.5431" y1="256.9049" x2="1790.5431" y2="1133.0549" gradientTransform="matrix(0.7071 0.7071 -0.7071 0.7071 693.5723 -906.4332)">
		<stop  offset="0" style="stop-color:#EF9535"/>
		<stop  offset="0.5" style="stop-color:#682F00"/>
		<stop  offset="1" style="stop-color:#EF9535"/>
	</linearGradient>
	<polygon class="st30" points="1707.66,611.69 1707.66,525.89 1793.46,525.89 1793.46,611.69 	"/>
	
		<linearGradient id="SVGID_28_" gradientUnits="userSpaceOnUse" x1="1918.6083" y1="135.9095" x2="1877.7708" y2="1101.1595" gradientTransform="matrix(0.7071 0.7071 -0.7071 0.7071 693.5723 -906.4332)">
		<stop  offset="0" style="stop-color:#EF9535"/>
		<stop  offset="1" style="stop-color:#FFFFFF"/>
	</linearGradient>
	<polygon class="st31" points="1793.43,697.47 1793.43,611.67 1879.23,611.67 1879.23,697.47 	"/>
	
		<linearGradient id="SVGID_29_" gradientUnits="userSpaceOnUse" x1="2039.6947" y1="141.0324" x2="1998.8572" y2="1106.2825" gradientTransform="matrix(0.7071 0.7071 -0.7071 0.7071 693.5723 -906.4332)">
		<stop  offset="0" style="stop-color:#EF9535"/>
		<stop  offset="1" style="stop-color:#FFFFFF"/>
	</linearGradient>
	<polygon class="st32" points="1879.21,783.24 1879.21,697.44 1965.01,697.44 1965.01,783.24 	"/>
	
		<linearGradient id="SVGID_30_" gradientUnits="userSpaceOnUse" x1="1790.5431" y1="256.9049" x2="1790.5431" y2="1133.0549" gradientTransform="matrix(0.7071 0.7071 -0.7071 0.7071 693.5723 -906.4332)">
		<stop  offset="0" style="stop-color:#EF9535"/>
		<stop  offset="0.5" style="stop-color:#682F00"/>
		<stop  offset="1" style="stop-color:#EF9535"/>
	</linearGradient>
	<polygon class="st33" points="1778.15,541.2 1778.15,455.4 1863.95,455.4 1863.95,541.2 	"/>
	
		<linearGradient id="SVGID_31_" gradientUnits="userSpaceOnUse" x1="1914.3983" y1="135.7314" x2="1873.5608" y2="1100.9814" gradientTransform="matrix(0.7071 0.7071 -0.7071 0.7071 693.5723 -906.4332)">
		<stop  offset="0" style="stop-color:#EF9535"/>
		<stop  offset="1" style="stop-color:#FFFFFF"/>
	</linearGradient>
	<polygon class="st34" points="1863.92,626.98 1863.92,541.18 1949.72,541.18 1949.72,626.98 	"/>
	
		<linearGradient id="SVGID_32_" gradientUnits="userSpaceOnUse" x1="2035.4846" y1="140.8543" x2="1994.6471" y2="1106.1042" gradientTransform="matrix(0.7071 0.7071 -0.7071 0.7071 693.5723 -906.4332)">
		<stop  offset="0" style="stop-color:#EF9535"/>
		<stop  offset="1" style="stop-color:#FFFFFF"/>
	</linearGradient>
	<polygon class="st35" points="1949.7,712.75 1949.7,626.95 2035.49,626.95 2035.49,712.75 	"/>
</g>
<circle class="st0" cx="810.43" cy="1673.17" r="103.13"/>
<ellipse transform="matrix(0.7071 -0.7071 0.7071 0.7071 -1119.5358 991.1357)" class="st0" cx="636.64" cy="1846.97" rx="91.09" ry="130.63"/>
<circle class="st3" cx="810.43" cy="1673.17" r="55"/>
<ellipse transform="matrix(0.7071 -0.7071 0.7071 0.7071 -1119.5358 991.1357)" class="st3" cx="636.64" cy="1846.97" rx="52.79" ry="85.94"/>
<g>
	<path class="st0" d="M1681.74,1279.76l-97.54-53.35l-53.35-97.54c-9.37-17.13-27.34-27.79-46.87-27.79
		c-19.53,0-37.5,10.65-46.87,27.79l-53.35,97.54l-97.54,53.35c-17.13,9.37-27.79,27.34-27.79,46.86s10.65,37.5,27.79,46.86
		l97.54,53.35l53.35,97.54c9.37,17.13,27.34,27.79,46.87,27.79c19.52,0,37.5-10.66,46.87-27.79l53.35-97.54l97.54-53.35
		c17.13-9.37,27.79-27.34,27.79-46.86S1698.87,1289.13,1681.74,1279.76z"/>
	<polygon class="st36" points="1483.99,1154.51 1544.84,1265.77 1656.11,1326.63 1544.84,1387.48 1483.99,1498.75 1423.14,1387.48 
		1311.87,1326.63 1423.14,1265.77 	"/>
</g>
<g>
	<path class="st0" d="M1732.59,450.26l-168.67-92.25l-92.25-168.67c-9.37-17.13-27.34-27.79-46.86-27.79
		c-19.53,0-37.5,10.65-46.86,27.79l-92.25,168.67l-168.67,92.25c-17.13,9.37-27.79,27.34-27.79,46.86
		c0,19.53,10.65,37.5,27.78,46.86l168.67,92.25l92.25,168.67c9.37,17.13,27.34,27.78,46.86,27.78c19.53,0,37.5-10.65,46.86-27.78
		l92.25-168.67l168.67-92.25c17.13-9.37,27.78-27.34,27.78-46.86C1760.38,477.59,1749.72,459.62,1732.59,450.26z"/>
	<polygon class="st36" points="1424.81,214.97 1524.56,397.37 1706.96,497.12 1524.56,596.88 1424.81,779.27 1325.05,596.88 
		1142.65,497.12 1325.05,397.37 	"/>
</g>
</svg>
