<?xml version="1.0" encoding="utf-8"?>
<!-- Generator: Adobe Illustrator 23.0.1, SVG Export Plug-In . SVG Version: 6.00 Build 0)  -->
<svg version="1.1" id="A" xmlns="http://www.w3.org/2000/svg" xmlns:xlink="http://www.w3.org/1999/xlink" x="0px" y="0px"
	 viewBox="0 0 1920 1200" style="enable-background:new 0 0 1920 1200;" xml:space="preserve">
<style type="text/css">
	.st0{fill:#FFFFFF;}
</style>
<g>
	<g>
		
			<rect x="-16.74" y="1140.26" transform="matrix(0.7071 -0.7071 0.7071 0.7071 -822.6786 349.8776)" class="st0" width="55.47" height="55.47"/>
	</g>
	<g>
		
			<rect x="56.26" y="1140.26" transform="matrix(0.7071 -0.7071 0.7071 0.7071 -801.2974 401.4963)" class="st0" width="55.47" height="55.47"/>
	</g>
	<g>
		
			<rect x="129.26" y="1140.26" transform="matrix(0.7071 -0.7071 0.7071 0.7071 -779.9163 453.1151)" class="st0" width="55.47" height="55.47"/>
	</g>
	<g>
		
			<rect x="202.26" y="1140.26" transform="matrix(0.7071 -0.7071 0.7071 0.7071 -758.535 504.7339)" class="st0" width="55.47" height="55.47"/>
	</g>
	<g>
		
			<rect x="275.26" y="1140.26" transform="matrix(0.7071 -0.7071 0.7071 0.7071 -737.1538 556.3527)" class="st0" width="55.47" height="55.47"/>
	</g>
	<g>
		
			<rect x="348.26" y="1140.26" transform="matrix(0.7071 -0.7071 0.7071 0.7071 -715.7726 607.9716)" class="st0" width="55.47" height="55.47"/>
	</g>
	<g>
		
			<rect x="421.26" y="1140.26" transform="matrix(0.7071 -0.7071 0.7071 0.7071 -694.3914 659.5903)" class="st0" width="55.47" height="55.47"/>
	</g>
	<g>
		
			<rect x="494.26" y="1140.26" transform="matrix(0.7071 -0.7071 0.7071 0.7071 -673.0102 711.2091)" class="st0" width="55.47" height="55.47"/>
	</g>
	<g>
		
			<rect x="567.26" y="1140.26" transform="matrix(0.7071 -0.7071 0.7071 0.7071 -651.629 762.8279)" class="st0" width="55.47" height="55.47"/>
	</g>
	<g>
		
			<rect x="640.26" y="1140.26" transform="matrix(0.7071 -0.7071 0.7071 0.7071 -630.2478 814.4467)" class="st0" width="55.47" height="55.47"/>
	</g>
	<g>
		
			<rect x="713.26" y="1140.26" transform="matrix(0.7071 -0.7071 0.7071 0.7071 -608.8666 866.0655)" class="st0" width="55.47" height="55.47"/>
	</g>
	<g>
		
			<rect x="786.26" y="1140.26" transform="matrix(0.7071 -0.7071 0.7071 0.7071 -587.4854 917.6843)" class="st0" width="55.47" height="55.47"/>
	</g>
	<g>
		
			<rect x="859.26" y="1140.26" transform="matrix(0.7071 -0.7071 0.7071 0.7071 -566.1042 969.3031)" class="st0" width="55.47" height="55.47"/>
	</g>
	<g>
		
			<rect x="932.26" y="1140.26" transform="matrix(0.7071 -0.7071 0.7071 0.7071 -544.723 1020.9219)" class="st0" width="55.47" height="55.47"/>
	</g>
	<g>
		
			<rect x="1005.26" y="1140.26" transform="matrix(0.7071 -0.7071 0.7071 0.7071 -523.3418 1072.5406)" class="st0" width="55.47" height="55.47"/>
	</g>
	<g>
		
			<rect x="1078.26" y="1140.26" transform="matrix(0.7071 -0.7071 0.7071 0.7071 -501.9606 1124.1594)" class="st0" width="55.47" height="55.47"/>
	</g>
	<g>
		
			<rect x="1151.26" y="1140.26" transform="matrix(0.7071 -0.7071 0.7071 0.7071 -480.5794 1175.7783)" class="st0" width="55.47" height="55.47"/>
	</g>
	<g>
		
			<rect x="1224.26" y="1140.26" transform="matrix(0.7071 -0.7071 0.7071 0.7071 -459.1982 1227.3971)" class="st0" width="55.47" height="55.47"/>
	</g>
	<g>
		
			<rect x="1297.26" y="1140.26" transform="matrix(0.7071 -0.7071 0.7071 0.7071 -437.817 1279.0159)" class="st0" width="55.47" height="55.47"/>
	</g>
	<g>
		
			<rect x="1370.26" y="1140.26" transform="matrix(0.7071 -0.7071 0.7071 0.7071 -416.4358 1330.6346)" class="st0" width="55.47" height="55.47"/>
	</g>
	<g>
		
			<rect x="1443.26" y="1140.26" transform="matrix(0.7071 -0.7071 0.7071 0.7071 -395.0546 1382.2534)" class="st0" width="55.47" height="55.47"/>
	</g>
	<g>
		
			<rect x="1516.26" y="1140.26" transform="matrix(0.7071 -0.7071 0.7071 0.7071 -373.6733 1433.8722)" class="st0" width="55.47" height="55.47"/>
	</g>
	<g>
		
			<rect x="1589.26" y="1140.26" transform="matrix(0.7071 -0.7071 0.7071 0.7071 -352.2921 1485.4911)" class="st0" width="55.47" height="55.47"/>
	</g>
	<g>
		
			<rect x="1662.26" y="1140.26" transform="matrix(0.7071 -0.7071 0.7071 0.7071 -330.9109 1537.1099)" class="st0" width="55.47" height="55.47"/>
	</g>
	<g>
		
			<rect x="1735.26" y="1140.26" transform="matrix(0.7071 -0.7071 0.7071 0.7071 -309.5297 1588.7286)" class="st0" width="55.47" height="55.47"/>
	</g>
	<g>
		
			<rect x="1808.26" y="1140.26" transform="matrix(0.7071 -0.7071 0.7071 0.7071 -288.1485 1640.3474)" class="st0" width="55.47" height="55.47"/>
	</g>
	<g>
		
			<rect x="1881.26" y="1140.26" transform="matrix(0.7071 -0.7071 0.7071 0.7071 -266.7673 1691.9662)" class="st0" width="55.47" height="55.47"/>
	</g>
	<g>
		
			<rect x="-16.74" y="1069.26" transform="matrix(0.7071 -0.7071 0.7071 0.7071 -772.4741 329.0821)" class="st0" width="55.47" height="55.47"/>
	</g>
	<g>
		
			<rect x="56.26" y="1069.26" transform="matrix(0.7071 -0.7071 0.7071 0.7071 -751.0928 380.7009)" class="st0" width="55.47" height="55.47"/>
	</g>
	<g>
		
			<rect x="129.26" y="1069.26" transform="matrix(0.7071 -0.7071 0.7071 0.7071 -729.7117 432.3197)" class="st0" width="55.47" height="55.47"/>
	</g>
	<g>
		
			<rect x="202.26" y="1069.26" transform="matrix(0.7071 -0.7071 0.7071 0.7071 -708.3304 483.9385)" class="st0" width="55.47" height="55.47"/>
	</g>
	<g>
		
			<rect x="275.26" y="1069.26" transform="matrix(0.7071 -0.7071 0.7071 0.7071 -686.9493 535.5573)" class="st0" width="55.47" height="55.47"/>
	</g>
	<g>
		
			<rect x="348.26" y="1069.26" transform="matrix(0.7071 -0.7071 0.7071 0.7071 -665.5681 587.1761)" class="st0" width="55.47" height="55.47"/>
	</g>
	<g>
		
			<rect x="421.26" y="1069.26" transform="matrix(0.7071 -0.7071 0.7071 0.7071 -644.1868 638.7949)" class="st0" width="55.47" height="55.47"/>
	</g>
	<g>
		
			<rect x="494.26" y="1069.26" transform="matrix(0.7071 -0.7071 0.7071 0.7071 -622.8057 690.4137)" class="st0" width="55.47" height="55.47"/>
	</g>
	<g>
		
			<rect x="567.26" y="1069.26" transform="matrix(0.7071 -0.7071 0.7071 0.7071 -601.4244 742.0325)" class="st0" width="55.47" height="55.47"/>
	</g>
	<g>
		
			<rect x="640.26" y="1069.26" transform="matrix(0.7071 -0.7071 0.7071 0.7071 -580.0432 793.6513)" class="st0" width="55.47" height="55.47"/>
	</g>
	<g>
		
			<rect x="713.26" y="1069.26" transform="matrix(0.7071 -0.7071 0.7071 0.7071 -558.662 845.2701)" class="st0" width="55.47" height="55.47"/>
	</g>
	<g>
		
			<rect x="786.26" y="1069.26" transform="matrix(0.7071 -0.7071 0.7071 0.7071 -537.2808 896.8889)" class="st0" width="55.47" height="55.47"/>
	</g>
	<g>
		
			<rect x="859.26" y="1069.26" transform="matrix(0.7071 -0.7071 0.7071 0.7071 -515.8996 948.5077)" class="st0" width="55.47" height="55.47"/>
	</g>
	<g>
		
			<rect x="932.26" y="1069.26" transform="matrix(0.7071 -0.7071 0.7071 0.7071 -494.5184 1000.1265)" class="st0" width="55.47" height="55.47"/>
	</g>
	<g>
		
			<rect x="1005.26" y="1069.26" transform="matrix(0.7071 -0.7071 0.7071 0.7071 -473.1372 1051.7452)" class="st0" width="55.47" height="55.47"/>
	</g>
	<g>
		
			<rect x="1078.26" y="1069.26" transform="matrix(0.7071 -0.7071 0.7071 0.7071 -451.756 1103.364)" class="st0" width="55.47" height="55.47"/>
	</g>
	<g>
		
			<rect x="1151.26" y="1069.26" transform="matrix(0.7071 -0.7071 0.7071 0.7071 -430.3748 1154.9829)" class="st0" width="55.47" height="55.47"/>
	</g>
	<g>
		
			<rect x="1224.26" y="1069.26" transform="matrix(0.7071 -0.7071 0.7071 0.7071 -408.9936 1206.6017)" class="st0" width="55.47" height="55.47"/>
	</g>
	<g>
		
			<rect x="1297.26" y="1069.26" transform="matrix(0.7071 -0.7071 0.7071 0.7071 -387.6124 1258.2205)" class="st0" width="55.47" height="55.47"/>
	</g>
	<g>
		
			<rect x="1370.26" y="1069.26" transform="matrix(0.7071 -0.7071 0.7071 0.7071 -366.2312 1309.8392)" class="st0" width="55.47" height="55.47"/>
	</g>
	<g>
		
			<rect x="1443.26" y="1069.26" transform="matrix(0.7071 -0.7071 0.7071 0.7071 -344.85 1361.458)" class="st0" width="55.47" height="55.47"/>
	</g>
	<g>
		
			<rect x="1516.26" y="1069.26" transform="matrix(0.7071 -0.7071 0.7071 0.7071 -323.4688 1413.0768)" class="st0" width="55.47" height="55.47"/>
	</g>
	<g>
		
			<rect x="1589.26" y="1069.26" transform="matrix(0.7071 -0.7071 0.7071 0.7071 -302.0876 1464.6957)" class="st0" width="55.47" height="55.47"/>
	</g>
	<g>
		
			<rect x="1662.26" y="1069.26" transform="matrix(0.7071 -0.7071 0.7071 0.7071 -280.7064 1516.3145)" class="st0" width="55.47" height="55.47"/>
	</g>
	<g>
		
			<rect x="1735.26" y="1069.26" transform="matrix(0.7071 -0.7071 0.7071 0.7071 -259.3252 1567.9332)" class="st0" width="55.47" height="55.47"/>
	</g>
	<g>
		
			<rect x="1808.26" y="1069.26" transform="matrix(0.7071 -0.7071 0.7071 0.7071 -237.9439 1619.552)" class="st0" width="55.47" height="55.47"/>
	</g>
	<g>
		
			<rect x="1881.26" y="1069.26" transform="matrix(0.7071 -0.7071 0.7071 0.7071 -216.5627 1671.1708)" class="st0" width="55.47" height="55.47"/>
	</g>
	<g>
		
			<rect x="-16.74" y="998.26" transform="matrix(0.7071 -0.7071 0.7071 0.7071 -722.2695 308.2867)" class="st0" width="55.47" height="55.47"/>
	</g>
	<g>
		
			<rect x="56.26" y="998.26" transform="matrix(0.7071 -0.7071 0.7071 0.7071 -700.8883 359.9055)" class="st0" width="55.47" height="55.47"/>
	</g>
	<g>
		
			<rect x="129.26" y="998.26" transform="matrix(0.7071 -0.7071 0.7071 0.7071 -679.5071 411.5243)" class="st0" width="55.47" height="55.47"/>
	</g>
	<g>
		
			<rect x="202.26" y="998.26" transform="matrix(0.7071 -0.7071 0.7071 0.7071 -658.1259 463.1431)" class="st0" width="55.47" height="55.47"/>
	</g>
	<g>
		
			<rect x="275.26" y="998.26" transform="matrix(0.7071 -0.7071 0.7071 0.7071 -636.7447 514.7619)" class="st0" width="55.47" height="55.47"/>
	</g>
	<g>
		
			<rect x="348.26" y="998.26" transform="matrix(0.7071 -0.7071 0.7071 0.7071 -615.3635 566.3807)" class="st0" width="55.47" height="55.47"/>
	</g>
	<g>
		
			<rect x="421.26" y="998.26" transform="matrix(0.7071 -0.7071 0.7071 0.7071 -593.9822 617.9995)" class="st0" width="55.47" height="55.47"/>
	</g>
	<g>
		
			<rect x="494.26" y="998.26" transform="matrix(0.7071 -0.7071 0.7071 0.7071 -572.6011 669.6183)" class="st0" width="55.47" height="55.47"/>
	</g>
	<g>
		
			<rect x="567.26" y="998.26" transform="matrix(0.7071 -0.7071 0.7071 0.7071 -551.2198 721.2371)" class="st0" width="55.47" height="55.47"/>
	</g>
	<g>
		
			<rect x="640.26" y="998.26" transform="matrix(0.7071 -0.7071 0.7071 0.7071 -529.8386 772.8559)" class="st0" width="55.47" height="55.47"/>
	</g>
	<g>
		
			<rect x="713.26" y="998.26" transform="matrix(0.7071 -0.7071 0.7071 0.7071 -508.4574 824.4747)" class="st0" width="55.47" height="55.47"/>
	</g>
	<g>
		
			<rect x="786.26" y="998.26" transform="matrix(0.7071 -0.7071 0.7071 0.7071 -487.0762 876.0934)" class="st0" width="55.47" height="55.47"/>
	</g>
	<g>
		
			<rect x="859.26" y="998.26" transform="matrix(0.7071 -0.7071 0.7071 0.7071 -465.695 927.7123)" class="st0" width="55.47" height="55.47"/>
	</g>
	<g>
		
			<rect x="932.26" y="998.26" transform="matrix(0.7071 -0.7071 0.7071 0.7071 -444.3138 979.3311)" class="st0" width="55.47" height="55.47"/>
	</g>
	<g>
		
			<rect x="1005.26" y="998.26" transform="matrix(0.7071 -0.7071 0.7071 0.7071 -422.9326 1030.9498)" class="st0" width="55.47" height="55.47"/>
	</g>
	<g>
		
			<rect x="1078.26" y="998.26" transform="matrix(0.7071 -0.7071 0.7071 0.7071 -401.5514 1082.5686)" class="st0" width="55.47" height="55.47"/>
	</g>
	<g>
		
			<rect x="1151.26" y="998.26" transform="matrix(0.7071 -0.7071 0.7071 0.7071 -380.1702 1134.1874)" class="st0" width="55.47" height="55.47"/>
	</g>
	<g>
		
			<rect x="1224.26" y="998.26" transform="matrix(0.7071 -0.7071 0.7071 0.7071 -358.789 1185.8063)" class="st0" width="55.47" height="55.47"/>
	</g>
	<g>
		
			<rect x="1297.26" y="998.26" transform="matrix(0.7071 -0.7071 0.7071 0.7071 -337.4078 1237.425)" class="st0" width="55.47" height="55.47"/>
	</g>
	<g>
		
			<rect x="1370.26" y="998.26" transform="matrix(0.7071 -0.7071 0.7071 0.7071 -316.0266 1289.0438)" class="st0" width="55.47" height="55.47"/>
	</g>
	<g>
		
			<rect x="1443.26" y="998.26" transform="matrix(0.7071 -0.7071 0.7071 0.7071 -294.6454 1340.6626)" class="st0" width="55.47" height="55.47"/>
	</g>
	<g>
		
			<rect x="1516.26" y="998.26" transform="matrix(0.7071 -0.7071 0.7071 0.7071 -273.2642 1392.2814)" class="st0" width="55.47" height="55.47"/>
	</g>
	<g>
		
			<rect x="1589.26" y="998.26" transform="matrix(0.7071 -0.7071 0.7071 0.7071 -251.883 1443.9003)" class="st0" width="55.47" height="55.47"/>
	</g>
	<g>
		
			<rect x="1662.26" y="998.26" transform="matrix(0.7071 -0.7071 0.7071 0.7071 -230.5018 1495.519)" class="st0" width="55.47" height="55.47"/>
	</g>
	<g>
		
			<rect x="1735.26" y="998.26" transform="matrix(0.7071 -0.7071 0.7071 0.7071 -209.1206 1547.1378)" class="st0" width="55.47" height="55.47"/>
	</g>
	<g>
		
			<rect x="1808.26" y="998.26" transform="matrix(0.7071 -0.7071 0.7071 0.7071 -187.7394 1598.7566)" class="st0" width="55.47" height="55.47"/>
	</g>
	<g>
		
			<rect x="1881.26" y="998.26" transform="matrix(0.7071 -0.7071 0.7071 0.7071 -166.3582 1650.3754)" class="st0" width="55.47" height="55.47"/>
	</g>
	<g>
		
			<rect x="-16.74" y="927.26" transform="matrix(0.7071 -0.7071 0.7071 0.7071 -672.0649 287.4913)" class="st0" width="55.47" height="55.47"/>
	</g>
	<g>
		
			<rect x="56.26" y="927.26" transform="matrix(0.7071 -0.7071 0.7071 0.7071 -650.6837 339.1101)" class="st0" width="55.47" height="55.47"/>
	</g>
	<g>
		
			<rect x="129.26" y="927.26" transform="matrix(0.7071 -0.7071 0.7071 0.7071 -629.3025 390.7289)" class="st0" width="55.47" height="55.47"/>
	</g>
	<g>
		
			<rect x="202.26" y="927.26" transform="matrix(0.7071 -0.7071 0.7071 0.7071 -607.9213 442.3477)" class="st0" width="55.47" height="55.47"/>
	</g>
	<g>
		
			<rect x="275.26" y="927.26" transform="matrix(0.7071 -0.7071 0.7071 0.7071 -586.5401 493.9665)" class="st0" width="55.47" height="55.47"/>
	</g>
	<g>
		
			<rect x="348.26" y="927.26" transform="matrix(0.7071 -0.7071 0.7071 0.7071 -565.1589 545.5853)" class="st0" width="55.47" height="55.47"/>
	</g>
	<g>
		
			<rect x="421.26" y="927.26" transform="matrix(0.7071 -0.7071 0.7071 0.7071 -543.7776 597.204)" class="st0" width="55.47" height="55.47"/>
	</g>
	<g>
		
			<rect x="494.26" y="927.26" transform="matrix(0.7071 -0.7071 0.7071 0.7071 -522.3965 648.8229)" class="st0" width="55.47" height="55.47"/>
	</g>
	<g>
		
			<rect x="567.26" y="927.26" transform="matrix(0.7071 -0.7071 0.7071 0.7071 -501.0153 700.4417)" class="st0" width="55.47" height="55.47"/>
	</g>
	<g>
		
			<rect x="640.26" y="927.26" transform="matrix(0.7071 -0.7071 0.7071 0.7071 -479.6341 752.0604)" class="st0" width="55.47" height="55.47"/>
	</g>
	<g>
		
			<rect x="713.26" y="927.26" transform="matrix(0.7071 -0.7071 0.7071 0.7071 -458.2529 803.6793)" class="st0" width="55.47" height="55.47"/>
	</g>
	<g>
		
			<rect x="786.26" y="927.26" transform="matrix(0.7071 -0.7071 0.7071 0.7071 -436.8716 855.298)" class="st0" width="55.47" height="55.47"/>
	</g>
	<g>
		
			<rect x="859.26" y="927.26" transform="matrix(0.7071 -0.7071 0.7071 0.7071 -415.4904 906.9169)" class="st0" width="55.47" height="55.47"/>
	</g>
	<g>
		
			<rect x="932.26" y="927.26" transform="matrix(0.7071 -0.7071 0.7071 0.7071 -394.1093 958.5356)" class="st0" width="55.47" height="55.47"/>
	</g>
	<g>
		
			<rect x="1005.26" y="927.26" transform="matrix(0.7071 -0.7071 0.7071 0.7071 -372.728 1010.1544)" class="st0" width="55.47" height="55.47"/>
	</g>
	<g>
		
			<rect x="1078.26" y="927.26" transform="matrix(0.7071 -0.7071 0.7071 0.7071 -351.3468 1061.7732)" class="st0" width="55.47" height="55.47"/>
	</g>
	<g>
		
			<rect x="1151.26" y="927.26" transform="matrix(0.7071 -0.7071 0.7071 0.7071 -329.9656 1113.392)" class="st0" width="55.47" height="55.47"/>
	</g>
	<g>
		
			<rect x="1224.26" y="927.26" transform="matrix(0.7071 -0.7071 0.7071 0.7071 -308.5844 1165.0109)" class="st0" width="55.47" height="55.47"/>
	</g>
	<g>
		
			<rect x="1297.26" y="927.26" transform="matrix(0.7071 -0.7071 0.7071 0.7071 -287.2032 1216.6296)" class="st0" width="55.47" height="55.47"/>
	</g>
	<g>
		
			<rect x="1370.26" y="927.26" transform="matrix(0.7071 -0.7071 0.7071 0.7071 -265.822 1268.2484)" class="st0" width="55.47" height="55.47"/>
	</g>
	<g>
		
			<rect x="1443.26" y="927.26" transform="matrix(0.7071 -0.7071 0.7071 0.7071 -244.4408 1319.8672)" class="st0" width="55.47" height="55.47"/>
	</g>
	<g>
		
			<rect x="1516.26" y="927.26" transform="matrix(0.7071 -0.7071 0.7071 0.7071 -223.0596 1371.486)" class="st0" width="55.47" height="55.47"/>
	</g>
	<g>
		
			<rect x="1589.26" y="927.26" transform="matrix(0.7071 -0.7071 0.7071 0.7071 -201.6784 1423.1047)" class="st0" width="55.47" height="55.47"/>
	</g>
	<g>
		
			<rect x="1662.26" y="927.26" transform="matrix(0.7071 -0.7071 0.7071 0.7071 -180.2972 1474.7236)" class="st0" width="55.47" height="55.47"/>
	</g>
	<g>
		
			<rect x="1735.26" y="927.26" transform="matrix(0.7071 -0.7071 0.7071 0.7071 -158.916 1526.3424)" class="st0" width="55.47" height="55.47"/>
	</g>
	<g>
		
			<rect x="1808.26" y="927.26" transform="matrix(0.7071 -0.7071 0.7071 0.7071 -137.5348 1577.9612)" class="st0" width="55.47" height="55.47"/>
	</g>
	<g>
		
			<rect x="1881.26" y="927.26" transform="matrix(0.7071 -0.7071 0.7071 0.7071 -116.1536 1629.58)" class="st0" width="55.47" height="55.47"/>
	</g>
	<g>
		
			<rect x="-16.74" y="856.26" transform="matrix(0.7071 -0.7071 0.7071 0.7071 -621.8604 266.6959)" class="st0" width="55.47" height="55.47"/>
	</g>
	<g>
		
			<rect x="56.26" y="856.26" transform="matrix(0.7071 -0.7071 0.7071 0.7071 -600.4791 318.3147)" class="st0" width="55.47" height="55.47"/>
	</g>
	<g>
		
			<rect x="129.26" y="856.26" transform="matrix(0.7071 -0.7071 0.7071 0.7071 -579.0979 369.9335)" class="st0" width="55.47" height="55.47"/>
	</g>
	<g>
		
			<rect x="202.26" y="856.26" transform="matrix(0.7071 -0.7071 0.7071 0.7071 -557.7167 421.5523)" class="st0" width="55.47" height="55.47"/>
	</g>
	<g>
		
			<rect x="275.26" y="856.26" transform="matrix(0.7071 -0.7071 0.7071 0.7071 -536.3355 473.1711)" class="st0" width="55.47" height="55.47"/>
	</g>
	<g>
		
			<rect x="348.26" y="856.26" transform="matrix(0.7071 -0.7071 0.7071 0.7071 -514.9543 524.7899)" class="st0" width="55.47" height="55.47"/>
	</g>
	<g>
		
			<rect x="421.26" y="856.26" transform="matrix(0.7071 -0.7071 0.7071 0.7071 -493.5731 576.4086)" class="st0" width="55.47" height="55.47"/>
	</g>
	<g>
		
			<rect x="494.26" y="856.26" transform="matrix(0.7071 -0.7071 0.7071 0.7071 -472.1919 628.0275)" class="st0" width="55.47" height="55.47"/>
	</g>
	<g>
		
			<rect x="567.26" y="856.26" transform="matrix(0.7071 -0.7071 0.7071 0.7071 -450.8107 679.6462)" class="st0" width="55.47" height="55.47"/>
	</g>
	<g>
		
			<rect x="640.26" y="856.26" transform="matrix(0.7071 -0.7071 0.7071 0.7071 -429.4295 731.265)" class="st0" width="55.47" height="55.47"/>
	</g>
	<g>
		
			<rect x="713.26" y="856.26" transform="matrix(0.7071 -0.7071 0.7071 0.7071 -408.0483 782.8839)" class="st0" width="55.47" height="55.47"/>
	</g>
	<g>
		
			<rect x="786.26" y="856.26" transform="matrix(0.7071 -0.7071 0.7071 0.7071 -386.6671 834.5026)" class="st0" width="55.47" height="55.47"/>
	</g>
	<g>
		
			<rect x="859.26" y="856.26" transform="matrix(0.7071 -0.7071 0.7071 0.7071 -365.2859 886.1214)" class="st0" width="55.47" height="55.47"/>
	</g>
	<g>
		
			<rect x="932.26" y="856.26" transform="matrix(0.7071 -0.7071 0.7071 0.7071 -343.9047 937.7402)" class="st0" width="55.47" height="55.47"/>
	</g>
	<g>
		
			<rect x="1005.26" y="856.26" transform="matrix(0.7071 -0.7071 0.7071 0.7071 -322.5235 989.359)" class="st0" width="55.47" height="55.47"/>
	</g>
	<g>
		
			<rect x="1078.26" y="856.26" transform="matrix(0.7071 -0.7071 0.7071 0.7071 -301.1422 1040.9778)" class="st0" width="55.47" height="55.47"/>
	</g>
	<g>
		
			<rect x="1151.26" y="856.26" transform="matrix(0.7071 -0.7071 0.7071 0.7071 -279.761 1092.5966)" class="st0" width="55.47" height="55.47"/>
	</g>
	<g>
		
			<rect x="1224.26" y="856.26" transform="matrix(0.7071 -0.7071 0.7071 0.7071 -258.3799 1144.2155)" class="st0" width="55.47" height="55.47"/>
	</g>
	<g>
		
			<rect x="1297.26" y="856.26" transform="matrix(0.7071 -0.7071 0.7071 0.7071 -236.9986 1195.8342)" class="st0" width="55.47" height="55.47"/>
	</g>
	<g>
		
			<rect x="1370.26" y="856.26" transform="matrix(0.7071 -0.7071 0.7071 0.7071 -215.6174 1247.453)" class="st0" width="55.47" height="55.47"/>
	</g>
	<g>
		
			<rect x="1443.26" y="856.26" transform="matrix(0.7071 -0.7071 0.7071 0.7071 -194.2362 1299.0718)" class="st0" width="55.47" height="55.47"/>
	</g>
	<g>
		
			<rect x="1516.26" y="856.26" transform="matrix(0.7071 -0.7071 0.7071 0.7071 -172.855 1350.6906)" class="st0" width="55.47" height="55.47"/>
	</g>
	<g>
		
			<rect x="1589.26" y="856.26" transform="matrix(0.7071 -0.7071 0.7071 0.7071 -151.4738 1402.3093)" class="st0" width="55.47" height="55.47"/>
	</g>
	<g>
		
			<rect x="1662.26" y="856.26" transform="matrix(0.7071 -0.7071 0.7071 0.7071 -130.0926 1453.9282)" class="st0" width="55.47" height="55.47"/>
	</g>
	<g>
		
			<rect x="1735.26" y="856.26" transform="matrix(0.7071 -0.7071 0.7071 0.7071 -108.7114 1505.547)" class="st0" width="55.47" height="55.47"/>
	</g>
	<g>
		
			<rect x="1808.26" y="856.26" transform="matrix(0.7071 -0.7071 0.7071 0.7071 -87.3302 1557.1658)" class="st0" width="55.47" height="55.47"/>
	</g>
	<g>
		
			<rect x="1881.26" y="856.26" transform="matrix(0.7071 -0.7071 0.7071 0.7071 -65.949 1608.7845)" class="st0" width="55.47" height="55.47"/>
	</g>
	<g>
		
			<rect x="-16.74" y="785.26" transform="matrix(0.7071 -0.7071 0.7071 0.7071 -571.6558 245.9005)" class="st0" width="55.47" height="55.47"/>
	</g>
	<g>
		
			<rect x="56.26" y="785.26" transform="matrix(0.7071 -0.7071 0.7071 0.7071 -550.2745 297.5193)" class="st0" width="55.47" height="55.47"/>
	</g>
	<g>
		
			<rect x="129.26" y="785.26" transform="matrix(0.7071 -0.7071 0.7071 0.7071 -528.8933 349.1381)" class="st0" width="55.47" height="55.47"/>
	</g>
	<g>
		
			<rect x="202.26" y="785.26" transform="matrix(0.7071 -0.7071 0.7071 0.7071 -507.5121 400.7568)" class="st0" width="55.47" height="55.47"/>
	</g>
	<g>
		
			<rect x="275.26" y="785.26" transform="matrix(0.7071 -0.7071 0.7071 0.7071 -486.1309 452.3756)" class="st0" width="55.47" height="55.47"/>
	</g>
	<g>
		
			<rect x="348.26" y="785.26" transform="matrix(0.7071 -0.7071 0.7071 0.7071 -464.7497 503.9944)" class="st0" width="55.47" height="55.47"/>
	</g>
	<g>
		
			<rect x="421.26" y="785.26" transform="matrix(0.7071 -0.7071 0.7071 0.7071 -443.3685 555.6132)" class="st0" width="55.47" height="55.47"/>
	</g>
	<g>
		
			<rect x="494.26" y="785.26" transform="matrix(0.7071 -0.7071 0.7071 0.7071 -421.9873 607.2321)" class="st0" width="55.47" height="55.47"/>
	</g>
	<g>
		
			<rect x="567.26" y="785.26" transform="matrix(0.7071 -0.7071 0.7071 0.7071 -400.6061 658.8508)" class="st0" width="55.47" height="55.47"/>
	</g>
	<g>
		
			<rect x="640.26" y="785.26" transform="matrix(0.7071 -0.7071 0.7071 0.7071 -379.2249 710.4696)" class="st0" width="55.47" height="55.47"/>
	</g>
	<g>
		
			<rect x="713.26" y="785.26" transform="matrix(0.7071 -0.7071 0.7071 0.7071 -357.8437 762.0884)" class="st0" width="55.47" height="55.47"/>
	</g>
	<g>
		
			<rect x="786.26" y="785.26" transform="matrix(0.7071 -0.7071 0.7071 0.7071 -336.4625 813.7072)" class="st0" width="55.47" height="55.47"/>
	</g>
	<g>
		
			<rect x="859.26" y="785.26" transform="matrix(0.7071 -0.7071 0.7071 0.7071 -315.0813 865.326)" class="st0" width="55.47" height="55.47"/>
	</g>
	<g>
		
			<rect x="932.26" y="785.26" transform="matrix(0.7071 -0.7071 0.7071 0.7071 -293.7001 916.9448)" class="st0" width="55.47" height="55.47"/>
	</g>
	<g>
		
			<rect x="1005.26" y="785.26" transform="matrix(0.7071 -0.7071 0.7071 0.7071 -272.3189 968.5636)" class="st0" width="55.47" height="55.47"/>
	</g>
	<g>
		
			<rect x="1078.26" y="785.26" transform="matrix(0.7071 -0.7071 0.7071 0.7071 -250.9377 1020.1824)" class="st0" width="55.47" height="55.47"/>
	</g>
	<g>
		
			<rect x="1151.26" y="785.26" transform="matrix(0.7071 -0.7071 0.7071 0.7071 -229.5565 1071.8011)" class="st0" width="55.47" height="55.47"/>
	</g>
	<g>
		
			<rect x="1224.26" y="785.26" transform="matrix(0.7071 -0.7071 0.7071 0.7071 -208.1753 1123.4199)" class="st0" width="55.47" height="55.47"/>
	</g>
	<g>
		
			<rect x="1297.26" y="785.26" transform="matrix(0.7071 -0.7071 0.7071 0.7071 -186.7941 1175.0388)" class="st0" width="55.47" height="55.47"/>
	</g>
	<g>
		
			<rect x="1370.26" y="785.26" transform="matrix(0.7071 -0.7071 0.7071 0.7071 -165.4128 1226.6576)" class="st0" width="55.47" height="55.47"/>
	</g>
	<g>
		
			<rect x="1443.26" y="785.26" transform="matrix(0.7071 -0.7071 0.7071 0.7071 -144.0316 1278.2764)" class="st0" width="55.47" height="55.47"/>
	</g>
	<g>
		
			<rect x="1516.26" y="785.26" transform="matrix(0.7071 -0.7071 0.7071 0.7071 -122.6504 1329.8951)" class="st0" width="55.47" height="55.47"/>
	</g>
	<g>
		
			<rect x="1589.26" y="785.26" transform="matrix(0.7071 -0.7071 0.7071 0.7071 -101.2692 1381.5139)" class="st0" width="55.47" height="55.47"/>
	</g>
	<g>
		
			<rect x="1662.26" y="785.26" transform="matrix(0.7071 -0.7071 0.7071 0.7071 -79.888 1433.1327)" class="st0" width="55.47" height="55.47"/>
	</g>
	<g>
		
			<rect x="1735.26" y="785.26" transform="matrix(0.7071 -0.7071 0.7071 0.7071 -58.5068 1484.7516)" class="st0" width="55.47" height="55.47"/>
	</g>
	<g>
		
			<rect x="1808.26" y="785.26" transform="matrix(0.7071 -0.7071 0.7071 0.7071 -37.1256 1536.3704)" class="st0" width="55.47" height="55.47"/>
	</g>
	<g>
		
			<rect x="1881.26" y="785.26" transform="matrix(0.7071 -0.7071 0.7071 0.7071 -15.7444 1587.9891)" class="st0" width="55.47" height="55.47"/>
	</g>
	<g>
		
			<rect x="-16.74" y="714.26" transform="matrix(0.7071 -0.7071 0.7071 0.7071 -521.4512 225.105)" class="st0" width="55.47" height="55.47"/>
	</g>
	<g>
		
			<rect x="56.26" y="714.26" transform="matrix(0.7071 -0.7071 0.7071 0.7071 -500.0699 276.7238)" class="st0" width="55.47" height="55.47"/>
	</g>
	<g>
		
			<rect x="129.26" y="714.26" transform="matrix(0.7071 -0.7071 0.7071 0.7071 -478.6888 328.3426)" class="st0" width="55.47" height="55.47"/>
	</g>
	<g>
		
			<rect x="202.26" y="714.26" transform="matrix(0.7071 -0.7071 0.7071 0.7071 -457.3076 379.9614)" class="st0" width="55.47" height="55.47"/>
	</g>
	<g>
		
			<rect x="275.26" y="714.26" transform="matrix(0.7071 -0.7071 0.7071 0.7071 -435.9263 431.5802)" class="st0" width="55.47" height="55.47"/>
	</g>
	<g>
		
			<rect x="348.26" y="714.26" transform="matrix(0.7071 -0.7071 0.7071 0.7071 -414.5451 483.199)" class="st0" width="55.47" height="55.47"/>
	</g>
	<g>
		
			<rect x="421.26" y="714.26" transform="matrix(0.7071 -0.7071 0.7071 0.7071 -393.1639 534.8178)" class="st0" width="55.47" height="55.47"/>
	</g>
	<g>
		
			<rect x="494.26" y="714.26" transform="matrix(0.7071 -0.7071 0.7071 0.7071 -371.7827 586.4366)" class="st0" width="55.47" height="55.47"/>
	</g>
	<g>
		
			<rect x="567.26" y="714.26" transform="matrix(0.7071 -0.7071 0.7071 0.7071 -350.4015 638.0554)" class="st0" width="55.47" height="55.47"/>
	</g>
	<g>
		
			<rect x="640.26" y="714.26" transform="matrix(0.7071 -0.7071 0.7071 0.7071 -329.0203 689.6742)" class="st0" width="55.47" height="55.47"/>
	</g>
	<g>
		
			<rect x="713.26" y="714.26" transform="matrix(0.7071 -0.7071 0.7071 0.7071 -307.6391 741.293)" class="st0" width="55.47" height="55.47"/>
	</g>
	<g>
		
			<rect x="786.26" y="714.26" transform="matrix(0.7071 -0.7071 0.7071 0.7071 -286.2579 792.9118)" class="st0" width="55.47" height="55.47"/>
	</g>
	<g>
		
			<rect x="859.26" y="714.26" transform="matrix(0.7071 -0.7071 0.7071 0.7071 -264.8767 844.5306)" class="st0" width="55.47" height="55.47"/>
	</g>
	<g>
		
			<rect x="932.26" y="714.26" transform="matrix(0.7071 -0.7071 0.7071 0.7071 -243.4955 896.1494)" class="st0" width="55.47" height="55.47"/>
	</g>
	<g>
		
			<rect x="1005.26" y="714.26" transform="matrix(0.7071 -0.7071 0.7071 0.7071 -222.1143 947.7682)" class="st0" width="55.47" height="55.47"/>
	</g>
	<g>
		
			<rect x="1078.26" y="714.26" transform="matrix(0.7071 -0.7071 0.7071 0.7071 -200.7331 999.387)" class="st0" width="55.47" height="55.47"/>
	</g>
	<g>
		
			<rect x="1151.26" y="714.26" transform="matrix(0.7071 -0.7071 0.7071 0.7071 -179.3519 1051.0057)" class="st0" width="55.47" height="55.47"/>
	</g>
	<g>
		
			<rect x="1224.26" y="714.26" transform="matrix(0.7071 -0.7071 0.7071 0.7071 -157.9707 1102.6245)" class="st0" width="55.47" height="55.47"/>
	</g>
	<g>
		
			<rect x="1297.26" y="714.26" transform="matrix(0.7071 -0.7071 0.7071 0.7071 -136.5895 1154.2434)" class="st0" width="55.47" height="55.47"/>
	</g>
	<g>
		
			<rect x="1370.26" y="714.26" transform="matrix(0.7071 -0.7071 0.7071 0.7071 -115.2083 1205.8622)" class="st0" width="55.47" height="55.47"/>
	</g>
	<g>
		
			<rect x="1443.26" y="714.26" transform="matrix(0.7071 -0.7071 0.7071 0.7071 -93.8271 1257.481)" class="st0" width="55.47" height="55.47"/>
	</g>
	<g>
		
			<rect x="1516.26" y="714.26" transform="matrix(0.7071 -0.7071 0.7071 0.7071 -72.4459 1309.0997)" class="st0" width="55.47" height="55.47"/>
	</g>
	<g>
		
			<rect x="1589.26" y="714.26" transform="matrix(0.7071 -0.7071 0.7071 0.7071 -51.0647 1360.7185)" class="st0" width="55.47" height="55.47"/>
	</g>
	<g>
		
			<rect x="1662.26" y="714.26" transform="matrix(0.7071 -0.7071 0.7071 0.7071 -29.6834 1412.3373)" class="st0" width="55.47" height="55.47"/>
	</g>
	<g>
		
			<rect x="1735.26" y="714.26" transform="matrix(0.7071 -0.7071 0.7071 0.7071 -8.3022 1463.9562)" class="st0" width="55.47" height="55.47"/>
	</g>
	<g>
		
			<rect x="1808.26" y="714.26" transform="matrix(0.7071 -0.7071 0.7071 0.7071 13.079 1515.575)" class="st0" width="55.47" height="55.47"/>
	</g>
	<g>
		
			<rect x="1881.26" y="714.26" transform="matrix(0.7071 -0.7071 0.7071 0.7071 34.4602 1567.1937)" class="st0" width="55.47" height="55.47"/>
	</g>
	<g>
		
			<rect x="-16.74" y="643.26" transform="matrix(0.7071 -0.7071 0.7071 0.7071 -471.2466 204.3096)" class="st0" width="55.47" height="55.47"/>
	</g>
	<g>
		
			<rect x="56.26" y="643.26" transform="matrix(0.7071 -0.7071 0.7071 0.7071 -449.8654 255.9284)" class="st0" width="55.47" height="55.47"/>
	</g>
	<g>
		
			<rect x="129.26" y="643.26" transform="matrix(0.7071 -0.7071 0.7071 0.7071 -428.4842 307.5472)" class="st0" width="55.47" height="55.47"/>
	</g>
	<g>
		
			<rect x="202.26" y="643.26" transform="matrix(0.7071 -0.7071 0.7071 0.7071 -407.103 359.166)" class="st0" width="55.47" height="55.47"/>
	</g>
	<g>
		
			<rect x="275.26" y="643.26" transform="matrix(0.7071 -0.7071 0.7071 0.7071 -385.7218 410.7848)" class="st0" width="55.47" height="55.47"/>
	</g>
	<g>
		
			<rect x="348.26" y="643.26" transform="matrix(0.7071 -0.7071 0.7071 0.7071 -364.3405 462.4036)" class="st0" width="55.47" height="55.47"/>
	</g>
	<g>
		
			<rect x="421.26" y="643.26" transform="matrix(0.7071 -0.7071 0.7071 0.7071 -342.9594 514.0224)" class="st0" width="55.47" height="55.47"/>
	</g>
	<g>
		
			<rect x="494.26" y="643.26" transform="matrix(0.7071 -0.7071 0.7071 0.7071 -321.5782 565.6412)" class="st0" width="55.47" height="55.47"/>
	</g>
	<g>
		
			<rect x="567.26" y="643.26" transform="matrix(0.7071 -0.7071 0.7071 0.7071 -300.1969 617.26)" class="st0" width="55.47" height="55.47"/>
	</g>
	<g>
		
			<rect x="640.26" y="643.26" transform="matrix(0.7071 -0.7071 0.7071 0.7071 -278.8157 668.8788)" class="st0" width="55.47" height="55.47"/>
	</g>
	<g>
		
			<rect x="713.26" y="643.26" transform="matrix(0.7071 -0.7071 0.7071 0.7071 -257.4345 720.4976)" class="st0" width="55.47" height="55.47"/>
	</g>
	<g>
		
			<rect x="786.26" y="643.26" transform="matrix(0.7071 -0.7071 0.7071 0.7071 -236.0533 772.1164)" class="st0" width="55.47" height="55.47"/>
	</g>
	<g>
		
			<rect x="859.26" y="643.26" transform="matrix(0.7071 -0.7071 0.7071 0.7071 -214.6721 823.7352)" class="st0" width="55.47" height="55.47"/>
	</g>
	<g>
		
			<rect x="932.26" y="643.26" transform="matrix(0.7071 -0.7071 0.7071 0.7071 -193.2909 875.3539)" class="st0" width="55.47" height="55.47"/>
	</g>
	<g>
		
			<rect x="1005.26" y="643.26" transform="matrix(0.7071 -0.7071 0.7071 0.7071 -171.9097 926.9728)" class="st0" width="55.47" height="55.47"/>
	</g>
	<g>
		
			<rect x="1078.26" y="643.26" transform="matrix(0.7071 -0.7071 0.7071 0.7071 -150.5285 978.5916)" class="st0" width="55.47" height="55.47"/>
	</g>
	<g>
		
			<rect x="1151.26" y="643.26" transform="matrix(0.7071 -0.7071 0.7071 0.7071 -129.1473 1030.2103)" class="st0" width="55.47" height="55.47"/>
	</g>
	<g>
		
			<rect x="1224.26" y="643.26" transform="matrix(0.7071 -0.7071 0.7071 0.7071 -107.7661 1081.8291)" class="st0" width="55.47" height="55.47"/>
	</g>
	<g>
		
			<rect x="1297.26" y="643.26" transform="matrix(0.7071 -0.7071 0.7071 0.7071 -86.3849 1133.4479)" class="st0" width="55.47" height="55.47"/>
	</g>
	<g>
		
			<rect x="1370.26" y="643.26" transform="matrix(0.7071 -0.7071 0.7071 0.7071 -65.0037 1185.0668)" class="st0" width="55.47" height="55.47"/>
	</g>
	<g>
		
			<rect x="1443.26" y="643.26" transform="matrix(0.7071 -0.7071 0.7071 0.7071 -43.6225 1236.6855)" class="st0" width="55.47" height="55.47"/>
	</g>
	<g>
		
			<rect x="1516.26" y="643.26" transform="matrix(0.7071 -0.7071 0.7071 0.7071 -22.2413 1288.3043)" class="st0" width="55.47" height="55.47"/>
	</g>
	<g>
		
			<rect x="1589.26" y="643.26" transform="matrix(0.7071 -0.7071 0.7071 0.7071 -0.8601 1339.9231)" class="st0" width="55.47" height="55.47"/>
	</g>
	<g>
		
			<rect x="1662.26" y="643.26" transform="matrix(0.7071 -0.7071 0.7071 0.7071 20.5211 1391.5419)" class="st0" width="55.47" height="55.47"/>
	</g>
	<g>
		
			<rect x="1735.26" y="643.26" transform="matrix(0.7071 -0.7071 0.7071 0.7071 41.9023 1443.1608)" class="st0" width="55.47" height="55.47"/>
	</g>
	<g>
		
			<rect x="1808.26" y="643.26" transform="matrix(0.7071 -0.7071 0.7071 0.7071 63.2835 1494.7795)" class="st0" width="55.47" height="55.47"/>
	</g>
	<g>
		
			<rect x="1881.26" y="643.26" transform="matrix(0.7071 -0.7071 0.7071 0.7071 84.6647 1546.3983)" class="st0" width="55.47" height="55.47"/>
	</g>
	<g>
		
			<rect x="-16.74" y="572.26" transform="matrix(0.7071 -0.7071 0.7071 0.7071 -421.042 183.5142)" class="st0" width="55.47" height="55.47"/>
	</g>
	<g>
		
			<rect x="56.26" y="572.26" transform="matrix(0.7071 -0.7071 0.7071 0.7071 -399.6608 235.133)" class="st0" width="55.47" height="55.47"/>
	</g>
	<g>
		
			<rect x="129.26" y="572.26" transform="matrix(0.7071 -0.7071 0.7071 0.7071 -378.2796 286.7518)" class="st0" width="55.47" height="55.47"/>
	</g>
	<g>
		
			<rect x="202.26" y="572.26" transform="matrix(0.7071 -0.7071 0.7071 0.7071 -356.8984 338.3706)" class="st0" width="55.47" height="55.47"/>
	</g>
	<g>
		
			<rect x="275.26" y="572.26" transform="matrix(0.7071 -0.7071 0.7071 0.7071 -335.5172 389.9894)" class="st0" width="55.47" height="55.47"/>
	</g>
	<g>
		
			<rect x="348.26" y="572.26" transform="matrix(0.7071 -0.7071 0.7071 0.7071 -314.136 441.6082)" class="st0" width="55.47" height="55.47"/>
	</g>
	<g>
		
			<rect x="421.26" y="572.26" transform="matrix(0.7071 -0.7071 0.7071 0.7071 -292.7548 493.227)" class="st0" width="55.47" height="55.47"/>
	</g>
	<g>
		
			<rect x="494.26" y="572.26" transform="matrix(0.7071 -0.7071 0.7071 0.7071 -271.3736 544.8458)" class="st0" width="55.47" height="55.47"/>
	</g>
	<g>
		
			<rect x="567.26" y="572.26" transform="matrix(0.7071 -0.7071 0.7071 0.7071 -249.9924 596.4645)" class="st0" width="55.47" height="55.47"/>
	</g>
	<g>
		
			<rect x="640.26" y="572.26" transform="matrix(0.7071 -0.7071 0.7071 0.7071 -228.6112 648.0834)" class="st0" width="55.47" height="55.47"/>
	</g>
	<g>
		
			<rect x="713.26" y="572.26" transform="matrix(0.7071 -0.7071 0.7071 0.7071 -207.2299 699.7021)" class="st0" width="55.47" height="55.47"/>
	</g>
	<g>
		
			<rect x="786.26" y="572.26" transform="matrix(0.7071 -0.7071 0.7071 0.7071 -185.8487 751.3209)" class="st0" width="55.47" height="55.47"/>
	</g>
	<g>
		
			<rect x="859.26" y="572.26" transform="matrix(0.7071 -0.7071 0.7071 0.7071 -164.4675 802.9398)" class="st0" width="55.47" height="55.47"/>
	</g>
	<g>
		
			<rect x="932.26" y="572.26" transform="matrix(0.7071 -0.7071 0.7071 0.7071 -143.0863 854.5585)" class="st0" width="55.47" height="55.47"/>
	</g>
	<g>
		
			<rect x="1005.26" y="572.26" transform="matrix(0.7071 -0.7071 0.7071 0.7071 -121.7051 906.1773)" class="st0" width="55.47" height="55.47"/>
	</g>
	<g>
		
			<rect x="1078.26" y="572.26" transform="matrix(0.7071 -0.7071 0.7071 0.7071 -100.3239 957.7961)" class="st0" width="55.47" height="55.47"/>
	</g>
	<g>
		
			<rect x="1151.26" y="572.26" transform="matrix(0.7071 -0.7071 0.7071 0.7071 -78.9427 1009.4149)" class="st0" width="55.47" height="55.47"/>
	</g>
	<g>
		
			<rect x="1224.26" y="572.26" transform="matrix(0.7071 -0.7071 0.7071 0.7071 -57.5615 1061.0337)" class="st0" width="55.47" height="55.47"/>
	</g>
	<g>
		
			<rect x="1297.26" y="572.26" transform="matrix(0.7071 -0.7071 0.7071 0.7071 -36.1803 1112.6525)" class="st0" width="55.47" height="55.47"/>
	</g>
	<g>
		
			<rect x="1370.26" y="572.26" transform="matrix(0.7071 -0.7071 0.7071 0.7071 -14.7991 1164.2714)" class="st0" width="55.47" height="55.47"/>
	</g>
	<g>
		
			<rect x="1443.26" y="572.26" transform="matrix(0.7071 -0.7071 0.7071 0.7071 6.5821 1215.8901)" class="st0" width="55.47" height="55.47"/>
	</g>
	<g>
		
			<rect x="1516.26" y="572.26" transform="matrix(0.7071 -0.7071 0.7071 0.7071 27.9633 1267.5089)" class="st0" width="55.47" height="55.47"/>
	</g>
	<g>
		
			<rect x="1589.26" y="572.26" transform="matrix(0.7071 -0.7071 0.7071 0.7071 49.3445 1319.1277)" class="st0" width="55.47" height="55.47"/>
	</g>
	<g>
		
			<rect x="1662.26" y="572.26" transform="matrix(0.7071 -0.7071 0.7071 0.7071 70.7257 1370.7465)" class="st0" width="55.47" height="55.47"/>
	</g>
	<g>
		
			<rect x="1735.26" y="572.26" transform="matrix(0.7071 -0.7071 0.7071 0.7071 92.1069 1422.3652)" class="st0" width="55.47" height="55.47"/>
	</g>
	<g>
		
			<rect x="1808.26" y="572.26" transform="matrix(0.7071 -0.7071 0.7071 0.7071 113.4881 1473.9841)" class="st0" width="55.47" height="55.47"/>
	</g>
	<g>
		
			<rect x="1881.26" y="572.26" transform="matrix(0.7071 -0.7071 0.7071 0.7071 134.8693 1525.6029)" class="st0" width="55.47" height="55.47"/>
	</g>
	<g>
		
			<rect x="-16.74" y="501.26" transform="matrix(0.7071 -0.7071 0.7071 0.7071 -370.8374 162.7188)" class="st0" width="55.47" height="55.47"/>
	</g>
	<g>
		
			<rect x="56.26" y="501.26" transform="matrix(0.7071 -0.7071 0.7071 0.7071 -349.4562 214.3376)" class="st0" width="55.47" height="55.47"/>
	</g>
	<g>
		
			<rect x="129.26" y="501.26" transform="matrix(0.7071 -0.7071 0.7071 0.7071 -328.075 265.9564)" class="st0" width="55.47" height="55.47"/>
	</g>
	<g>
		
			<rect x="202.26" y="501.26" transform="matrix(0.7071 -0.7071 0.7071 0.7071 -306.6938 317.5752)" class="st0" width="55.47" height="55.47"/>
	</g>
	<g>
		
			<rect x="275.26" y="501.26" transform="matrix(0.7071 -0.7071 0.7071 0.7071 -285.3126 369.194)" class="st0" width="55.47" height="55.47"/>
	</g>
	<g>
		
			<rect x="348.26" y="501.26" transform="matrix(0.7071 -0.7071 0.7071 0.7071 -263.9314 420.8128)" class="st0" width="55.47" height="55.47"/>
	</g>
	<g>
		
			<rect x="421.26" y="501.26" transform="matrix(0.7071 -0.7071 0.7071 0.7071 -242.5502 472.4315)" class="st0" width="55.47" height="55.47"/>
	</g>
	<g>
		
			<rect x="494.26" y="501.26" transform="matrix(0.7071 -0.7071 0.7071 0.7071 -221.169 524.0504)" class="st0" width="55.47" height="55.47"/>
	</g>
	<g>
		
			<rect x="567.26" y="501.26" transform="matrix(0.7071 -0.7071 0.7071 0.7071 -199.7878 575.6691)" class="st0" width="55.47" height="55.47"/>
	</g>
	<g>
		
			<rect x="640.26" y="501.26" transform="matrix(0.7071 -0.7071 0.7071 0.7071 -178.4066 627.288)" class="st0" width="55.47" height="55.47"/>
	</g>
	<g>
		
			<rect x="713.26" y="501.26" transform="matrix(0.7071 -0.7071 0.7071 0.7071 -157.0254 678.9067)" class="st0" width="55.47" height="55.47"/>
	</g>
	<g>
		
			<rect x="786.26" y="501.26" transform="matrix(0.7071 -0.7071 0.7071 0.7071 -135.6442 730.5255)" class="st0" width="55.47" height="55.47"/>
	</g>
	<g>
		
			<rect x="859.26" y="501.26" transform="matrix(0.7071 -0.7071 0.7071 0.7071 -114.263 782.1443)" class="st0" width="55.47" height="55.47"/>
	</g>
	<g>
		
			<rect x="932.26" y="501.26" transform="matrix(0.7071 -0.7071 0.7071 0.7071 -92.8818 833.7631)" class="st0" width="55.47" height="55.47"/>
	</g>
	<g>
		
			<rect x="1005.26" y="501.26" transform="matrix(0.7071 -0.7071 0.7071 0.7071 -71.5005 885.3819)" class="st0" width="55.47" height="55.47"/>
	</g>
	<g>
		
			<rect x="1078.26" y="501.26" transform="matrix(0.7071 -0.7071 0.7071 0.7071 -50.1193 937.0007)" class="st0" width="55.47" height="55.47"/>
	</g>
	<g>
		
			<rect x="1151.26" y="501.26" transform="matrix(0.7071 -0.7071 0.7071 0.7071 -28.7381 988.6195)" class="st0" width="55.47" height="55.47"/>
	</g>
	<g>
		
			<rect x="1224.26" y="501.26" transform="matrix(0.7071 -0.7071 0.7071 0.7071 -7.3569 1040.2383)" class="st0" width="55.47" height="55.47"/>
	</g>
	<g>
		
			<rect x="1297.26" y="501.26" transform="matrix(0.7071 -0.7071 0.7071 0.7071 14.0243 1091.8571)" class="st0" width="55.47" height="55.47"/>
	</g>
	<g>
		
			<rect x="1370.26" y="501.26" transform="matrix(0.7071 -0.7071 0.7071 0.7071 35.4055 1143.476)" class="st0" width="55.47" height="55.47"/>
	</g>
	<g>
		
			<rect x="1443.26" y="501.26" transform="matrix(0.7071 -0.7071 0.7071 0.7071 56.7867 1195.0947)" class="st0" width="55.47" height="55.47"/>
	</g>
	<g>
		
			<rect x="1516.26" y="501.26" transform="matrix(0.7071 -0.7071 0.7071 0.7071 78.1679 1246.7135)" class="st0" width="55.47" height="55.47"/>
	</g>
	<g>
		
			<rect x="1589.26" y="501.26" transform="matrix(0.7071 -0.7071 0.7071 0.7071 99.5491 1298.3323)" class="st0" width="55.47" height="55.47"/>
	</g>
	<g>
		
			<rect x="1662.26" y="501.26" transform="matrix(0.7071 -0.7071 0.7071 0.7071 120.9303 1349.951)" class="st0" width="55.47" height="55.47"/>
	</g>
	<g>
		
			<rect x="1735.26" y="501.26" transform="matrix(0.7071 -0.7071 0.7071 0.7071 142.3115 1401.5698)" class="st0" width="55.47" height="55.47"/>
	</g>
	<g>
		
			<rect x="1808.26" y="501.26" transform="matrix(0.7071 -0.7071 0.7071 0.7071 163.6927 1453.1887)" class="st0" width="55.47" height="55.47"/>
	</g>
	<g>
		
			<rect x="1881.26" y="501.26" transform="matrix(0.7071 -0.7071 0.7071 0.7071 185.0739 1504.8075)" class="st0" width="55.47" height="55.47"/>
	</g>
	<g>
		
			<rect x="-16.74" y="430.26" transform="matrix(0.7071 -0.7071 0.7071 0.7071 -320.6328 141.9234)" class="st0" width="55.47" height="55.47"/>
	</g>
	<g>
		
			<rect x="56.26" y="430.26" transform="matrix(0.7071 -0.7071 0.7071 0.7071 -299.2516 193.5422)" class="st0" width="55.47" height="55.47"/>
	</g>
	<g>
		
			<rect x="129.26" y="430.26" transform="matrix(0.7071 -0.7071 0.7071 0.7071 -277.8704 245.161)" class="st0" width="55.47" height="55.47"/>
	</g>
	<g>
		
			<rect x="202.26" y="430.26" transform="matrix(0.7071 -0.7071 0.7071 0.7071 -256.4892 296.7798)" class="st0" width="55.47" height="55.47"/>
	</g>
	<g>
		
			<rect x="275.26" y="430.26" transform="matrix(0.7071 -0.7071 0.7071 0.7071 -235.108 348.3986)" class="st0" width="55.47" height="55.47"/>
	</g>
	<g>
		
			<rect x="348.26" y="430.26" transform="matrix(0.7071 -0.7071 0.7071 0.7071 -213.7268 400.0173)" class="st0" width="55.47" height="55.47"/>
	</g>
	<g>
		
			<rect x="421.26" y="430.26" transform="matrix(0.7071 -0.7071 0.7071 0.7071 -192.3456 451.6361)" class="st0" width="55.47" height="55.47"/>
	</g>
	<g>
		
			<rect x="494.26" y="430.26" transform="matrix(0.7071 -0.7071 0.7071 0.7071 -170.9644 503.2549)" class="st0" width="55.47" height="55.47"/>
	</g>
	<g>
		
			<rect x="567.26" y="430.26" transform="matrix(0.7071 -0.7071 0.7071 0.7071 -149.5832 554.8737)" class="st0" width="55.47" height="55.47"/>
	</g>
	<g>
		
			<rect x="640.26" y="430.26" transform="matrix(0.7071 -0.7071 0.7071 0.7071 -128.202 606.4926)" class="st0" width="55.47" height="55.47"/>
	</g>
	<g>
		
			<rect x="713.26" y="430.26" transform="matrix(0.7071 -0.7071 0.7071 0.7071 -106.8208 658.1113)" class="st0" width="55.47" height="55.47"/>
	</g>
	<g>
		
			<rect x="786.26" y="430.26" transform="matrix(0.7071 -0.7071 0.7071 0.7071 -85.4396 709.7301)" class="st0" width="55.47" height="55.47"/>
	</g>
	<g>
		
			<rect x="859.26" y="430.26" transform="matrix(0.7071 -0.7071 0.7071 0.7071 -64.0584 761.3489)" class="st0" width="55.47" height="55.47"/>
	</g>
	<g>
		
			<rect x="932.26" y="430.26" transform="matrix(0.7071 -0.7071 0.7071 0.7071 -42.6772 812.9677)" class="st0" width="55.47" height="55.47"/>
	</g>
	<g>
		
			<rect x="1005.26" y="430.26" transform="matrix(0.7071 -0.7071 0.7071 0.7071 -21.296 864.5865)" class="st0" width="55.47" height="55.47"/>
	</g>
	<g>
		
			<rect x="1078.26" y="430.26" transform="matrix(0.7071 -0.7071 0.7071 0.7071 0.0852 916.2053)" class="st0" width="55.47" height="55.47"/>
	</g>
	<g>
		
			<rect x="1151.26" y="430.26" transform="matrix(0.7071 -0.7071 0.7071 0.7071 21.4664 967.8241)" class="st0" width="55.47" height="55.47"/>
	</g>
	<g>
		
			<rect x="1224.26" y="430.26" transform="matrix(0.7071 -0.7071 0.7071 0.7071 42.8476 1019.4429)" class="st0" width="55.47" height="55.47"/>
	</g>
	<g>
		
			<rect x="1297.26" y="430.26" transform="matrix(0.7071 -0.7071 0.7071 0.7071 64.2289 1071.0616)" class="st0" width="55.47" height="55.47"/>
	</g>
	<g>
		
			<rect x="1370.26" y="430.26" transform="matrix(0.7071 -0.7071 0.7071 0.7071 85.6101 1122.6804)" class="st0" width="55.47" height="55.47"/>
	</g>
	<g>
		
			<rect x="1443.26" y="430.26" transform="matrix(0.7071 -0.7071 0.7071 0.7071 106.9913 1174.2993)" class="st0" width="55.47" height="55.47"/>
	</g>
	<g>
		
			<rect x="1516.26" y="430.26" transform="matrix(0.7071 -0.7071 0.7071 0.7071 128.3725 1225.9181)" class="st0" width="55.47" height="55.47"/>
	</g>
	<g>
		
			<rect x="1589.26" y="430.26" transform="matrix(0.7071 -0.7071 0.7071 0.7071 149.7537 1277.5369)" class="st0" width="55.47" height="55.47"/>
	</g>
	<g>
		
			<rect x="1662.26" y="430.26" transform="matrix(0.7071 -0.7071 0.7071 0.7071 171.1349 1329.1556)" class="st0" width="55.47" height="55.47"/>
	</g>
	<g>
		
			<rect x="1735.26" y="430.26" transform="matrix(0.7071 -0.7071 0.7071 0.7071 192.5161 1380.7744)" class="st0" width="55.47" height="55.47"/>
	</g>
	<g>
		
			<rect x="1808.26" y="430.26" transform="matrix(0.7071 -0.7071 0.7071 0.7071 213.8973 1432.3932)" class="st0" width="55.47" height="55.47"/>
	</g>
	<g>
		
			<rect x="1881.26" y="430.26" transform="matrix(0.7071 -0.7071 0.7071 0.7071 235.2785 1484.0121)" class="st0" width="55.47" height="55.47"/>
	</g>
	<g>
		
			<rect x="-16.74" y="359.26" transform="matrix(0.7071 -0.7071 0.7071 0.7071 -270.4283 121.128)" class="st0" width="55.47" height="55.47"/>
	</g>
	<g>
		
			<rect x="56.26" y="359.26" transform="matrix(0.7071 -0.7071 0.7071 0.7071 -249.047 172.7467)" class="st0" width="55.47" height="55.47"/>
	</g>
	<g>
		
			<rect x="129.26" y="359.26" transform="matrix(0.7071 -0.7071 0.7071 0.7071 -227.6658 224.3655)" class="st0" width="55.47" height="55.47"/>
	</g>
	<g>
		
			<rect x="202.26" y="359.26" transform="matrix(0.7071 -0.7071 0.7071 0.7071 -206.2846 275.9843)" class="st0" width="55.47" height="55.47"/>
	</g>
	<g>
		
			<rect x="275.26" y="359.26" transform="matrix(0.7071 -0.7071 0.7071 0.7071 -184.9034 327.6031)" class="st0" width="55.47" height="55.47"/>
	</g>
	<g>
		
			<rect x="348.26" y="359.26" transform="matrix(0.7071 -0.7071 0.7071 0.7071 -163.5222 379.2219)" class="st0" width="55.47" height="55.47"/>
	</g>
	<g>
		
			<rect x="421.26" y="359.26" transform="matrix(0.7071 -0.7071 0.7071 0.7071 -142.141 430.8407)" class="st0" width="55.47" height="55.47"/>
	</g>
	<g>
		
			<rect x="494.26" y="359.26" transform="matrix(0.7071 -0.7071 0.7071 0.7071 -120.7598 482.4595)" class="st0" width="55.47" height="55.47"/>
	</g>
	<g>
		
			<rect x="567.26" y="359.26" transform="matrix(0.7071 -0.7071 0.7071 0.7071 -99.3786 534.0783)" class="st0" width="55.47" height="55.47"/>
	</g>
	<g>
		
			<rect x="640.26" y="359.26" transform="matrix(0.7071 -0.7071 0.7071 0.7071 -77.9974 585.6971)" class="st0" width="55.47" height="55.47"/>
	</g>
	<g>
		
			<rect x="713.26" y="359.26" transform="matrix(0.7071 -0.7071 0.7071 0.7071 -56.6162 637.3159)" class="st0" width="55.47" height="55.47"/>
	</g>
	<g>
		
			<rect x="786.26" y="359.26" transform="matrix(0.7071 -0.7071 0.7071 0.7071 -35.235 688.9347)" class="st0" width="55.47" height="55.47"/>
	</g>
	<g>
		
			<rect x="859.26" y="359.26" transform="matrix(0.7071 -0.7071 0.7071 0.7071 -13.8538 740.5535)" class="st0" width="55.47" height="55.47"/>
	</g>
	<g>
		
			<rect x="932.26" y="359.26" transform="matrix(0.7071 -0.7071 0.7071 0.7071 7.5274 792.1723)" class="st0" width="55.47" height="55.47"/>
	</g>
	<g>
		
			<rect x="1005.26" y="359.26" transform="matrix(0.7071 -0.7071 0.7071 0.7071 28.9086 843.7911)" class="st0" width="55.47" height="55.47"/>
	</g>
	<g>
		
			<rect x="1078.26" y="359.26" transform="matrix(0.7071 -0.7071 0.7071 0.7071 50.2898 895.4099)" class="st0" width="55.47" height="55.47"/>
	</g>
	<g>
		
			<rect x="1151.26" y="359.26" transform="matrix(0.7071 -0.7071 0.7071 0.7071 71.671 947.0287)" class="st0" width="55.47" height="55.47"/>
	</g>
	<g>
		
			<rect x="1224.26" y="359.26" transform="matrix(0.7071 -0.7071 0.7071 0.7071 93.0522 998.6475)" class="st0" width="55.47" height="55.47"/>
	</g>
	<g>
		
			<rect x="1297.26" y="359.26" transform="matrix(0.7071 -0.7071 0.7071 0.7071 114.4334 1050.2662)" class="st0" width="55.47" height="55.47"/>
	</g>
	<g>
		
			<rect x="1370.26" y="359.26" transform="matrix(0.7071 -0.7071 0.7071 0.7071 135.8146 1101.885)" class="st0" width="55.47" height="55.47"/>
	</g>
	<g>
		
			<rect x="1443.26" y="359.26" transform="matrix(0.7071 -0.7071 0.7071 0.7071 157.1958 1153.5039)" class="st0" width="55.47" height="55.47"/>
	</g>
	<g>
		
			<rect x="1516.26" y="359.26" transform="matrix(0.7071 -0.7071 0.7071 0.7071 178.5771 1205.1227)" class="st0" width="55.47" height="55.47"/>
	</g>
	<g>
		
			<rect x="1589.26" y="359.26" transform="matrix(0.7071 -0.7071 0.7071 0.7071 199.9583 1256.7415)" class="st0" width="55.47" height="55.47"/>
	</g>
	<g>
		
			<rect x="1662.26" y="359.26" transform="matrix(0.7071 -0.7071 0.7071 0.7071 221.3395 1308.3602)" class="st0" width="55.47" height="55.47"/>
	</g>
	<g>
		
			<rect x="1735.26" y="359.26" transform="matrix(0.7071 -0.7071 0.7071 0.7071 242.7207 1359.979)" class="st0" width="55.47" height="55.47"/>
	</g>
	<g>
		
			<rect x="1808.26" y="359.26" transform="matrix(0.7071 -0.7071 0.7071 0.7071 264.1019 1411.5978)" class="st0" width="55.47" height="55.47"/>
	</g>
	<g>
		
			<rect x="1881.26" y="359.26" transform="matrix(0.7071 -0.7071 0.7071 0.7071 285.4831 1463.2167)" class="st0" width="55.47" height="55.47"/>
	</g>
	<g>
		
			<rect x="-16.74" y="288.26" transform="matrix(0.7071 -0.7071 0.7071 0.7071 -220.2237 100.3325)" class="st0" width="55.47" height="55.47"/>
	</g>
	<g>
		
			<rect x="56.26" y="288.26" transform="matrix(0.7071 -0.7071 0.7071 0.7071 -198.8425 151.9513)" class="st0" width="55.47" height="55.47"/>
	</g>
	<g>
		
			<rect x="129.26" y="288.26" transform="matrix(0.7071 -0.7071 0.7071 0.7071 -177.4613 203.5701)" class="st0" width="55.47" height="55.47"/>
	</g>
	<g>
		
			<rect x="202.26" y="288.26" transform="matrix(0.7071 -0.7071 0.7071 0.7071 -156.0801 255.1889)" class="st0" width="55.47" height="55.47"/>
	</g>
	<g>
		
			<rect x="275.26" y="288.26" transform="matrix(0.7071 -0.7071 0.7071 0.7071 -134.6989 306.8077)" class="st0" width="55.47" height="55.47"/>
	</g>
	<g>
		
			<rect x="348.26" y="288.26" transform="matrix(0.7071 -0.7071 0.7071 0.7071 -113.3176 358.4265)" class="st0" width="55.47" height="55.47"/>
	</g>
	<g>
		
			<rect x="421.26" y="288.26" transform="matrix(0.7071 -0.7071 0.7071 0.7071 -91.9364 410.0453)" class="st0" width="55.47" height="55.47"/>
	</g>
	<g>
		
			<rect x="494.26" y="288.26" transform="matrix(0.7071 -0.7071 0.7071 0.7071 -70.5552 461.6641)" class="st0" width="55.47" height="55.47"/>
	</g>
	<g>
		
			<rect x="567.26" y="288.26" transform="matrix(0.7071 -0.7071 0.7071 0.7071 -49.174 513.2829)" class="st0" width="55.47" height="55.47"/>
	</g>
	<g>
		
			<rect x="640.26" y="288.26" transform="matrix(0.7071 -0.7071 0.7071 0.7071 -27.7928 564.9017)" class="st0" width="55.47" height="55.47"/>
	</g>
	<g>
		
			<rect x="713.26" y="288.26" transform="matrix(0.7071 -0.7071 0.7071 0.7071 -6.4116 616.5205)" class="st0" width="55.47" height="55.47"/>
	</g>
	<g>
		
			<rect x="786.26" y="288.26" transform="matrix(0.7071 -0.7071 0.7071 0.7071 14.9696 668.1393)" class="st0" width="55.47" height="55.47"/>
	</g>
	<g>
		
			<rect x="859.26" y="288.26" transform="matrix(0.7071 -0.7071 0.7071 0.7071 36.3508 719.7581)" class="st0" width="55.47" height="55.47"/>
	</g>
	<g>
		
			<rect x="932.26" y="288.26" transform="matrix(0.7071 -0.7071 0.7071 0.7071 57.732 771.3769)" class="st0" width="55.47" height="55.47"/>
	</g>
	<g>
		
			<rect x="1005.26" y="288.26" transform="matrix(0.7071 -0.7071 0.7071 0.7071 79.1132 822.9957)" class="st0" width="55.47" height="55.47"/>
	</g>
	<g>
		
			<rect x="1078.26" y="288.26" transform="matrix(0.7071 -0.7071 0.7071 0.7071 100.4944 874.6144)" class="st0" width="55.47" height="55.47"/>
	</g>
	<g>
		
			<rect x="1151.26" y="288.26" transform="matrix(0.7071 -0.7071 0.7071 0.7071 121.8756 926.2333)" class="st0" width="55.47" height="55.47"/>
	</g>
	<g>
		
			<rect x="1224.26" y="288.26" transform="matrix(0.7071 -0.7071 0.7071 0.7071 143.2568 977.8521)" class="st0" width="55.47" height="55.47"/>
	</g>
	<g>
		
			<rect x="1297.26" y="288.26" transform="matrix(0.7071 -0.7071 0.7071 0.7071 164.638 1029.4708)" class="st0" width="55.47" height="55.47"/>
	</g>
	<g>
		
			<rect x="1370.26" y="288.26" transform="matrix(0.7071 -0.7071 0.7071 0.7071 186.0192 1081.0896)" class="st0" width="55.47" height="55.47"/>
	</g>
	<g>
		
			<rect x="1443.26" y="288.26" transform="matrix(0.7071 -0.7071 0.7071 0.7071 207.4004 1132.7084)" class="st0" width="55.47" height="55.47"/>
	</g>
	<g>
		
			<rect x="1516.26" y="288.26" transform="matrix(0.7071 -0.7071 0.7071 0.7071 228.7816 1184.3273)" class="st0" width="55.47" height="55.47"/>
	</g>
	<g>
		
			<rect x="1589.26" y="288.26" transform="matrix(0.7071 -0.7071 0.7071 0.7071 250.1628 1235.946)" class="st0" width="55.47" height="55.47"/>
	</g>
	<g>
		
			<rect x="1662.26" y="288.26" transform="matrix(0.7071 -0.7071 0.7071 0.7071 271.544 1287.5648)" class="st0" width="55.47" height="55.47"/>
	</g>
	<g>
		
			<rect x="1735.26" y="288.26" transform="matrix(0.7071 -0.7071 0.7071 0.7071 292.9252 1339.1836)" class="st0" width="55.47" height="55.47"/>
	</g>
	<g>
		
			<rect x="1808.26" y="288.26" transform="matrix(0.7071 -0.7071 0.7071 0.7071 314.3065 1390.8024)" class="st0" width="55.47" height="55.47"/>
	</g>
	<g>
		
			<rect x="1881.26" y="288.26" transform="matrix(0.7071 -0.7071 0.7071 0.7071 335.6877 1442.4211)" class="st0" width="55.47" height="55.47"/>
	</g>
	<g>
		
			<rect x="-16.74" y="217.26" transform="matrix(0.7071 -0.7071 0.7071 0.7071 -170.0191 79.5371)" class="st0" width="55.47" height="55.47"/>
	</g>
	<g>
		
			<rect x="56.26" y="217.26" transform="matrix(0.7071 -0.7071 0.7071 0.7071 -148.6379 131.1559)" class="st0" width="55.47" height="55.47"/>
	</g>
	<g>
		
			<rect x="129.26" y="217.26" transform="matrix(0.7071 -0.7071 0.7071 0.7071 -127.2567 182.7747)" class="st0" width="55.47" height="55.47"/>
	</g>
	<g>
		
			<rect x="202.26" y="217.26" transform="matrix(0.7071 -0.7071 0.7071 0.7071 -105.8755 234.3935)" class="st0" width="55.47" height="55.47"/>
	</g>
	<g>
		
			<rect x="275.26" y="217.26" transform="matrix(0.7071 -0.7071 0.7071 0.7071 -84.4943 286.0123)" class="st0" width="55.47" height="55.47"/>
	</g>
	<g>
		
			<rect x="348.26" y="217.26" transform="matrix(0.7071 -0.7071 0.7071 0.7071 -63.1131 337.6311)" class="st0" width="55.47" height="55.47"/>
	</g>
	<g>
		
			<rect x="421.26" y="217.26" transform="matrix(0.7071 -0.7071 0.7071 0.7071 -41.7319 389.2499)" class="st0" width="55.47" height="55.47"/>
	</g>
	<g>
		
			<rect x="494.26" y="217.26" transform="matrix(0.7071 -0.7071 0.7071 0.7071 -20.3507 440.8687)" class="st0" width="55.47" height="55.47"/>
	</g>
	<g>
		
			<rect x="567.26" y="217.26" transform="matrix(0.7071 -0.7071 0.7071 0.7071 1.0305 492.4875)" class="st0" width="55.47" height="55.47"/>
	</g>
	<g>
		
			<rect x="640.26" y="217.26" transform="matrix(0.7071 -0.7071 0.7071 0.7071 22.4118 544.1063)" class="st0" width="55.47" height="55.47"/>
	</g>
	<g>
		
			<rect x="713.26" y="217.26" transform="matrix(0.7071 -0.7071 0.7071 0.7071 43.793 595.725)" class="st0" width="55.47" height="55.47"/>
	</g>
	<g>
		
			<rect x="786.26" y="217.26" transform="matrix(0.7071 -0.7071 0.7071 0.7071 65.1742 647.3439)" class="st0" width="55.47" height="55.47"/>
	</g>
	<g>
		
			<rect x="859.26" y="217.26" transform="matrix(0.7071 -0.7071 0.7071 0.7071 86.5554 698.9626)" class="st0" width="55.47" height="55.47"/>
	</g>
	<g>
		
			<rect x="932.26" y="217.26" transform="matrix(0.7071 -0.7071 0.7071 0.7071 107.9366 750.5814)" class="st0" width="55.47" height="55.47"/>
	</g>
	<g>
		
			<rect x="1005.26" y="217.26" transform="matrix(0.7071 -0.7071 0.7071 0.7071 129.3178 802.2003)" class="st0" width="55.47" height="55.47"/>
	</g>
	<g>
		
			<rect x="1078.26" y="217.26" transform="matrix(0.7071 -0.7071 0.7071 0.7071 150.699 853.819)" class="st0" width="55.47" height="55.47"/>
	</g>
	<g>
		
			<rect x="1151.26" y="217.26" transform="matrix(0.7071 -0.7071 0.7071 0.7071 172.0802 905.4378)" class="st0" width="55.47" height="55.47"/>
	</g>
	<g>
		
			<rect x="1224.26" y="217.26" transform="matrix(0.7071 -0.7071 0.7071 0.7071 193.4614 957.0566)" class="st0" width="55.47" height="55.47"/>
	</g>
	<g>
		
			<rect x="1297.26" y="217.26" transform="matrix(0.7071 -0.7071 0.7071 0.7071 214.8426 1008.6754)" class="st0" width="55.47" height="55.47"/>
	</g>
	<g>
		
			<rect x="1370.26" y="217.26" transform="matrix(0.7071 -0.7071 0.7071 0.7071 236.2238 1060.2942)" class="st0" width="55.47" height="55.47"/>
	</g>
	<g>
		
			<rect x="1443.26" y="217.26" transform="matrix(0.7071 -0.7071 0.7071 0.7071 257.605 1111.913)" class="st0" width="55.47" height="55.47"/>
	</g>
	<g>
		
			<rect x="1516.26" y="217.26" transform="matrix(0.7071 -0.7071 0.7071 0.7071 278.9862 1163.5319)" class="st0" width="55.47" height="55.47"/>
	</g>
	<g>
		
			<rect x="1589.26" y="217.26" transform="matrix(0.7071 -0.7071 0.7071 0.7071 300.3674 1215.1506)" class="st0" width="55.47" height="55.47"/>
	</g>
	<g>
		
			<rect x="1662.26" y="217.26" transform="matrix(0.7071 -0.7071 0.7071 0.7071 321.7486 1266.7694)" class="st0" width="55.47" height="55.47"/>
	</g>
	<g>
		
			<rect x="1735.26" y="217.26" transform="matrix(0.7071 -0.7071 0.7071 0.7071 343.1298 1318.3882)" class="st0" width="55.47" height="55.47"/>
	</g>
	<g>
		
			<rect x="1808.26" y="217.26" transform="matrix(0.7071 -0.7071 0.7071 0.7071 364.511 1370.007)" class="st0" width="55.47" height="55.47"/>
	</g>
	<g>
		
			<rect x="1881.26" y="217.26" transform="matrix(0.7071 -0.7071 0.7071 0.7071 385.8922 1421.6257)" class="st0" width="55.47" height="55.47"/>
	</g>
	<g>
		
			<rect x="-16.74" y="146.26" transform="matrix(0.7071 -0.7071 0.7071 0.7071 -119.8145 58.7417)" class="st0" width="55.47" height="55.47"/>
	</g>
	<g>
		
			<rect x="56.26" y="146.26" transform="matrix(0.7071 -0.7071 0.7071 0.7071 -98.4333 110.3605)" class="st0" width="55.47" height="55.47"/>
	</g>
	<g>
		
			<rect x="129.26" y="146.26" transform="matrix(0.7071 -0.7071 0.7071 0.7071 -77.0521 161.9793)" class="st0" width="55.47" height="55.47"/>
	</g>
	<g>
		
			<rect x="202.26" y="146.26" transform="matrix(0.7071 -0.7071 0.7071 0.7071 -55.6709 213.5981)" class="st0" width="55.47" height="55.47"/>
	</g>
	<g>
		
			<rect x="275.26" y="146.26" transform="matrix(0.7071 -0.7071 0.7071 0.7071 -34.2897 265.2169)" class="st0" width="55.47" height="55.47"/>
	</g>
	<g>
		
			<rect x="348.26" y="146.26" transform="matrix(0.7071 -0.7071 0.7071 0.7071 -12.9085 316.8357)" class="st0" width="55.47" height="55.47"/>
	</g>
	<g>
		
			<rect x="421.26" y="146.26" transform="matrix(0.7071 -0.7071 0.7071 0.7071 8.4727 368.4545)" class="st0" width="55.47" height="55.47"/>
	</g>
	<g>
		
			<rect x="494.26" y="146.26" transform="matrix(0.7071 -0.7071 0.7071 0.7071 29.8539 420.0733)" class="st0" width="55.47" height="55.47"/>
	</g>
	<g>
		
			<rect x="567.26" y="146.26" transform="matrix(0.7071 -0.7071 0.7071 0.7071 51.2351 471.692)" class="st0" width="55.47" height="55.47"/>
	</g>
	<g>
		
			<rect x="640.26" y="146.26" transform="matrix(0.7071 -0.7071 0.7071 0.7071 72.6163 523.3109)" class="st0" width="55.47" height="55.47"/>
	</g>
	<g>
		
			<rect x="713.26" y="146.26" transform="matrix(0.7071 -0.7071 0.7071 0.7071 93.9975 574.9296)" class="st0" width="55.47" height="55.47"/>
	</g>
	<g>
		
			<rect x="786.26" y="146.26" transform="matrix(0.7071 -0.7071 0.7071 0.7071 115.3787 626.5485)" class="st0" width="55.47" height="55.47"/>
	</g>
	<g>
		
			<rect x="859.26" y="146.26" transform="matrix(0.7071 -0.7071 0.7071 0.7071 136.7599 678.1672)" class="st0" width="55.47" height="55.47"/>
	</g>
	<g>
		
			<rect x="932.26" y="146.26" transform="matrix(0.7071 -0.7071 0.7071 0.7071 158.1412 729.786)" class="st0" width="55.47" height="55.47"/>
	</g>
	<g>
		
			<rect x="1005.26" y="146.26" transform="matrix(0.7071 -0.7071 0.7071 0.7071 179.5224 781.4048)" class="st0" width="55.47" height="55.47"/>
	</g>
	<g>
		
			<rect x="1078.26" y="146.26" transform="matrix(0.7071 -0.7071 0.7071 0.7071 200.9036 833.0236)" class="st0" width="55.47" height="55.47"/>
	</g>
	<g>
		
			<rect x="1151.26" y="146.26" transform="matrix(0.7071 -0.7071 0.7071 0.7071 222.2848 884.6424)" class="st0" width="55.47" height="55.47"/>
	</g>
	<g>
		
			<rect x="1224.26" y="146.26" transform="matrix(0.7071 -0.7071 0.7071 0.7071 243.666 936.2612)" class="st0" width="55.47" height="55.47"/>
	</g>
	<g>
		
			<rect x="1297.26" y="146.26" transform="matrix(0.7071 -0.7071 0.7071 0.7071 265.0472 987.88)" class="st0" width="55.47" height="55.47"/>
	</g>
	<g>
		
			<rect x="1370.26" y="146.26" transform="matrix(0.7071 -0.7071 0.7071 0.7071 286.4284 1039.4988)" class="st0" width="55.47" height="55.47"/>
	</g>
	<g>
		
			<rect x="1443.26" y="146.26" transform="matrix(0.7071 -0.7071 0.7071 0.7071 307.8096 1091.1176)" class="st0" width="55.47" height="55.47"/>
	</g>
	<g>
		
			<rect x="1516.26" y="146.26" transform="matrix(0.7071 -0.7071 0.7071 0.7071 329.1908 1142.7365)" class="st0" width="55.47" height="55.47"/>
	</g>
	<g>
		
			<rect x="1589.26" y="146.26" transform="matrix(0.7071 -0.7071 0.7071 0.7071 350.572 1194.3552)" class="st0" width="55.47" height="55.47"/>
	</g>
	<g>
		
			<rect x="1662.26" y="146.26" transform="matrix(0.7071 -0.7071 0.7071 0.7071 371.9532 1245.974)" class="st0" width="55.47" height="55.47"/>
	</g>
	<g>
		
			<rect x="1735.26" y="146.26" transform="matrix(0.7071 -0.7071 0.7071 0.7071 393.3344 1297.5928)" class="st0" width="55.47" height="55.47"/>
	</g>
	<g>
		
			<rect x="1808.26" y="146.26" transform="matrix(0.7071 -0.7071 0.7071 0.7071 414.7156 1349.2115)" class="st0" width="55.47" height="55.47"/>
	</g>
	<g>
		
			<rect x="1881.26" y="146.26" transform="matrix(0.7071 -0.7071 0.7071 0.7071 436.0968 1400.8303)" class="st0" width="55.47" height="55.47"/>
	</g>
	<g>
		
			<rect x="-16.74" y="75.26" transform="matrix(0.7071 -0.7071 0.7071 0.7071 -69.6099 37.9463)" class="st0" width="55.47" height="55.47"/>
	</g>
	<g>
		
			<rect x="56.26" y="75.26" transform="matrix(0.7071 -0.7071 0.7071 0.7071 -48.2287 89.5651)" class="st0" width="55.47" height="55.47"/>
	</g>
	<g>
		
			<rect x="129.26" y="75.26" transform="matrix(0.7071 -0.7071 0.7071 0.7071 -26.8475 141.1839)" class="st0" width="55.47" height="55.47"/>
	</g>
	<g>
		
			<rect x="202.26" y="75.26" transform="matrix(0.7071 -0.7071 0.7071 0.7071 -5.4663 192.8027)" class="st0" width="55.47" height="55.47"/>
	</g>
	<g>
		
			<rect x="275.26" y="75.26" transform="matrix(0.7071 -0.7071 0.7071 0.7071 15.9149 244.4215)" class="st0" width="55.47" height="55.47"/>
	</g>
	<g>
		
			<rect x="348.26" y="75.26" transform="matrix(0.7071 -0.7071 0.7071 0.7071 37.2961 296.0403)" class="st0" width="55.47" height="55.47"/>
	</g>
	<g>
		
			<rect x="421.26" y="75.26" transform="matrix(0.7071 -0.7071 0.7071 0.7071 58.6773 347.6591)" class="st0" width="55.47" height="55.47"/>
	</g>
	<g>
		
			<rect x="494.26" y="75.26" transform="matrix(0.7071 -0.7071 0.7071 0.7071 80.0585 399.2778)" class="st0" width="55.47" height="55.47"/>
	</g>
	<g>
		
			<rect x="567.26" y="75.26" transform="matrix(0.7071 -0.7071 0.7071 0.7071 101.4397 450.8966)" class="st0" width="55.47" height="55.47"/>
	</g>
	<g>
		
			<rect x="640.26" y="75.26" transform="matrix(0.7071 -0.7071 0.7071 0.7071 122.8209 502.5154)" class="st0" width="55.47" height="55.47"/>
	</g>
	<g>
		
			<rect x="713.26" y="75.26" transform="matrix(0.7071 -0.7071 0.7071 0.7071 144.2021 554.1342)" class="st0" width="55.47" height="55.47"/>
	</g>
	<g>
		
			<rect x="786.26" y="75.26" transform="matrix(0.7071 -0.7071 0.7071 0.7071 165.5833 605.7531)" class="st0" width="55.47" height="55.47"/>
	</g>
	<g>
		
			<rect x="859.26" y="75.26" transform="matrix(0.7071 -0.7071 0.7071 0.7071 186.9645 657.3718)" class="st0" width="55.47" height="55.47"/>
	</g>
	<g>
		
			<rect x="932.26" y="75.26" transform="matrix(0.7071 -0.7071 0.7071 0.7071 208.3457 708.9906)" class="st0" width="55.47" height="55.47"/>
	</g>
	<g>
		
			<rect x="1005.26" y="75.26" transform="matrix(0.7071 -0.7071 0.7071 0.7071 229.7269 760.6094)" class="st0" width="55.47" height="55.47"/>
	</g>
	<g>
		
			<rect x="1078.26" y="75.26" transform="matrix(0.7071 -0.7071 0.7071 0.7071 251.1081 812.2282)" class="st0" width="55.47" height="55.47"/>
	</g>
	<g>
		
			<rect x="1151.26" y="75.26" transform="matrix(0.7071 -0.7071 0.7071 0.7071 272.4893 863.847)" class="st0" width="55.47" height="55.47"/>
	</g>
	<g>
		
			<rect x="1224.26" y="75.26" transform="matrix(0.7071 -0.7071 0.7071 0.7071 293.8705 915.4658)" class="st0" width="55.47" height="55.47"/>
	</g>
	<g>
		
			<rect x="1297.26" y="75.26" transform="matrix(0.7071 -0.7071 0.7071 0.7071 315.2518 967.0846)" class="st0" width="55.47" height="55.47"/>
	</g>
	<g>
		
			<rect x="1370.26" y="75.26" transform="matrix(0.7071 -0.7071 0.7071 0.7071 336.633 1018.7034)" class="st0" width="55.47" height="55.47"/>
	</g>
	<g>
		
			<rect x="1443.26" y="75.26" transform="matrix(0.7071 -0.7071 0.7071 0.7071 358.0142 1070.3221)" class="st0" width="55.47" height="55.47"/>
	</g>
	<g>
		
			<rect x="1516.26" y="75.26" transform="matrix(0.7071 -0.7071 0.7071 0.7071 379.3954 1121.9409)" class="st0" width="55.47" height="55.47"/>
	</g>
	<g>
		
			<rect x="1589.26" y="75.26" transform="matrix(0.7071 -0.7071 0.7071 0.7071 400.7766 1173.5598)" class="st0" width="55.47" height="55.47"/>
	</g>
	<g>
		
			<rect x="1662.26" y="75.26" transform="matrix(0.7071 -0.7071 0.7071 0.7071 422.1578 1225.1786)" class="st0" width="55.47" height="55.47"/>
	</g>
	<g>
		
			<rect x="1735.26" y="75.26" transform="matrix(0.7071 -0.7071 0.7071 0.7071 443.539 1276.7974)" class="st0" width="55.47" height="55.47"/>
	</g>
	<g>
		
			<rect x="1808.26" y="75.26" transform="matrix(0.7071 -0.7071 0.7071 0.7071 464.9202 1328.4161)" class="st0" width="55.47" height="55.47"/>
	</g>
	<g>
		
			<rect x="1881.26" y="75.26" transform="matrix(0.7071 -0.7071 0.7071 0.7071 486.3014 1380.0349)" class="st0" width="55.47" height="55.47"/>
	</g>
	<g>
		
			<rect x="-16.74" y="4.26" transform="matrix(0.7071 -0.7071 0.7071 0.7071 -19.4053 17.1509)" class="st0" width="55.47" height="55.47"/>
	</g>
	<g>
		
			<rect x="56.26" y="4.26" transform="matrix(0.7071 -0.7071 0.7071 0.7071 1.9759 68.7697)" class="st0" width="55.47" height="55.47"/>
	</g>
	<g>
		
			<rect x="129.26" y="4.26" transform="matrix(0.7071 -0.7071 0.7071 0.7071 23.3571 120.3885)" class="st0" width="55.47" height="55.47"/>
	</g>
	<g>
		
			<rect x="202.26" y="4.26" transform="matrix(0.7071 -0.7071 0.7071 0.7071 44.7383 172.0072)" class="st0" width="55.47" height="55.47"/>
	</g>
	<g>
		
			<rect x="275.26" y="4.26" transform="matrix(0.7071 -0.7071 0.7071 0.7071 66.1195 223.626)" class="st0" width="55.47" height="55.47"/>
	</g>
	<g>
		
			<rect x="348.26" y="4.26" transform="matrix(0.7071 -0.7071 0.7071 0.7071 87.5007 275.2448)" class="st0" width="55.47" height="55.47"/>
	</g>
	<g>
		
			<rect x="421.26" y="4.26" transform="matrix(0.7071 -0.7071 0.7071 0.7071 108.8819 326.8636)" class="st0" width="55.47" height="55.47"/>
	</g>
	<g>
		
			<rect x="494.26" y="4.26" transform="matrix(0.7071 -0.7071 0.7071 0.7071 130.2631 378.4824)" class="st0" width="55.47" height="55.47"/>
	</g>
	<g>
		
			<rect x="567.26" y="4.26" transform="matrix(0.7071 -0.7071 0.7071 0.7071 151.6443 430.1012)" class="st0" width="55.47" height="55.47"/>
	</g>
	<g>
		
			<rect x="640.26" y="4.26" transform="matrix(0.7071 -0.7071 0.7071 0.7071 173.0255 481.72)" class="st0" width="55.47" height="55.47"/>
	</g>
	<g>
		
			<rect x="713.26" y="4.26" transform="matrix(0.7071 -0.7071 0.7071 0.7071 194.4067 533.3388)" class="st0" width="55.47" height="55.47"/>
	</g>
	<g>
		
			<rect x="786.26" y="4.26" transform="matrix(0.7071 -0.7071 0.7071 0.7071 215.7879 584.9576)" class="st0" width="55.47" height="55.47"/>
	</g>
	<g>
		
			<rect x="859.26" y="4.26" transform="matrix(0.7071 -0.7071 0.7071 0.7071 237.1691 636.5764)" class="st0" width="55.47" height="55.47"/>
	</g>
	<g>
		
			<rect x="932.26" y="4.26" transform="matrix(0.7071 -0.7071 0.7071 0.7071 258.5503 688.1952)" class="st0" width="55.47" height="55.47"/>
	</g>
	<g>
		
			<rect x="1005.26" y="4.26" transform="matrix(0.7071 -0.7071 0.7071 0.7071 279.9315 739.814)" class="st0" width="55.47" height="55.47"/>
	</g>
	<g>
		
			<rect x="1078.26" y="4.26" transform="matrix(0.7071 -0.7071 0.7071 0.7071 301.3127 791.4328)" class="st0" width="55.47" height="55.47"/>
	</g>
	<g>
		
			<rect x="1151.26" y="4.26" transform="matrix(0.7071 -0.7071 0.7071 0.7071 322.6939 843.0516)" class="st0" width="55.47" height="55.47"/>
	</g>
	<g>
		
			<rect x="1224.26" y="4.26" transform="matrix(0.7071 -0.7071 0.7071 0.7071 344.0751 894.6703)" class="st0" width="55.47" height="55.47"/>
	</g>
	<g>
		
			<rect x="1297.26" y="4.26" transform="matrix(0.7071 -0.7071 0.7071 0.7071 365.4563 946.2892)" class="st0" width="55.47" height="55.47"/>
	</g>
	<g>
		
			<rect x="1370.26" y="4.26" transform="matrix(0.7071 -0.7071 0.7071 0.7071 386.8376 997.908)" class="st0" width="55.47" height="55.47"/>
	</g>
	<g>
		
			<rect x="1443.26" y="4.26" transform="matrix(0.7071 -0.7071 0.7071 0.7071 408.2188 1049.5267)" class="st0" width="55.47" height="55.47"/>
	</g>
	<g>
		
			<rect x="1516.26" y="4.26" transform="matrix(0.7071 -0.7071 0.7071 0.7071 429.5999 1101.1455)" class="st0" width="55.47" height="55.47"/>
	</g>
	<g>
		
			<rect x="1589.26" y="4.26" transform="matrix(0.7071 -0.7071 0.7071 0.7071 450.9812 1152.7644)" class="st0" width="55.47" height="55.47"/>
	</g>
	<g>
		
			<rect x="1662.26" y="4.26" transform="matrix(0.7071 -0.7071 0.7071 0.7071 472.3624 1204.3832)" class="st0" width="55.47" height="55.47"/>
	</g>
	<g>
		
			<rect x="1735.26" y="4.26" transform="matrix(0.7071 -0.7071 0.7071 0.7071 493.7436 1256.002)" class="st0" width="55.47" height="55.47"/>
	</g>
	<g>
		
			<rect x="1808.26" y="4.26" transform="matrix(0.7071 -0.7071 0.7071 0.7071 515.1248 1307.6207)" class="st0" width="55.47" height="55.47"/>
	</g>
	<g>
		
			<rect x="1881.26" y="4.26" transform="matrix(0.7071 -0.7071 0.7071 0.7071 536.506 1359.2395)" class="st0" width="55.47" height="55.47"/>
	</g>
</g>
</svg>
