<?xml version="1.0" encoding="utf-8"?>
<!-- Generator: Adobe Illustrator 23.0.1, SVG Export Plug-In . SVG Version: 6.00 Build 0)  -->
<svg version="1.1" id="Logo_Pink" xmlns="http://www.w3.org/2000/svg" xmlns:xlink="http://www.w3.org/1999/xlink" x="0px" y="0px"
	 viewBox="0 0 2500 1100" style="enable-background:new 0 0 2500 1100;" xml:space="preserve">
<style type="text/css">
	.st0{fill:#470932;}
	.st1{fill:#FFFFFF;}
	.st2{fill:#E83E9F;}
	.st3{fill:url(#SVGID_1_);}
	.st4{fill:url(#SVGID_2_);}
	.st5{fill:url(#SVGID_3_);}
	.st6{fill:url(#SVGID_4_);}
	.st7{fill:url(#SVGID_5_);}
	.st8{fill:url(#SVGID_6_);}
	.st9{fill:url(#SVGID_7_);}
	.st10{fill:url(#SVGID_8_);}
	.st11{fill:url(#SVGID_9_);}
	.st12{fill:url(#SVGID_10_);}
	.st13{fill:url(#SVGID_11_);}
	.st14{fill:url(#SVGID_12_);}
	.st15{fill:url(#SVGID_13_);}
	.st16{fill:url(#SVGID_14_);}
	.st17{fill:url(#SVGID_15_);}
	.st18{fill:url(#SVGID_16_);}
	.st19{fill:url(#SVGID_17_);}
	.st20{fill:url(#SVGID_18_);}
	.st21{fill:url(#SVGID_19_);}
	.st22{fill:url(#SVGID_20_);}
	.st23{fill:url(#SVGID_21_);}
	.st24{fill:url(#SVGID_22_);}
	.st25{fill:url(#SVGID_23_);}
	.st26{fill:url(#SVGID_24_);}
	.st27{fill:url(#SVGID_25_);}
	.st28{fill:url(#SVGID_26_);}
	.st29{fill:url(#SVGID_27_);}
	.st30{fill:url(#SVGID_28_);}
	.st31{fill:url(#SVGID_29_);}
	.st32{fill:url(#SVGID_30_);}
	.st33{fill:url(#SVGID_31_);}
	.st34{fill:url(#SVGID_32_);}
	.st35{fill:url(#SVGID_33_);}
	.st36{fill:url(#SVGID_34_);}
	.st37{fill:url(#SVGID_35_);}
	.st38{fill:url(#SVGID_36_);}
	.st39{fill:url(#SVGID_37_);}
	.st40{fill:url(#SVGID_38_);}
	.st41{fill:url(#SVGID_39_);}
	.st42{fill:url(#SVGID_40_);}
	.st43{fill:url(#SVGID_41_);}
	.st44{fill:url(#SVGID_42_);}
	.st45{fill:url(#SVGID_43_);}
	.st46{fill:url(#SVGID_44_);}
	.st47{fill:url(#SVGID_45_);}
	.st48{fill:url(#SVGID_46_);}
</style>
<g>
	<path class="st0" d="M2350,541.45c0-39.8-13.9-76.38-40.18-105.78l-0.22-0.24c-29.01-32.28-70.1-50.06-115.68-50.06h-804.85
		c3.88-11.1,5.92-22.85,5.92-34.88c0-3.67-0.2-7.35-0.56-11.02c0.33-3.41,0.56-6.84,0.56-10.31c0-27.3-10.07-55.04-27.63-76.12
		c-14.98-17.98-42.26-39.42-87.14-39.42H462.74c-7.74-16.66-19.24-31.93-33.35-44.24c-24.12-21.05-55.02-32.64-87-32.64h-59.94
		c-73.03,0-132.45,59.41-132.45,132.45v21.33v344.98v21.33c0,1.02,0.01,2.04,0.04,3.24l0,0.14c0.23,8.96,1.56,17.88,3.96,26.51
		c0.34,9.14,1.83,18.23,4.44,27.02c0.34,1.16,1.36,6.02,1.91,13.68c-0.47,6.5-1.27,10.8-1.73,12.82
		c-5.64,13.4-8.63,28.13-8.63,42.61c0,3.89,0.19,7.73,0.47,11.54c-0.3,3.26-0.47,6.53-0.47,9.78c0,86.49,70.36,156.85,156.85,156.85
		h180.23c43.43,0,83.24-8.17,118.34-24.3c19.82-9.11,38.26-20.23,54.83-33.07c19.14,14.93,40.45,27.47,63.38,37.29
		c34.54,14.81,71.51,22.31,109.87,22.31c38.35,0,75.31-7.51,109.87-22.32c8.33-3.57,16.57-7.56,24.53-11.88
		c27.14,21.2,60.38,31.95,98.86,31.95c1.74,0,176.37-0.56,192.75-0.56c38.59,0,74.4-13.2,103.56-38.17
		c9.1-7.81,17.2-16.7,24.11-26.49c5.12,7.69,10.94,14.83,17.33,21.29c19.87,20.04,55.48,43.93,112.28,43.93h362.67
		c52.46,0,97.06-13.13,132.64-39.03l0.36,0.31c29.12,24.97,64.92,38.16,103.55,38.16c38.97,0,74.96-13.2,104.11-38.16
		c33.52-28.74,51.98-70.42,51.98-117.36V783.6v-84.73c14.11-7.94,26.74-18.07,37.56-30.12c26.4-29.42,40.36-66.06,40.36-105.97
		c0-3.58-0.15-7.13-0.38-10.66C2349.85,548.59,2350,545.04,2350,541.45z"/>
</g>
<g>
	<path class="st1" d="M2293.19,450.53l-0.18-0.2c-24.73-27.51-59.92-42.67-99.1-42.67H1348.4c0.04-1.07,0.06-19.79,0.06-19.79
		c1.04-1.04,2.05-2.11,3.04-3.2c13.66-15.23,21.19-34.94,21.19-55.52c0-40.6-29.09-93.24-92.47-93.24h-832.7
		c-6.04-19.26-17.34-36.26-32.78-49.73c-20.06-17.5-45.75-27.14-72.34-27.14h-59.94c-60.74,0-110.15,49.41-110.15,110.15v366.31
		c0,0.84,0.01,1.67,0.04,2.65l0,0.11c0.2,8.06,1.51,16,3.89,23.67c0.06,8.17,1.26,16.28,3.59,24.14c1.19,4.02,3.21,15,3.21,30.65
		c0,18.45-2.7,28.87-3.24,30.73c-4.91,11.08-7.5,23.29-7.5,35.39c0,74.19,60.36,134.55,134.55,134.55h180.23
		c40.19,0,76.87-7.49,109.02-22.26c24.07-11.06,45.58-25.1,64.17-41.87c21.02,18.93,45.23,34.33,72.14,45.86
		c31.75,13.61,65.76,20.51,101.08,20.51c35.31,0,69.32-6.9,101.08-20.51c12.54-5.38,24.59-11.64,36.01-18.71
		c16.96,16.96,47.31,36.98,96.09,36.98c0,0,176.13-0.56,192.82-0.56c33.2,0,63.99-11.34,89.04-32.79
		c19.27-16.53,32.68-38.18,39.35-62.95c6.8,27.82,20.45,46.86,32.45,58.97c16.89,17.03,47.33,37.33,96.45,37.33h362.67
		c55.34,0,100.4-15.71,134.12-46.73c4.1,4.78,8.57,9.26,13.39,13.38c25.02,21.45,55.8,32.79,89.03,32.79
		c33.57,0,64.55-11.34,89.59-32.79c28.5-24.44,44.19-60.11,44.19-100.44V663.79c16.52-7.29,31.29-17.93,43.26-31.27
		c22.67-25.26,34.65-56.75,34.65-91.08C2327.7,507.21,2315.77,475.78,2293.19,450.53z M211.11,637.13L211.11,637.13L211.11,637.13z"
		/>
	<polyline class="st1" points="211.11,637.13 211.11,637.13 211.11,637.13 	"/>
</g>
<g>
	<path class="st0" d="M2259.83,541.45c0-17.56-5.81-32.95-17.3-45.75c-11.85-13.19-28.67-20.16-48.62-20.16h-156.39
		c-19.97,0-36.78,6.98-48.62,20.17c-4.91,5.47-8.78,11.42-11.6,17.81c-2.78-8.21-7.02-15.23-12.72-21
		c-11.13-11.27-26.94-16.98-47.01-16.98h-73.99c-40.35,0-71.6,10.95-92.86,32.56c-4.9,4.98-9.23,10.5-13.01,16.55
		c-2.57-10.71-7.7-20.4-15.35-28.94c-11.85-13.19-28.66-20.16-48.62-20.16h-156.95c-22.76,0-40.19,7.23-51.3,20.65l-0.41-0.48
		c-11.85-13.19-28.67-20.16-48.62-20.16H1259.5c-41.53,0-65.36,24.03-65.36,65.92v13.57v170.55c-8.02-4.56-18.53-7.89-32.18-7.89
		h-29.94V555.02v-13.57c0-25.9-11.15-40.89-20.51-48.92c-12.73-10.9-27.82-16.44-44.85-16.44c-17.04,0-32.13,5.53-44.85,16.44
		c-9.36,8.02-20.51,23.01-20.51,48.92v13.57v15.36c-8.86-16.35-19.83-31.11-32.76-44.05c-17.2-17.19-37.63-30.92-60.73-40.82
		c-23.26-9.96-48.27-15.02-74.34-15.02c-26.08,0-51.09,5.05-74.34,15.02c-23.14,9.92-43.5,23.68-60.53,40.91
		c-16.96,17.16-30.57,37.57-40.47,60.65c-0.13,0.3-0.25,0.62-0.38,0.92c-7.99-19.3-19.13-37.01-33.21-52.75
		c-16.15-18.02-36.53-32.63-60.61-43.43c-24.09-10.79-52.41-16.27-84.16-16.27h-44.84c-8.33,0-16.77,1.9-25.08,5.64
		c-7.65,3.45-14.66,8.08-20.84,13.77c-1.53,1.4-2.98,2.87-4.37,4.39V282.76v-13.57c0-23.31-18.97-42.28-42.28-42.28h-59.94
		c-23.31,0-42.28,18.97-42.28,42.28v13.57v295.13v13.57c0,2.03,0.33,3.98,0.91,5.82c-0.58,1.84-0.91,3.79-0.91,5.82v13.57v18.82
		v13.57c0,0.27,0,0.53,0.01,0.84l0,0.04c0.07,4.28,1.53,8.21,3.94,11.38c0,1.83,0.24,3.66,0.77,5.46c0.13,0.45,0.25,0.96,0.38,1.42
		c-1.41,3.86-1.58,8.12-0.38,12.15c3.35,11.3,5.44,26.7,5.91,43.04c-0.68,25.08-5.04,43.11-8.84,51.29c-1.19,2.56-1.8,5.34-1.8,8.16
		c0,3,0.22,5.96,0.6,8.86c-0.39,1.54-0.6,3.12-0.6,4.72c0,36.77,29.91,66.68,66.68,66.68h11.13c24.32,0,45.64-13.1,57.29-32.6
		c2.94,5.36,6.68,10.24,11.23,14.6c12.47,11.94,28.77,18,48.45,18h52.13c30.34,0,57.49-5.4,80.69-16.06
		c23.02-10.58,42.65-24.65,58.34-41.81c14.29-15.62,25.42-33.57,33.16-53.39c9.81,22.08,23.06,41.57,39.43,57.93
		c16.99,17,37.33,30.64,60.45,40.55c23.25,9.97,48.27,15.02,74.34,15.02c26.07,0,51.08-5.05,74.35-15.02
		c23.08-9.89,43.48-23.51,60.64-40.47c12.97-12.81,23.97-27.51,32.84-43.86v17.62v13.57c0,41.89,23.82,65.92,65.35,65.92h95.29
		c25.21,0,39.76-11.34,47.53-20.86l0.49-0.63c1.56,1.69,3.13,3.18,4.65,4.49c12.72,10.91,27.81,16.44,44.85,16.44
		c17.03,0,32.11-5.53,44.85-16.44c9.35-8.02,20.5-23.01,20.5-48.91V783.6v-41.59h69.17c19.96,0,36.78-6.98,48.62-20.17
		c3.44-3.83,6.36-7.9,8.78-12.19v73.95v13.57c0,41.89,23.82,65.92,65.36,65.92h156.95c19.96,0,36.78-6.97,48.62-20.17
		c3.15-3.51,5.85-7.22,8.15-11.11c2.59,5.39,5.92,10.17,10,14.3c11.12,11.26,26.94,16.97,47.01,16.97h91.93
		c40.02,0,71-10.98,92.09-32.63c20.94-21.51,31.57-53.08,31.57-93.83c0-2.29-0.04-4.55-0.11-6.78c0.07-2.24,0.11-4.49,0.11-6.79
		c0-38.88-10.15-69.03-30.15-89.61c-7.28-7.49-15.83-13.61-25.53-18.42c14.08-6.32,24.1-17.58,29.42-33.12
		c2.86,6.79,6.87,13.09,12.05,18.85c11.84,13.2,28.65,20.18,48.63,20.18h13.12V783.6v13.57c0,25.91,11.15,40.9,20.5,48.91
		c12.72,10.91,27.81,16.44,44.85,16.44c17.4,0,32.67-5.53,45.41-16.44c9.35-8.02,20.5-23.01,20.5-48.91V783.6V620.94h12
		c19.96,0,36.78-6.98,48.63-20.17c11.47-12.78,17.29-28.18,17.29-45.75c0-2.3-0.11-4.56-0.3-6.79
		C2259.73,546.01,2259.83,543.75,2259.83,541.45z M1748.96,705.17c5.61,5.77,11.97,10.71,19.01,14.89
		c-17.1,4.33-29.69,14.52-36.95,29.8c-2.4-4.22-5.28-8.23-8.67-12.01c-6.29-7-14-12.2-22.82-15.59l0.4-0.42
		c11.47-12.78,17.29-28.17,17.29-45.74c0-2.3-0.11-4.56-0.3-6.79c0.2-2.23,0.3-4.49,0.3-6.79c0-17.56-5.82-32.95-17.3-45.75
		l-0.38-0.39c7.24-2.78,13.72-6.81,19.29-12.04c0.02,1.5,0.03,2.99,0.07,4.46c-0.07,2.23-0.11,4.48-0.11,6.76
		C1718.81,654.45,1728.95,684.6,1748.96,705.17z M539.11,682.23c-2.35,6.77-5.76,12.6-10.42,17.81
		c-4.72,5.27-10.39,9.49-17.34,12.89c-3.74,1.83-8,3.14-12.72,3.91v-94.02c5.23,0.74,9.96,2.01,14.12,3.81
		c7.05,3.05,12.81,6.91,17.12,11.47c4.3,4.57,7.42,9.73,9.53,15.77c1.55,4.45,2.51,8.88,3.01,13.38
		C541.87,672.35,540.8,677.37,539.11,682.23z"/>
</g>
<g>
	<path class="st2" d="M465.28,404.43c0,4.65-1.42,8.19-4.27,10.63c-2.85,2.44-6.25,3.66-10.19,3.66c-3.83,0-7.17-1.22-10.02-3.66
		c-2.85-2.44-4.27-5.98-4.27-10.63v-75.28c0-4.64,1.42-8.19,4.27-10.63c2.84-2.44,6.19-3.66,10.02-3.66h0.7
		c5.11,0,8.77,2.15,10.98,6.45l26.14,39.55v-31.71c0-4.64,1.42-8.19,4.27-10.63c2.85-2.44,6.19-3.66,10.02-3.66
		c3.95,0,7.35,1.22,10.19,3.66c2.85,2.44,4.27,5.98,4.27,10.63v75.28c0,4.65-1.42,8.19-4.27,10.63c-2.85,2.44-6.25,3.66-10.19,3.66
		c-1.98,0-3.66-0.23-5.05-0.7c-1.39-0.46-2.59-1.04-3.57-1.74c-0.99-0.7-1.77-1.39-2.35-2.09c-0.58-0.7-1.05-1.28-1.39-1.74
		l-25.27-37.64V404.43z"/>
	<path class="st2" d="M527.66,366.44c0-7.32,1.39-14.23,4.18-20.74c2.79-6.5,6.56-12.17,11.33-16.99c4.76-4.82,10.4-8.62,16.9-11.41
		c6.5-2.79,13.42-4.18,20.74-4.18c7.32,0,14.23,1.39,20.74,4.18c6.5,2.79,12.17,6.59,16.99,11.41c4.82,4.82,8.63,10.49,11.41,16.99
		c2.79,6.51,4.18,13.42,4.18,20.74c0,7.32-1.39,14.23-4.18,20.74c-2.79,6.51-6.59,12.14-11.41,16.9
		c-4.82,4.77-10.48,8.54-16.99,11.33c-6.51,2.79-13.42,4.18-20.74,4.18c-7.32,0-14.23-1.39-20.74-4.18
		c-6.51-2.79-12.14-6.56-16.9-11.33c-4.76-4.76-8.54-10.39-11.33-16.9C529.06,380.68,527.66,373.76,527.66,366.44z M556.94,366.79
		c0,3.37,0.61,6.51,1.83,9.41c1.22,2.91,2.93,5.46,5.14,7.67c2.21,2.21,4.76,3.92,7.67,5.14c2.9,1.22,6.04,1.83,9.41,1.83
		c3.37,0,6.53-0.61,9.5-1.83c2.96-1.22,5.52-2.93,7.67-5.14c2.15-2.21,3.86-4.76,5.14-7.67c1.28-2.9,1.92-6.04,1.92-9.41
		c0-3.37-0.64-6.53-1.92-9.5c-1.28-2.96-2.99-5.52-5.14-7.67c-2.15-2.15-4.7-3.86-7.67-5.14c-2.96-1.28-6.13-1.92-9.5-1.92
		c-3.37,0-6.51,0.64-9.41,1.92c-2.91,1.28-5.46,2.99-7.67,5.14c-2.21,2.15-3.92,4.7-5.14,7.67
		C557.55,360.26,556.94,363.42,556.94,366.79z"/>
	<path class="st2" d="M680.13,382.13c-2.9-3.95-4.36-8.13-4.36-12.55c0-2.79,0.52-4.91,1.57-6.36c1.04-1.45,2.38-2.55,4.01-3.31
		c1.62-0.75,3.37-1.28,5.23-1.57c1.86-0.29,3.6-0.7,5.23-1.22c1.62-0.52,3.02-1.31,4.18-2.35c1.16-1.05,1.8-2.67,1.92-4.88
		c0-5.23-3.02-7.84-9.06-7.84h-15.51v62.03c0,9.88-4.82,14.81-14.46,14.81c-4.88,0-8.51-1.25-10.89-3.75
		c-2.38-2.5-3.57-6.07-3.57-10.72v-75.28c0-9.64,4.64-14.46,13.94-14.46h31.02c6.04,0,11.3,0.9,15.77,2.7
		c4.47,1.8,8.16,4.18,11.07,7.14c2.9,2.96,5.05,6.33,6.45,10.11c1.4,3.78,2.09,7.64,2.09,11.59c0,5.93-1.48,11.5-4.44,16.73
		c-2.96,5.23-7.35,9.18-13.16,11.85l12.37,19.69c1.86,3.02,2.79,6.1,2.79,9.24c0,2.09-0.41,4.07-1.22,5.92
		c-0.81,1.86-1.89,3.49-3.22,4.88c-1.34,1.39-2.88,2.47-4.62,3.22c-1.74,0.76-3.54,1.13-5.4,1.13c-2.09,0-4.16-0.61-6.19-1.83
		c-2.03-1.22-3.81-3.16-5.31-5.84L680.13,382.13z"/>
	<path class="st2" d="M785.73,404.43c0,4.65-1.42,8.19-4.27,10.63c-2.85,2.44-6.25,3.66-10.19,3.66c-3.83,0-7.17-1.22-10.02-3.66
		c-2.85-2.44-4.27-5.98-4.27-10.63v-60.81h-10.11c-4.53,0-8.08-1.42-10.63-4.27c-2.56-2.85-3.83-6.24-3.83-10.19
		c0-3.95,1.28-7.35,3.83-10.19c2.55-2.85,6.1-4.27,10.63-4.27h48.62c4.53,0,8.07,1.42,10.63,4.27c2.55,2.85,3.83,6.25,3.83,10.19
		c0,3.95-1.28,7.35-3.83,10.19c-2.56,2.85-6.1,4.27-10.63,4.27h-9.76V404.43z"/>
	<path class="st2" d="M899.69,404.43c0,4.65-1.42,8.19-4.27,10.63c-2.85,2.44-6.25,3.66-10.19,3.66c-3.83,0-7.17-1.22-10.02-3.66
		c-2.85-2.44-4.27-5.98-4.27-10.63v-23.18h-23.35v23.18c0,4.65-1.42,8.19-4.27,10.63c-2.85,2.44-6.25,3.66-10.19,3.66
		c-3.83,0-7.17-1.22-10.02-3.66c-2.85-2.44-4.27-5.98-4.27-10.63v-75.28c0-4.64,1.42-8.19,4.27-10.63
		c2.84-2.44,6.19-3.66,10.02-3.66c3.95,0,7.35,1.22,10.19,3.66c2.85,2.44,4.27,5.98,4.27,10.63v23.17h23.35v-23.17
		c0-4.64,1.42-8.19,4.27-10.63c2.85-2.44,6.19-3.66,10.02-3.66c3.95,0,7.35,1.22,10.19,3.66c2.85,2.44,4.27,5.98,4.27,10.63V404.43z
		"/>
	<path class="st2" d="M1018.87,323.93c0.93-3.49,2.5-6.01,4.7-7.58c2.21-1.57,4.64-2.35,7.32-2.35c1.74,0,3.48,0.32,5.23,0.96
		c1.74,0.64,3.31,1.57,4.7,2.79c1.39,1.22,2.53,2.7,3.4,4.44c0.87,1.74,1.31,3.66,1.31,5.75c0,1.51-0.29,3.25-0.87,5.23
		l-24.57,76.15c-1.05,3.37-2.87,5.87-5.49,7.49c-2.61,1.63-5.37,2.44-8.28,2.44c-3.02,0-5.84-0.84-8.45-2.53
		c-2.61-1.68-4.5-4.15-5.66-7.41l-13.24-38.34l-12.37,38.34c-1.04,3.37-2.87,5.87-5.49,7.49c-2.61,1.63-5.37,2.44-8.28,2.44
		c-3.02,0-5.84-0.84-8.45-2.53c-2.61-1.68-4.5-4.15-5.66-7.41l-26.31-76.5c-0.58-1.97-0.87-3.66-0.87-5.05
		c0-2.09,0.44-3.98,1.31-5.66c0.87-1.68,2-3.14,3.4-4.36c1.39-1.22,2.96-2.15,4.71-2.79c1.74-0.64,3.54-0.96,5.4-0.96
		c2.67,0,5.14,0.78,7.41,2.35c2.27,1.57,3.86,4.1,4.79,7.58l14.11,50.88l12.72-50.88c0.93-3.37,2.64-5.93,5.14-7.67
		c2.5-1.74,5.2-2.61,8.1-2.61c2.9,0,5.63,0.87,8.19,2.61c2.55,1.74,4.3,4.3,5.23,7.67l14.11,50.88L1018.87,323.93z"/>
	<path class="st2" d="M1069.4,418.89c-9.53,0-14.29-4.82-14.29-14.46v-75.28c0-9.64,4.76-14.46,14.29-14.46h48.79
		c4.53,0,8.07,1.42,10.63,4.27c2.55,2.85,3.83,6.25,3.83,10.19c0,3.95-1.28,7.35-3.83,10.19c-2.56,2.85-6.1,4.27-10.63,4.27h-34.5
		v8.71h27.53c4.53,0,8.07,1.42,10.63,4.27c2.55,2.85,3.83,6.25,3.83,10.19c0,3.95-1.28,7.35-3.83,10.19
		c-2.56,2.85-6.1,4.27-10.63,4.27h-27.53v8.71h34.5c4.53,0,8.07,1.42,10.63,4.27c2.55,2.85,3.83,6.25,3.83,10.19
		c0,3.95-1.28,7.35-3.83,10.19c-2.56,2.85-6.1,4.27-10.63,4.27H1069.4z"/>
	<path class="st2" d="M1219.78,385.61c0,22.19-10.8,33.28-32.41,33.28h-28.58c-9.18,0-13.77-4.64-13.77-13.94v-0.52
		c0.23-9.64,4.88-14.46,13.94-14.46h29.97c1.97,0,3.42-0.55,4.36-1.66c0.93-1.1,1.39-2.29,1.39-3.57c0-1.28-0.47-2.47-1.39-3.57
		c-0.93-1.1-2.38-1.65-4.36-1.65h-14.81c-20.45,0-30.67-10.51-30.67-31.54c0-22.19,10.92-33.28,32.76-33.28h23
		c9.18,0,13.77,4.65,13.77,13.94v0.52c-0.23,9.64-4.88,14.46-13.94,14.46h-24.74c-1.98,0-3.43,0.55-4.36,1.66
		c-0.93,1.1-1.4,2.29-1.4,3.57c0,1.28,0.46,2.47,1.4,3.57c0.93,1.11,2.38,1.66,4.36,1.66h14.81
		C1209.56,354.07,1219.78,364.59,1219.78,385.61z"/>
	<path class="st2" d="M1280.59,404.43c0,4.65-1.42,8.19-4.27,10.63c-2.85,2.44-6.25,3.66-10.19,3.66c-3.83,0-7.17-1.22-10.02-3.66
		c-2.85-2.44-4.27-5.98-4.27-10.63v-60.81h-10.11c-4.53,0-8.08-1.42-10.63-4.27c-2.56-2.85-3.83-6.24-3.83-10.19
		c0-3.95,1.28-7.35,3.83-10.19c2.55-2.85,6.1-4.27,10.63-4.27h48.62c4.53,0,8.07,1.42,10.63,4.27c2.55,2.85,3.83,6.25,3.83,10.19
		c0,3.95-1.28,7.35-3.83,10.19c-2.56,2.85-6.1,4.27-10.63,4.27h-9.76V404.43z"/>
</g>
<g>
	<path class="st2" d="M386.75,541.45c0-5.97,1.4-11.77,4.2-17.38c2.8-5.61,6.53-10.55,11.21-14.85c4.67-4.29,9.9-7.75,15.69-10.37
		c5.79-2.61,11.49-3.92,17.1-3.92h44.84c29.15,0,54.56,4.86,76.23,14.57c21.67,9.72,39.7,22.62,54.09,38.68
		c14.38,16.07,25.22,34.19,32.51,54.37c7.29,20.18,10.93,40.92,10.93,62.22c0,20.93-3.46,41.3-10.37,61.1
		c-6.92,19.81-17.38,37.37-31.39,52.69c-14.01,15.33-31.39,27.75-52.13,37.28c-20.74,9.53-44.94,14.29-72.59,14.29h-52.13
		c-14.57,0-26.26-4.2-35.03-12.61c-8.78-8.41-13.17-19.71-13.17-33.91V541.45z M487.64,737.08c12.33,0,23.07-2.24,32.23-6.73
		c9.15-4.48,16.9-10.27,23.26-17.38c6.35-7.09,11.11-15.22,14.29-24.38c3.17-9.15,4.76-18.59,4.76-28.31
		c0-8.97-1.5-17.74-4.48-26.34c-2.99-8.59-7.57-16.16-13.73-22.7c-6.17-6.53-14.01-11.86-23.54-15.98
		c-9.53-4.11-20.65-6.17-33.35-6.17h-7.85v147.98H487.64z"/>
	<path class="st2" d="M662.53,661.41c0-23.54,4.48-45.77,13.45-66.7c8.97-20.92,21.11-39.14,36.44-54.65
		c15.32-15.5,33.44-27.75,54.37-36.72c20.92-8.97,43.16-13.45,66.7-13.45c23.54,0,45.77,4.48,66.7,13.45
		c20.92,8.97,39.14,21.21,54.65,36.72c15.5,15.51,27.75,33.73,36.72,54.65c8.97,20.93,13.45,43.16,13.45,66.7
		c0,23.54-4.49,45.78-13.45,66.7c-8.97,20.93-21.21,39.05-36.72,54.37c-15.51,15.33-33.73,27.47-54.65,36.44
		c-20.93,8.97-43.16,13.45-66.7,13.45c-23.54,0-45.78-4.48-66.7-13.45c-20.93-8.97-39.05-21.11-54.37-36.44
		c-15.33-15.32-27.47-33.44-36.44-54.37C667.01,707.19,662.53,684.95,662.53,661.41z"/>
	<path class="st2" d="M1066.68,830.13c-30.65,0-45.96-15.5-45.96-46.52V541.45c0-14.94,4.57-26.34,13.73-34.19
		c9.15-7.85,19.9-11.77,32.23-11.77c12.33,0,23.07,3.92,32.23,11.77c9.15,7.85,13.73,19.25,13.73,34.19v195.63h49.33
		c14.2,0,25.03,4.58,32.51,13.73c7.47,9.16,11.21,20.09,11.21,32.79c0,12.71-3.74,23.64-11.21,32.79
		c-7.48,9.16-18.31,13.73-32.51,13.73H1066.68z"/>
	<path class="st2" d="M1305.47,783.6c0,14.95-4.58,26.34-13.73,34.19c-9.16,7.85-19.9,11.77-32.23,11.77
		c-12.33,0-23.08-3.92-32.23-11.77c-9.16-7.85-13.73-19.24-13.73-34.19V541.45c0-31.01,15.32-46.52,45.96-46.52h156.95
		c14.57,0,25.97,4.58,34.19,13.73c8.22,9.16,12.33,20.09,12.33,32.79c0,12.71-4.12,23.64-12.33,32.79
		c-8.22,9.16-19.62,13.73-34.19,13.73h-110.99V616h88.57c14.57,0,25.97,4.58,34.19,13.73c8.22,9.16,12.33,20.09,12.33,32.79
		c0,12.71-4.12,23.64-12.33,32.79c-8.22,9.16-19.62,13.73-34.19,13.73h-88.57V783.6z"/>
	<path class="st2" d="M1516.79,830.13c-30.65,0-45.96-15.5-45.96-46.52V541.45c0-31.01,15.32-46.52,45.96-46.52h156.95
		c14.57,0,25.97,4.58,34.19,13.73c8.22,9.16,12.33,20.09,12.33,32.79c0,12.71-4.12,23.64-12.33,32.79
		c-8.22,9.16-19.62,13.73-34.19,13.73h-110.99V616h88.57c14.57,0,25.97,4.58,34.19,13.73c8.22,9.16,12.33,20.09,12.33,32.79
		c0,12.71-4.12,23.64-12.33,32.79c-8.22,9.16-19.62,13.73-34.19,13.73h-88.57v28.03h110.99c14.57,0,25.97,4.58,34.19,13.73
		c8.22,9.16,12.33,20.09,12.33,32.79c0,12.71-4.12,23.64-12.33,32.79c-8.22,9.16-19.62,13.73-34.19,13.73H1516.79z"/>
	<path class="st2" d="M1983.72,723.07c0,71.38-34.75,107.06-104.26,107.06h-91.93c-29.53,0-44.28-14.94-44.28-44.84v-1.68
		c0.74-31.01,15.69-46.52,44.84-46.52h96.41c6.35,0,11.02-1.77,14.01-5.33c2.99-3.55,4.48-7.37,4.48-11.49
		c0-4.11-1.5-7.94-4.48-11.49c-3-3.55-7.66-5.33-14.01-5.33h-47.65c-65.78,0-98.66-33.82-98.66-101.46
		c0-71.37,35.12-107.06,105.38-107.06h73.99c29.52,0,44.28,14.95,44.28,44.84v1.68c-0.75,31.02-15.69,46.53-44.84,46.53h-79.6
		c-6.36,0-11.03,1.78-14.01,5.33c-3,3.56-4.48,7.38-4.48,11.49c0,4.12,1.49,7.94,4.48,11.49c2.99,3.56,7.65,5.33,14.01,5.33h47.65
		C1950.83,621.61,1983.72,655.43,1983.72,723.07z"/>
	<path class="st2" d="M2162.52,783.6c0,14.95-4.58,26.34-13.73,34.19c-9.16,7.85-20.09,11.77-32.79,11.77
		c-12.33,0-23.08-3.92-32.23-11.77c-9.16-7.85-13.73-19.24-13.73-34.19V587.97h-32.51c-14.57,0-25.98-4.57-34.19-13.73
		c-8.22-9.15-12.33-20.08-12.33-32.79c0-12.7,4.11-23.63,12.33-32.79c8.21-9.15,19.62-13.73,34.19-13.73h156.39
		c14.57,0,25.97,4.58,34.19,13.73c8.21,9.16,12.33,20.09,12.33,32.79c0,12.71-4.12,23.64-12.33,32.79
		c-8.22,9.16-19.62,13.73-34.19,13.73h-31.39V783.6z"/>
</g>
<g>
	<path class="st2" d="M365.27,577.89v-308.7c0-12.64-10.25-22.89-22.89-22.89h-59.94c-12.64,0-22.89,10.25-22.89,22.89v308.7H365.27
		z"/>
</g>
<linearGradient id="SVGID_1_" gradientUnits="userSpaceOnUse" x1="312.4172" y1="636.0629" x2="312.4172" y2="603.0978">
	<stop  offset="0" style="stop-color:#E89DC7"/>
	<stop  offset="1" style="stop-color:#FFFFFF"/>
</linearGradient>
<path class="st3" d="M259.56,603.1v32.4c0,0.19,0.01,0.38,0.01,0.57h105.69c0-0.19,0.01-0.38,0.01-0.57v-32.4H259.56z"/>
<linearGradient id="SVGID_2_" gradientUnits="userSpaceOnUse" x1="312.4177" y1="830.1287" x2="312.4177" y2="661.2715">
	<stop  offset="0" style="stop-color:#E89DC7"/>
	<stop  offset="1" style="stop-color:#FFFFFF"/>
</linearGradient>
<path class="st4" d="M361.34,661.27h-97.85c4.2,14.18,6.81,33.78,6.81,55.45c0,27.81-4.28,52.21-10.74,66.12v0
	c0,26.12,21.17,47.29,47.29,47.29h11.13c26.12,0,47.29-21.17,47.29-47.29v0c-6.45-13.91-10.74-38.31-10.74-66.12
	C354.54,695.05,357.14,675.45,361.34,661.27z"/>
<g>
	<linearGradient id="SVGID_3_" gradientUnits="userSpaceOnUse" x1="520.1551" y1="810.7374" x2="520.1551" y2="514.3157">
		<stop  offset="0" style="stop-color:#E89DC7"/>
		<stop  offset="1" style="stop-color:#FFFFFF"/>
	</linearGradient>
	<path class="st5" d="M634.17,664.77c0-18.95-3.29-37.67-9.78-55.63c-6.4-17.72-16.06-33.88-28.72-48.03
		c-12.49-13.94-28.5-25.36-47.58-33.92c-19.06-8.54-42.04-12.87-68.3-12.87h-44.84c-2.84,0-5.83,0.72-9.13,2.21
		c-3.91,1.77-7.36,4.05-10.54,6.97c-2.94,2.71-5.23,5.73-6.99,9.25c-1.45,2.9-2.16,5.75-2.16,8.7V783.6c0,11.67,4.1,16.95,7.19,19.9
		c5.08,4.87,12.15,7.23,21.62,7.23h52.13c24.71,0,46.41-4.21,64.49-12.52c18.29-8.4,33.73-19.42,45.92-32.74
		c12.16-13.29,21.38-28.77,27.39-46C631.05,701.82,634.17,683.41,634.17,664.77z M575.75,694.94
		c-4.01,11.57-10.12,21.98-18.17,30.97c-8,8.94-17.82,16.29-29.18,21.86c-11.8,5.78-25.52,8.71-40.76,8.71h-8.41
		c-10.71,0-19.39-8.68-19.39-19.39V589.1c0-10.71,8.68-19.39,19.39-19.39h7.85c15.3,0,29.1,2.61,41.03,7.75
		c11.93,5.15,22.01,12.04,29.97,20.47c8.02,8.51,14.05,18.48,17.94,29.63c3.69,10.64,5.56,21.64,5.56,32.73
		C581.59,672.11,579.62,683.77,575.75,694.94z"/>
	<linearGradient id="SVGID_4_" gradientUnits="userSpaceOnUse" x1="833.7766" y1="812.9796" x2="833.7766" y2="509.271">
		<stop  offset="0" style="stop-color:#E89DC7"/>
		<stop  offset="1" style="stop-color:#FFFFFF"/>
	</linearGradient>
	<path class="st6" d="M941.14,553.76c-13.69-13.68-30.03-24.65-48.58-32.6c-18.4-7.89-38.28-11.88-59.06-11.88
		c-20.79,0-40.67,4-59.07,11.88c-18.51,7.93-34.73,18.87-48.22,32.52c-13.53,13.69-24.43,30.07-32.41,48.66
		c-7.89,18.41-11.89,38.28-11.89,59.06c0,20.79,4,40.67,11.88,59.06c7.95,18.56,18.83,34.81,32.32,48.3
		c13.49,13.5,29.74,24.37,48.3,32.33c18.4,7.89,38.27,11.89,59.07,11.89c20.79,0,40.66-4,59.07-11.89
		c18.59-7.97,34.97-18.87,48.66-32.4c13.65-13.49,24.59-29.71,32.52-48.22c7.89-18.4,11.89-38.28,11.89-59.07
		c0-20.78-4-40.66-11.89-59.07C965.8,583.8,954.83,567.45,941.14,553.76z"/>
	<linearGradient id="SVGID_5_" gradientUnits="userSpaceOnUse" x1="1113.2053" y1="810.7374" x2="1113.2053" y2="514.8762">
		<stop  offset="0" style="stop-color:#E89DC7"/>
		<stop  offset="1" style="stop-color:#FFFFFF"/>
	</linearGradient>
	<path class="st7" d="M1161.97,756.47h-49.33c-10.71,0-19.39-8.68-19.39-19.39V541.45c0-12.1-3.97-16.91-6.96-19.47
		c-5.65-4.84-11.89-7.1-19.61-7.1c-7.73,0-13.96,2.26-19.61,7.1c-2.99,2.57-6.96,7.37-6.96,19.47V783.6
		c0,20.29,6.71,27.13,26.57,27.13h95.29c10.84,0,15.18-3.77,17.49-6.61c4.67-5.72,6.84-12.24,6.84-20.53
		c0-8.28-2.18-14.81-6.85-20.54C1177.15,760.24,1172.81,756.47,1161.97,756.47z"/>
	<linearGradient id="SVGID_6_" gradientUnits="userSpaceOnUse" x1="1338.2592" y1="810.1769" x2="1338.2592" y2="514.3157">
		<stop  offset="0" style="stop-color:#E89DC7"/>
		<stop  offset="1" style="stop-color:#FFFFFF"/>
	</linearGradient>
	<path class="st8" d="M1394.03,635.39h-88.57c-10.71,0-19.39-8.68-19.39-19.39v-28.03c0-10.71,8.68-19.39,19.39-19.39h110.99
		c11.84,0,16.95-4.16,19.76-7.3c5.03-5.6,7.37-11.91,7.37-19.84c0-7.93-2.34-14.23-7.38-19.85c-2.8-3.12-7.92-7.29-19.76-7.29
		H1259.5c-19.87,0-26.57,6.85-26.57,27.13V783.6c0,12.11,3.97,16.91,6.96,19.47c5.66,4.85,11.89,7.11,19.62,7.11
		c7.72,0,13.96-2.26,19.62-7.11c2.98-2.56,6.96-7.36,6.96-19.47v-74.55c0-10.71,8.68-19.39,19.39-19.39h88.57
		c11.84,0,16.95-4.16,19.76-7.3c5.03-5.6,7.37-11.91,7.37-19.84c0-7.93-2.34-14.23-7.38-19.84
		C1410.98,639.56,1405.87,635.39,1394.03,635.39z"/>
	<linearGradient id="SVGID_7_" gradientUnits="userSpaceOnUse" x1="1595.5471" y1="810.7374" x2="1595.5471" y2="514.3157">
		<stop  offset="0" style="stop-color:#E89DC7"/>
		<stop  offset="1" style="stop-color:#FFFFFF"/>
	</linearGradient>
	<path class="st9" d="M1673.74,756.47h-110.99c-10.71,0-19.39-8.68-19.39-19.39v-28.03c0-10.71,8.68-19.39,19.39-19.39h88.57
		c11.84,0,16.95-4.16,19.76-7.3c5.03-5.6,7.37-11.91,7.37-19.84c0-7.93-2.34-14.23-7.38-19.84c-2.8-3.12-7.92-7.29-19.76-7.29
		h-88.57c-10.71,0-19.39-8.68-19.39-19.39v-28.03c0-10.71,8.68-19.39,19.39-19.39h110.99c11.84,0,16.95-4.16,19.76-7.3
		c5.03-5.6,7.37-11.91,7.37-19.84c0-7.93-2.34-14.23-7.38-19.85c-2.8-3.12-7.92-7.29-19.76-7.29h-156.95
		c-19.87,0-26.57,6.85-26.57,27.13V783.6c0,20.29,6.71,27.13,26.57,27.13h156.95c11.84,0,16.95-4.16,19.76-7.3
		c5.03-5.6,7.37-11.9,7.37-19.84c0-7.93-2.34-14.23-7.38-19.85C1690.7,760.64,1685.58,756.47,1673.74,756.47z"/>
	<linearGradient id="SVGID_8_" gradientUnits="userSpaceOnUse" x1="1860.9595" y1="810.7374" x2="1860.9595" y2="514.3157">
		<stop  offset="0" style="stop-color:#E89DC7"/>
		<stop  offset="1" style="stop-color:#FFFFFF"/>
	</linearGradient>
	<path class="st10" d="M1917.57,514.32h-73.99c-59.47,0-85.99,27.04-85.99,87.67c0,28.44,6.45,49.49,19.17,62.58
		c12.57,12.93,32.79,19.49,60.09,19.49h47.65c15.31,0,24.13,6.64,28.83,12.21c5.94,7.07,9.06,15.36,9.06,24
		c0,8.66-3.13,16.96-9.04,23.98c-4.7,5.58-13.52,12.23-28.85,12.23h-96.41c-16.03,0-24.84,4.37-25.45,27.38v1.44
		c0,19.27,6.05,25.45,24.89,25.45h91.93c58.7,0,84.87-27.04,84.87-87.67c0-28.43-6.45-49.49-19.18-62.57
		c-12.58-12.93-32.79-19.49-60.09-19.49h-47.65c-15.36,0-24.17-6.66-28.86-12.25c-5.89-6.98-9.03-15.28-9.03-23.96
		c0-8.67,3.13-16.96,9.05-23.99c4.69-5.57,13.51-12.22,28.84-12.22h79.6c16.03,0,24.84-4.37,25.45-27.38v-1.43
		C1942.47,520.5,1936.42,514.32,1917.57,514.32z"/>
	<linearGradient id="SVGID_9_" gradientUnits="userSpaceOnUse" x1="2115.7192" y1="810.1769" x2="2115.7192" y2="514.3157">
		<stop  offset="0" style="stop-color:#E89DC7"/>
		<stop  offset="1" style="stop-color:#FFFFFF"/>
	</linearGradient>
	<path class="st11" d="M2193.92,514.32h-156.39c-11.84,0-16.95,4.16-19.76,7.29c-5.03,5.6-7.37,11.91-7.37,19.84
		c0,7.94,2.34,14.24,7.36,19.83c2.82,3.14,7.92,7.3,19.77,7.3h32.51c10.71,0,19.39,8.68,19.39,19.39V783.6
		c0,12.11,3.97,16.91,6.96,19.47c5.66,4.85,11.89,7.11,19.62,7.11c8.1,0,14.52-2.26,20.18-7.11c2.98-2.56,6.96-7.37,6.96-19.47
		V587.97c0-10.71,8.68-19.39,19.39-19.39h31.39c11.84,0,16.95-4.16,19.76-7.3c5.03-5.6,7.37-11.91,7.37-19.84
		c0-7.93-2.34-14.23-7.38-19.85C2210.87,518.48,2205.75,514.32,2193.92,514.32z"/>
</g>
<g>
	<linearGradient id="SVGID_10_" gradientUnits="userSpaceOnUse" x1="517.2816" y1="831.3571" x2="515.1873" y2="711.9846">
		<stop  offset="0" style="stop-color:#E89DC7"/>
		<stop  offset="1" style="stop-color:#FFFFFF"/>
	</linearGradient>
	<path class="st12" d="M607.91,594.51l6.75-6.75c-3.99-7.17-8.58-14-13.76-20.46l-10.05,10.05l-13.86-13.86l10.59-10.59
		c-5.85-5.43-12.31-10.4-19.34-14.88l-8.31,8.31l-13.86-13.86l4.24-4.24c-0.74-0.34-1.47-0.69-2.21-1.02
		c-5.22-2.34-10.75-4.35-16.55-6.06l11.32,11.32L529,546.32l-13.86-13.86l12.43-12.43c-9.12-2.4-18.89-4.06-29.28-4.94l-0.21,0.21
		l-0.24-0.24c-5.83-0.48-11.84-0.73-18.04-0.73h-11.67l-0.98,0.98l-0.97-0.98h-28.97l-0.98,0.98l-0.98-0.98h-0.3
		c-2.84,0-5.83,0.72-9.13,2.21c-3.91,1.77-7.36,4.05-10.54,6.97c-0.9,0.82-1.72,1.68-2.5,2.57l6.39,6.39l-13.03,13.03v4.96
		l13.03,13.03l-13.03,13.03v4.96l13.03,13.03l-13.03,13.03v4.96l13.03,13.03l-13.03,13.03v4.96l13.03,13.03l-13.03,13.03v4.96
		l13.03,13.03l-13.03,13.03v4.96l13.03,13.03l-13.03,13.03v4.96l13.03,13.03l-13.03,13.03v4.96l13.03,13.03l-12.01,12.02
		c1.41,5.62,4.03,8.79,6.17,10.83c3,2.88,6.71,4.87,11.19,6.03l11.71-11.71l12.91,12.91h5.1l12.91-12.91l12.91,12.91h5.1
		l12.91-12.91l11.63,11.64c3.04-0.36,6.03-0.79,8.95-1.3L529,797.82l6.43,6.43c5.66-1.69,11.05-3.69,16.15-6.04
		c2.75-1.26,5.44-2.6,8.06-3.98l-13.57-13.57l13.86-13.86l15.46,15.46l17.11-17.11l-15.51-15.51l13.86-13.86l15.46,15.46l7.02-7.02
		c2.55-4.27,4.87-8.69,6.94-13.25l-12.36-12.36l15.51-15.51l-15.51-15.51l15.51-15.51l-15.51-15.51l15.51-15.51l-15.51-15.51
		l15.51-15.51L607.91,594.51z M590.85,580.64l13.86,13.86l-13.86,13.86l-13.86-13.86L590.85,580.64z M590.85,670.42l-9.28-9.28
		c-0.07,8.49-1.14,16.89-3.21,25.08l12.49-12.49l13.86,13.86l-13.86,13.86l-13.08-13.08c-0.61,2.21-1.27,4.4-2.02,6.57
		c-2.14,6.16-4.89,11.98-8.19,17.44l6.23,6.23l-13.86,13.86l-4.39-4.39c-5.56,5.81-11.91,10.92-19,15.23l6.32,6.32L529,763.5
		l-11.41-11.41c-3.47,1.11-7.07,2.01-10.8,2.7l-8.71,8.71l-7.08-7.08c-1.11,0.03-2.23,0.05-3.36,0.05h-8.41
		c-1.55,0-3.06-0.2-4.5-0.55l-7.58,7.58l-13.86-13.86l7.29-7.29c-0.47-1.68-0.74-3.44-0.74-5.26v-11.92l-6.55-6.55l6.55-6.55v-17.92
		l-6.55-6.55l6.55-6.55v-17.92l-6.55-6.55l6.55-6.55v-17.92l-6.55-6.55l6.55-6.55v-17.92l-6.55-6.55l6.61-6.61
		c0.29-4.79,2.31-9.11,5.46-12.34l-12.08-12.08l13.86-13.86l13.86,13.86l-6.94,6.94c1.64-0.45,3.37-0.72,5.16-0.72h7.85
		c1.15,0,2.28,0.02,3.41,0.05l-6.27-6.27l13.86-13.86l13.86,13.86l-7.45,7.45c8.5,1.24,16.4,3.42,23.62,6.53
		c0.18,0.08,0.35,0.17,0.53,0.25c0.45,0.2,0.88,0.41,1.32,0.61c7.47,3.4,14.18,7.49,20.06,12.23l9.9-9.9l13.86,13.86l-10.07,10.07
		c4.61,6.05,8.32,12.72,11.14,19.89c0.3,0.77,0.6,1.54,0.88,2.32c0.09,0.26,0.2,0.51,0.29,0.77c2.8,8.08,4.55,16.36,5.23,24.73
		l9.6-9.6l13.86,13.86L590.85,670.42z M436.23,763.5l-13.86-13.86l13.86-13.86l13.86,13.86L436.23,763.5z M436.23,549.62
		l13.86,13.86l-13.86,13.86l-13.86-13.86L436.23,549.62z M436.23,580.64l13.86,13.86l-13.86,13.86l-13.86-13.86L436.23,580.64z
		 M436.23,611.67l13.86,13.86l-13.86,13.86l-13.86-13.86L436.23,611.67z M436.23,642.69l13.86,13.86l-13.86,13.86l-13.86-13.86
		L436.23,642.69z M436.23,673.72l13.86,13.86l-13.86,13.86l-13.86-13.86L436.23,673.72z M436.23,704.75l13.86,13.86l-13.86,13.86
		l-13.86-13.86L436.23,704.75z M590.85,639.39l-13.86-13.86l13.86-13.86l13.86,13.86L590.85,639.39z M559.93,549.62l13.86,13.86
		l-13.86,13.86l-13.86-13.86L559.93,549.62z M529,549.62l13.86,13.86L529,577.34l-13.86-13.86L529,549.62z M498.08,518.59
		l13.86,13.86l-13.86,13.86l-13.86-13.86L498.08,518.59z M467.15,518.59l13.86,13.86l-13.86,13.86l-13.86-13.86L467.15,518.59z
		 M436.23,518.59l13.86,13.86l-13.86,13.86l-13.86-13.86L436.23,518.59z M436.23,794.52l-13.86-13.86l13.86-13.86l13.86,13.86
		L436.23,794.52z M467.15,794.52l-13.86-13.86l13.86-13.86l13.86,13.86L467.15,794.52z M498.08,794.52l-13.86-13.86l13.86-13.86
		l13.86,13.86L498.08,794.52z M529,794.52l-13.86-13.86L529,766.8l13.86,13.86L529,794.52z M559.93,763.5l-13.86-13.86l13.86-13.86
		l13.86,13.86L559.93,763.5z M590.85,732.47l-13.86-13.86l13.86-13.86l13.86,13.86L590.85,732.47z"/>
	<linearGradient id="SVGID_11_" gradientUnits="userSpaceOnUse" x1="836.537" y1="825.756" x2="834.4427" y2="706.3836">
		<stop  offset="0" style="stop-color:#E89DC7"/>
		<stop  offset="1" style="stop-color:#FFFFFF"/>
	</linearGradient>
	<path class="st13" d="M984.86,645.8c-0.37-3.7-0.87-7.38-1.5-11.01l-10.86-10.86l-15.46,15.46l-13.86-13.86l15.51-15.51
		l-15.51-15.51l15.51-15.51l-17.11-17.11l-15.46,15.46l-13.86-13.86l15.51-15.51l-17.11-17.11l-15.46,15.46l-13.86-13.86
		l11.28-11.28l-0.05-0.02c-8.33-3.57-16.97-6.34-25.86-8.3l-2.44,2.44l-3.66-3.66c-6.98-1.24-14.11-1.99-21.36-2.25l-5.91,5.91
		l-5.89-5.89c-7.28,0.28-14.43,1.04-21.44,2.31l-3.59,3.59l-2.39-2.39c-8.8,1.96-17.35,4.71-25.6,8.25l-0.26,0.11l11.18,11.18
		l-13.86,13.86l-15.46-15.46l-17.11,17.11l15.51,15.51l-13.86,13.86l-15.46-15.46L708,578.99l15.51,15.51l-13.86,13.86l-12.77-12.77
		c-1.07,2.21-2.09,4.46-3.07,6.74c-2.52,5.88-4.63,11.9-6.36,18.06l5.13,5.13l-8.19,8.2c-0.77,4.24-1.36,8.53-1.77,12.86l9.97,9.97
		l-10.55,10.55c0.13,3.58,0.37,7.14,0.74,10.66l9.81,9.81l-7.07,7.07c1.88,8.48,4.5,16.74,7.84,24.72l0.83,0.83l15.46-15.46
		l13.86,13.86L708,734.12l17.11,17.11l15.46-15.46l13.86,13.86l-15.51,15.51l17.11,17.11l15.46-15.46l13.86,13.86l-15.51,15.51
		l5.16,5.16c5.77,2.44,11.68,4.51,17.72,6.18l9.69-9.69l14.25,14.25c0.73,0.08,1.46,0.16,2.2,0.22l14.47-14.47l14.5,14.5
		c0.71-0.07,1.43-0.14,2.14-0.21l14.29-14.29l9.76,9.76c5.94-1.64,11.76-3.65,17.45-6.03l5.37-5.37l-15.51-15.51l13.86-13.86
		l15.46,15.46l17.11-17.11l-15.51-15.51l13.86-13.86l15.46,15.46l17.11-17.11l-15.51-15.51l13.86-13.86l15.46,15.46l2.31-2.31
		c2.96-7.3,5.33-14.82,7.08-22.53l-7.79-7.79l10.78-10.78c0.29-2.93,0.48-5.88,0.6-8.85l-11.39-11.39L984.86,645.8z M957.04,642.69
		l13.86,13.86l-13.86,13.86l-13.86-13.86L957.04,642.69z M926.12,701.45l-13.86-13.86l13.86-13.86l13.86,13.86L926.12,701.45z
		 M895.19,732.47l-13.86-13.86l13.86-13.86l13.86,13.86L895.19,732.47z M864.27,763.5l-13.86-13.86l13.86-13.86l13.86,13.86
		L864.27,763.5z M833.34,763.5l-13.86-13.86l13.86-13.86l13.86,13.86L833.34,763.5z M802.42,763.5l-13.86-13.86l13.86-13.86
		l13.86,13.86L802.42,763.5z M771.5,732.47l-13.86-13.86l13.86-13.86l13.86,13.86L771.5,732.47z M740.57,701.45l-13.86-13.86
		l13.86-13.86l13.86,13.86L740.57,701.45z M709.65,670.42l-13.86-13.86l13.86-13.86l13.86,13.86L709.65,670.42z M740.57,611.67
		l13.86,13.86l-13.86,13.86l-13.86-13.86L740.57,611.67z M771.5,580.64l13.86,13.86l-13.86,13.86l-13.86-13.86L771.5,580.64z
		 M802.42,549.62l13.86,13.86l-13.86,13.86l-13.86-13.86L802.42,549.62z M833.34,549.62l13.86,13.86l-13.86,13.86l-13.86-13.86
		L833.34,549.62z M864.27,549.62l13.86,13.86l-13.86,13.86l-13.86-13.86L864.27,549.62z M895.19,580.64l13.86,13.86l-13.86,13.86
		l-13.86-13.86L895.19,580.64z M926.12,611.67l13.86,13.86l-13.86,13.86l-13.86-13.86L926.12,611.67z M926.12,670.42l-13.86-13.86
		l13.86-13.86l13.86,13.86L926.12,670.42z M895.19,701.45l-13.86-13.86l13.86-13.86l13.86,13.86L895.19,701.45z M864.27,732.47
		l-13.86-13.86l13.86-13.86l13.86,13.86L864.27,732.47z M833.34,732.47l-13.86-13.86l13.86-13.86l13.86,13.86L833.34,732.47z
		 M802.42,732.47l-13.86-13.86l13.86-13.86l13.86,13.86L802.42,732.47z M771.5,701.45l-13.86-13.86l13.86-13.86l13.86,13.86
		L771.5,701.45z M740.57,670.42l-13.86-13.86l13.86-13.86l13.86,13.86L740.57,670.42z M771.5,611.67l13.86,13.86l-13.86,13.86
		l-13.86-13.86L771.5,611.67z M802.42,580.64l13.86,13.86l-13.86,13.86l-13.86-13.86L802.42,580.64z M833.34,580.64l13.86,13.86
		l-13.86,13.86l-13.86-13.86L833.34,580.64z M864.27,580.64l13.86,13.86l-13.86,13.86l-13.86-13.86L864.27,580.64z M895.19,611.67
		l13.86,13.86l-13.86,13.86l-13.86-13.86L895.19,611.67z M895.19,670.42l-13.86-13.86l13.86-13.86l13.86,13.86L895.19,670.42z
		 M864.27,701.45l-13.86-13.86l13.86-13.86l13.86,13.86L864.27,701.45z M833.34,701.45l-13.86-13.86l13.86-13.86l13.86,13.86
		L833.34,701.45z M802.42,701.45l-13.86-13.86l13.86-13.86l13.86,13.86L802.42,701.45z M771.5,670.42l-13.86-13.86l13.86-13.86
		l13.86,13.86L771.5,670.42z M802.42,611.67l13.86,13.86l-13.86,13.86l-13.86-13.86L802.42,611.67z M833.34,611.67l13.86,13.86
		l-13.86,13.86l-13.86-13.86L833.34,611.67z M864.27,611.67l13.86,13.86l-13.86,13.86l-13.86-13.86L864.27,611.67z M864.27,670.42
		l-13.86-13.86l13.86-13.86l13.86,13.86L864.27,670.42z M833.34,670.42l-13.86-13.86l13.86-13.86l13.86,13.86L833.34,670.42z
		 M802.42,670.42l-13.86-13.86l13.86-13.86l13.86,13.86L802.42,670.42z M926.12,580.64l13.86,13.86l-13.86,13.86l-13.86-13.86
		L926.12,580.64z M895.19,549.62l13.86,13.86l-13.86,13.86l-13.86-13.86L895.19,549.62z M864.27,518.59l13.86,13.86l-13.86,13.86
		l-13.86-13.86L864.27,518.59z M833.34,518.59l13.86,13.86l-13.86,13.86l-13.86-13.86L833.34,518.59z M802.42,518.59l13.86,13.86
		l-13.86,13.86l-13.86-13.86L802.42,518.59z M771.5,549.62l13.86,13.86l-13.86,13.86l-13.86-13.86L771.5,549.62z M740.57,580.64
		l13.86,13.86l-13.86,13.86l-13.86-13.86L740.57,580.64z M709.65,611.67l13.86,13.86l-13.86,13.86l-13.86-13.86L709.65,611.67z
		 M709.65,701.45l-13.86-13.86l13.86-13.86l13.86,13.86L709.65,701.45z M740.57,732.47l-13.86-13.86l13.86-13.86l13.86,13.86
		L740.57,732.47z M771.5,763.5l-13.86-13.86l13.86-13.86l13.86,13.86L771.5,763.5z M802.42,794.52l-13.86-13.86l13.86-13.86
		l13.86,13.86L802.42,794.52z M833.34,794.52l-13.86-13.86l13.86-13.86l13.86,13.86L833.34,794.52z M864.27,794.52l-13.86-13.86
		l13.86-13.86l13.86,13.86L864.27,794.52z M895.19,763.5l-13.86-13.86l13.86-13.86l13.86,13.86L895.19,763.5z M926.12,732.47
		l-13.86-13.86l13.86-13.86l13.86,13.86L926.12,732.47z M957.04,701.45l-13.86-13.86l13.86-13.86l13.86,13.86L957.04,701.45z"/>
	<linearGradient id="SVGID_12_" gradientUnits="userSpaceOnUse" x1="1113.801" y1="820.8918" x2="1111.7068" y2="701.5193">
		<stop  offset="0" style="stop-color:#E89DC7"/>
		<stop  offset="1" style="stop-color:#FFFFFF"/>
	</linearGradient>
	<path class="st14" d="M1185.07,773.81c-1.1-3.96-2.95-7.48-5.61-10.75c-1.84-2.25-4.99-5.11-11.7-6.17l-6.6,6.6l-7.03-7.03h-16.87
		l-7.03,7.03l-7.03-7.03h-10.56c-1.91,0-3.76-0.29-5.5-0.8l-7.83,7.83l-13.86-13.86l8.29-8.29c-0.31-1.37-0.49-2.8-0.49-4.26v-10.66
		l-7.81-7.81l7.81-7.81v-15.41l-7.81-7.81l7.81-7.81v-15.41l-7.81-7.81l7.81-7.81v-15.41l-7.81-7.81l7.81-7.81v-15.41l-7.81-7.81
		l7.81-7.81v-15.41l-7.81-7.81l7.81-7.81v-14.22c0-0.42-0.02-0.81-0.02-1.21l-7.78-7.78l5.08-5.08c-1.3-2.58-2.87-4.23-4.23-5.4
		c-5.14-4.4-10.77-6.66-17.55-7.04l-0.35,0.35l-0.39-0.39c-0.43-0.02-0.87-0.02-1.32-0.02c-7.73,0-13.96,2.26-19.61,7.1
		c-0.94,0.81-1.98,1.84-2.97,3.26l7.22,7.22l-11.22,11.22v8.59l11.22,11.22l-11.22,11.22v8.59l11.22,11.22l-11.22,11.22v8.59
		l11.22,11.22l-11.22,11.22v8.59l11.22,11.22l-11.22,11.22v8.59l11.22,11.22l-11.22,11.22v8.59l11.22,11.22l-11.22,11.22v8.59
		l11.22,11.22l-11.22,11.22v8.59l11.22,11.22l-10.79,10.79c1.34,10.94,6,16.45,15.8,18.42l12.04-12.04l12.91,12.91h5.1l12.91-12.91
		l12.91,12.91h5.1l12.91-12.91l12.91,12.91h5.1l12.91-12.91l11.29,11.29c3.62-1.36,5.67-3.32,7.02-4.98
		c3.71-4.55,5.84-9.61,6.56-15.67l-7.8-7.8L1185.07,773.81z M1068.39,763.5l-13.86-13.86l13.86-13.86l13.86,13.86L1068.39,763.5z
		 M1068.39,549.62l13.86,13.86l-13.86,13.86l-13.86-13.86L1068.39,549.62z M1068.39,580.64l13.86,13.86l-13.86,13.86l-13.86-13.86
		L1068.39,580.64z M1068.39,611.67l13.86,13.86l-13.86,13.86l-13.86-13.86L1068.39,611.67z M1068.39,642.69l13.86,13.86
		l-13.86,13.86l-13.86-13.86L1068.39,642.69z M1068.39,673.72l13.86,13.86l-13.86,13.86l-13.86-13.86L1068.39,673.72z
		 M1068.39,704.75l13.86,13.86l-13.86,13.86l-13.86-13.86L1068.39,704.75z M1068.39,518.59l13.86,13.86l-13.86,13.86l-13.86-13.86
		L1068.39,518.59z M1068.39,794.52l-13.86-13.86l13.86-13.86l13.86,13.86L1068.39,794.52z M1099.31,794.52l-13.86-13.86l13.86-13.86
		l13.86,13.86L1099.31,794.52z M1130.23,794.52l-13.86-13.86l13.86-13.86l13.86,13.86L1130.23,794.52z M1161.16,794.52l-13.86-13.86
		l13.86-13.86l13.86,13.86L1161.16,794.52z"/>
	<linearGradient id="SVGID_13_" gradientUnits="userSpaceOnUse" x1="1341.129" y1="816.9036" x2="1339.0348" y2="697.5311">
		<stop  offset="0" style="stop-color:#E89DC7"/>
		<stop  offset="1" style="stop-color:#FFFFFF"/>
	</linearGradient>
	<path class="st15" d="M1436.89,532.45l3.97-3.97c-1.16-2.43-2.7-4.71-4.65-6.88c-2.45-2.73-6.67-6.25-15.6-7.1l-0.79,0.79
		l-0.91-0.91c-0.79-0.04-1.61-0.07-2.47-0.07h-26.58l-0.98,0.98l-0.97-0.98h-28.98l-0.97,0.98l-0.98-0.98h-28.97l-0.97,0.98
		l-0.98-0.98h-28.97l-0.98,0.98l-0.97-0.98h-28.97l-0.98,0.98l-0.98-0.98h-4.73c-11.03,0-18,2.12-22.02,7.47l10.67,10.67
		l-15.21,15.22v0.59l15.21,15.22l-15.21,15.22v0.59l15.21,15.22l-15.21,15.22v0.59l15.21,15.22l-15.21,15.22v0.59l15.21,15.22
		l-15.21,15.22v0.59l15.21,15.22l-15.21,15.22v0.59l15.21,15.22l-15.21,15.22v0.59l15.21,15.22l-15.21,15.22v0.59l15.21,15.22
		l-13.79,13.79c1.43,4.56,3.67,7.03,5.53,8.62c4.08,3.5,8.47,5.65,13.5,6.57l11.82-11.82l8.82,8.82c1.76-0.98,3.45-2.16,5.1-3.57
		c2.91-2.49,6.75-7.15,6.94-18.62l-3.79-3.79l3.81-3.81v-23.41l-3.81-3.81l3.81-3.81v-23.41l-3.81-3.81l3.81-3.81v-5.75
		c0-4.91,1.84-9.39,4.86-12.8l-8.66-8.66l13.86-13.86l15.46,15.46l15.46-15.46l15.46,15.46l15.46-15.46l15.46,15.46l15.46-15.46
		l14.77,14.77c0.72-0.2,1.4-0.42,2.04-0.65l13.06-13.06c0.57-1.29,1.04-2.62,1.4-4.01l-14.21-14.21l10.48-10.48
		c-0.78-1.16-1.66-2.29-2.65-3.4c-2.8-3.12-7.92-7.29-19.76-7.29h-1.13l-4,4l-4-4h-22.92l-4,4l-4-4h-22.92l-4,4l-4-4h-17.59
		c-1.63,0-3.21-0.22-4.73-0.61l-4.61,4.61l-13.86-13.86l4.49-4.49c-0.43-1.61-0.68-3.29-0.68-5.04v-17.69l-3.81-3.81l3.81-3.81
		v-2.72c0-5.68,2.46-10.78,6.36-14.33l-10.17-10.17l13.86-13.86l15.46,15.46l15.46-15.46l15.46,15.46l15.46-15.46l15.46,15.46
		l15.46-15.46l15.46,15.46l15.46-15.46l13.97,13.97c0.97-0.78,1.76-1.57,2.42-2.3c5.03-5.6,7.37-11.91,7.37-19.84
		c0-0.81-0.03-1.6-0.08-2.38L1436.89,532.45z M1265.21,518.59l13.86,13.86l-13.86,13.86l-13.86-13.86L1265.21,518.59z
		 M1265.21,763.5l-13.86-13.86l13.86-13.86l13.86,13.86L1265.21,763.5z M1265.21,732.47l-13.86-13.86l13.86-13.86l13.86,13.86
		L1265.21,732.47z M1265.21,701.45l-13.86-13.86l13.86-13.86l13.86,13.86L1265.21,701.45z M1265.21,670.42l-13.86-13.86l13.86-13.86
		l13.86,13.86L1265.21,670.42z M1265.21,639.39l-13.86-13.86l13.86-13.86l13.86,13.86L1265.21,639.39z M1265.21,608.37l-13.86-13.86
		l13.86-13.86l13.86,13.86L1265.21,608.37z M1265.21,577.34l-13.86-13.86l13.86-13.86l13.86,13.86L1265.21,577.34z M1265.21,794.52
		l-13.86-13.86l13.86-13.86l13.86,13.86L1265.21,794.52z M1388.9,642.69l13.86,13.86l-13.86,13.86l-13.86-13.86L1388.9,642.69z
		 M1357.98,642.69l13.86,13.86l-13.86,13.86l-13.86-13.86L1357.98,642.69z M1327.05,642.69l13.86,13.86l-13.86,13.86l-13.86-13.86
		L1327.05,642.69z M1296.13,642.69l13.86,13.86l-13.86,13.86l-13.86-13.86L1296.13,642.69z M1296.13,546.32l-13.86-13.86
		l13.86-13.86l13.86,13.86L1296.13,546.32z M1327.05,546.32l-13.86-13.86l13.86-13.86l13.86,13.86L1327.05,546.32z M1357.98,546.32
		l-13.86-13.86l13.86-13.86l13.86,13.86L1357.98,546.32z M1388.9,546.32l-13.86-13.86l13.86-13.86l13.86,13.86L1388.9,546.32z
		 M1419.83,546.32l-13.86-13.86l13.86-13.86l13.86,13.86L1419.83,546.32z"/>
	<linearGradient id="SVGID_14_" gradientUnits="userSpaceOnUse" x1="1598.3345" y1="812.3912" x2="1596.2402" y2="693.0187">
		<stop  offset="0" style="stop-color:#E89DC7"/>
		<stop  offset="1" style="stop-color:#FFFFFF"/>
	</linearGradient>
	<path class="st16" d="M1568.53,565.08l15.46-15.46l15.46,15.46l15.46-15.46l15.46,15.46l15.46-15.46l15.46,15.46l15.46-15.46
		l14.13,14.13c1.06-0.83,1.91-1.68,2.61-2.46c5.03-5.6,7.37-11.91,7.37-19.84c0-0.68-0.02-1.34-0.06-2l-7-7l4.21-4.21
		c-1.15-2.34-2.65-4.54-4.54-6.64c-2.48-2.76-6.78-6.33-15.93-7.12l-0.81,0.81l-0.93-0.93c-0.67-0.03-1.37-0.05-2.09-0.05h-26.93
		l-0.98,0.98l-0.97-0.98h-28.98l-0.97,0.98l-0.98-0.98h-28.97l-0.97,0.98l-0.98-0.98h-28.97l-0.98,0.98l-0.97-0.98h-28.97
		l-0.98,0.98l-0.98-0.98h-4.37c-11.17,0-18.18,2.17-22.18,7.67l10.47,10.47l-14.86,14.86v1.3l14.86,14.86l-14.86,14.86v1.3
		l14.86,14.86l-14.86,14.86v1.3l14.86,14.86l-14.86,14.86v1.3l14.86,14.86l-14.86,14.86v1.3l14.86,14.86l-14.86,14.86v1.3
		l14.86,14.86l-14.86,14.86v1.3l14.86,14.86l-14.86,14.86v1.3l14.86,14.86l-13.92,13.93c0.33,1.63,0.76,3.12,1.3,4.47l9.53,9.53
		c2.18,0.86,4.71,1.43,7.62,1.77l12.54-12.54l12.91,12.91h5.1l12.91-12.91l12.91,12.91h5.1l12.91-12.91l12.91,12.91h5.1l12.91-12.91
		l12.91,12.91h5.1l12.91-12.91l12.91,12.91h5.1l12.91-12.91l10.38,10.38c3.03-1.42,4.98-3.22,6.37-4.76
		c4.17-4.65,6.49-9.79,7.16-15.94l-6.85-6.84l5.89-5.89c-1.16-4.05-3.2-7.66-6.21-11.01c-1.95-2.17-5.03-4.85-10.72-6.28l-6.02,6.02
		l-7.03-7.03h-16.87l-7.03,7.03l-7.03-7.03h-16.87l-7.03,7.03l-7.03-7.03h-16.87l-7.03,7.03l-7.03-7.03h-14.21
		c-0.84,0-1.67-0.07-2.49-0.18l-7.21,7.21l-13.86-13.86l5.5-5.5c-0.86-2.19-1.34-4.56-1.34-7.05v-14.31l-4.16-4.16l4.16-4.16v-5.4
		c0-4.82,1.77-9.23,4.69-12.62l-8.85-8.85l13.86-13.86l15.46,15.46l15.46-15.46l15.46,15.46l15.46-15.46l15.46,15.46l15.46-15.46
		l14.85,14.85c0.62-0.16,1.2-0.35,1.76-0.54l13.87-13.87c0.42-1.01,0.77-2.05,1.06-3.12l-14.48-14.48l10.69-10.69
		c-0.75-1.09-1.58-2.15-2.51-3.18c-2.8-3.12-7.92-7.29-19.76-7.29h-1.48l-4,4l-4-4h-22.92l-4,4l-4-4h-22.92l-4,4l-4-4h-17.23
		c-1.74,0-3.41-0.25-5.01-0.68l-4.68,4.68l-13.86-13.86l4.77-4.77c-0.39-1.52-0.61-3.11-0.61-4.76v-17.33l-4.16-4.16l4.16-4.16
		v-2.37c0-5.59,2.38-10.62,6.17-14.16l-10.34-10.34l13.86-13.86L1568.53,565.08z M1676.76,518.59l13.86,13.86l-13.86,13.86
		l-13.86-13.86L1676.76,518.59z M1645.84,518.59l13.86,13.86l-13.86,13.86l-13.86-13.86L1645.84,518.59z M1614.91,518.59
		l13.86,13.86l-13.86,13.86l-13.86-13.86L1614.91,518.59z M1583.99,518.59l13.86,13.86l-13.86,13.86l-13.86-13.86L1583.99,518.59z
		 M1522.14,518.59l13.86,13.86l-13.86,13.86l-13.86-13.86L1522.14,518.59z M1522.14,763.5l-13.86-13.86l13.86-13.86l13.86,13.86
		L1522.14,763.5z M1522.14,732.47l-13.86-13.86l13.86-13.86l13.86,13.86L1522.14,732.47z M1522.14,701.45l-13.86-13.86l13.86-13.86
		l13.86,13.86L1522.14,701.45z M1522.14,670.42l-13.86-13.86l13.86-13.86l13.86,13.86L1522.14,670.42z M1522.14,639.39l-13.86-13.86
		l13.86-13.86l13.86,13.86L1522.14,639.39z M1522.14,608.37l-13.86-13.86l13.86-13.86l13.86,13.86L1522.14,608.37z M1522.14,577.34
		l-13.86-13.86l13.86-13.86l13.86,13.86L1522.14,577.34z M1522.14,794.52l-13.86-13.86l13.86-13.86l13.86,13.86L1522.14,794.52z
		 M1676.76,766.8l13.86,13.86l-13.86,13.86l-13.86-13.86L1676.76,766.8z M1645.84,766.8l13.86,13.86l-13.86,13.86l-13.86-13.86
		L1645.84,766.8z M1614.91,766.8l13.86,13.86l-13.86,13.86l-13.86-13.86L1614.91,766.8z M1583.99,766.8l13.86,13.86l-13.86,13.86
		l-13.86-13.86L1583.99,766.8z M1553.06,766.8l13.86,13.86l-13.86,13.86l-13.86-13.86L1553.06,766.8z M1645.84,642.69l13.86,13.86
		l-13.86,13.86l-13.86-13.86L1645.84,642.69z M1614.91,642.69l13.86,13.86l-13.86,13.86l-13.86-13.86L1614.91,642.69z
		 M1583.99,642.69l13.86,13.86l-13.86,13.86l-13.86-13.86L1583.99,642.69z M1553.06,642.69l13.86,13.86l-13.86,13.86l-13.86-13.86
		L1553.06,642.69z M1553.06,518.59l13.86,13.86l-13.86,13.86l-13.86-13.86L1553.06,518.59z"/>
	<linearGradient id="SVGID_15_" gradientUnits="userSpaceOnUse" x1="1863.5305" y1="807.7386" x2="1861.4363" y2="688.3662">
		<stop  offset="0" style="stop-color:#E89DC7"/>
		<stop  offset="1" style="stop-color:#FFFFFF"/>
	</linearGradient>
	<path class="st17" d="M1961.42,718.61l2.74-2.74c-0.41-10.08-1.71-19.13-3.89-27.13c-0.23-0.84-0.45-1.68-0.7-2.5
		c-2.46-8.09-5.87-15.04-10.22-20.81l-4.99,5l-13.86-13.86l4.27-4.27c-5.66-3.44-12.24-6.09-19.7-7.96l12.23,12.23l-13.86,13.86
		l-13.86-13.86l12.87-12.87c-8.14-1.79-17.27-2.69-27.38-2.69h-0.95h-3.21h-27.72h-3.21h-12.57c-6.22,0-11.35-1.1-15.58-2.77
		l-1.17,1.17l-3.3-3.3c-3.88-2.22-6.75-4.89-8.81-7.35c-0.77-0.91-1.49-1.85-2.17-2.81c-0.45-0.63-0.87-1.28-1.27-1.93
		c-3.66-5.88-5.59-12.43-5.59-19.23c0-2.33,0.23-4.63,0.68-6.89l-10.47,10.47l-13.86-13.86l13.86-13.86l11.95,11.95
		c1.52-4.19,3.83-8.16,6.89-11.79c2-2.37,4.76-4.94,8.44-7.11l-10.21-10.22l13.86-13.86l15.46,15.46l15.46-15.46l15.46,15.46
		l15.46-15.46l15.46,15.46l15.46-15.46l15.46,15.46l12.22-12.22c0.59-2.47,0.99-5.31,1.2-8.58l-11.82-11.83l9.11-9.11
		c-3.41-6.59-10.2-9.03-22.03-9.03h-3.16l-0.98,0.98l-0.97-0.98h-28.98l-0.97,0.98l-0.98-0.98h-28.97l-0.97,0.98l-0.98-0.98h-7.03
		c-8.06,0-15.5,0.52-22.37,1.53c-0.44,0.06-0.87,0.13-1.3,0.2c-9.52,1.51-17.88,4.02-25.13,7.59l8.82,8.82l-13.86,13.86
		l-11.17-11.17c-5.66,5.69-10.12,12.6-13.46,20.77l7.57,7.57l-13.22,13.22c-0.21,1.31-0.41,2.63-0.59,3.99l13.81,13.81l-14.91,14.91
		c0.02,0.42,0.04,0.84,0.06,1.25l14.86,14.86l-10.98,10.98c1.48,5.38,3.35,10.28,5.62,14.69l6.96,6.96l15.46-15.46l13.86,13.86
		l-15.51,15.51l2.8,2.8c6.22,3.2,13.42,5.55,21.54,7.08l8.23-8.23l10.21,10.21c1.96,0.07,3.94,0.12,5.98,0.12h4.4l10.34-10.33
		l10.33,10.33h10.25l10.34-10.33l11.25,11.25c2.37,0.49,4.53,1.14,6.5,1.93l13.18-13.18l13.86,13.86l-11.67,11.67
		c2.96,4.25,4.98,8.86,6,13.67l5.68,5.68l-5.07,5.07c-0.53,5.48-2.32,10.75-5.29,15.59l10.36,10.36l-13.86,13.86l-10.88-10.88
		c-3.49,1.7-7.69,3.02-12.73,3.57l-7.31,7.31l-7.03-7.03h-16.87l-7.03,7.03l-7.03-7.03h-16.87l-7.03,7.03l-7.03-7.03h-16.87
		l-7.03,7.03l-6.83-6.83c-9.81,0.8-16.21,4.41-18.88,15.34l8.65,8.65l-9.86,9.86c0.87,11.78,5.04,17.45,14.83,19.4l12.1-12.1
		l12.91,12.91h5.1l12.91-12.91l12.91,12.91h5.1l12.91-12.91l12.91,12.91h5.1l12.91-12.91l12.22,12.22c2.55-0.24,5.01-0.56,7.41-0.93
		l11.29-11.29l6.77,6.77c8.39-3.07,15.52-7.31,21.44-12.78l-11.16-11.16l13.86-13.86l9.3,9.3c3.92-7.34,6.74-15.9,8.48-25.74
		l-0.72-0.72l1.03-1.03c1.25-7.74,1.88-16.24,1.88-25.54c0-0.53-0.02-1.04-0.02-1.57L1961.42,718.61z M1913.44,518.59l13.86,13.86
		l-13.86,13.86l-13.86-13.86L1913.44,518.59z M1882.51,518.59l13.86,13.86l-13.86,13.86l-13.86-13.86L1882.51,518.59z
		 M1851.59,518.59l13.86,13.86l-13.86,13.86l-13.86-13.86L1851.59,518.59z M1820.66,518.59l13.86,13.86l-13.86,13.86l-13.86-13.86
		L1820.66,518.59z M1789.74,549.62l13.86,13.86l-13.86,13.86l-13.86-13.86L1789.74,549.62z M1789.74,639.39l-13.86-13.86
		l13.86-13.86l13.86,13.86L1789.74,639.39z M1820.66,670.42l-13.86-13.86l13.86-13.86l13.86,13.86L1820.66,670.42z M1851.59,670.42
		l-13.86-13.86l13.86-13.86l13.86,13.86L1851.59,670.42z M1882.51,670.42l-13.86-13.86l13.86-13.86l13.86,13.86L1882.51,670.42z
		 M1944.36,732.47l-13.86-13.86l13.86-13.86l13.86,13.86L1944.36,732.47z M1944.36,673.72l13.86,13.86l-13.86,13.86l-13.86-13.86
		L1944.36,673.72z M1789.74,794.52l-13.86-13.86l13.86-13.86l13.86,13.86L1789.74,794.52z M1820.66,794.52l-13.86-13.86l13.86-13.86
		l13.86,13.86L1820.66,794.52z M1851.59,794.52l-13.86-13.86l13.86-13.86l13.86,13.86L1851.59,794.52z M1882.51,794.52l-13.86-13.86
		l13.86-13.86l13.86,13.86L1882.51,794.52z M1913.44,794.52l-13.86-13.86l13.86-13.86l13.86,13.86L1913.44,794.52z M1944.36,763.5
		l-13.86-13.86l13.86-13.86l13.86,13.86L1944.36,763.5z"/>
	<linearGradient id="SVGID_16_" gradientUnits="userSpaceOnUse" x1="2120.2112" y1="803.2355" x2="2118.1169" y2="683.863">
		<stop  offset="0" style="stop-color:#E89DC7"/>
		<stop  offset="1" style="stop-color:#FFFFFF"/>
	</linearGradient>
	<path class="st18" d="M2208.66,532.45l7.58-7.58c-0.76-1.12-1.62-2.21-2.57-3.27c-2.8-3.12-7.92-7.29-19.75-7.29h-1.34l-0.97,0.98
		l-0.98-0.98h-28.97l-0.98,0.98l-0.97-0.98h-28.98l-0.97,0.98l-0.97-0.98h-28.98l-0.97,0.98l-0.98-0.98h-28.97l-0.98,0.98
		l-0.97-0.98h-28.97l-0.98,0.98l-0.94-0.94c-10.78,0.34-15.59,4.27-18.27,7.26c-1.44,1.61-2.66,3.28-3.67,5.02l5.82,5.82l-9.52,9.52
		c0.1,7.69,2.44,13.84,7.35,19.31c0.15,0.17,0.31,0.34,0.48,0.52l0.76,0.76c0.78,0.74,1.71,1.5,2.82,2.21l15.16-15.16l15.46,15.46
		l15.46-15.46l13.86,13.86l-5.97,5.97c7.9,2.45,13.64,9.82,13.64,18.52v2.07l9.4-9.4l13.86,13.86l-13.86,13.86l-9.4-9.4v22.1
		l9.4-9.4l13.86,13.86l-13.86,13.86l-9.4-9.4v22.1l9.4-9.4l13.86,13.86l-13.86,13.86l-9.4-9.4v22.1l9.4-9.4l13.86,13.86
		l-13.86,13.86l-9.4-9.4v22.1l9.4-9.4l13.86,13.86l-13.86,13.86l-9.4-9.4v22.1l9.4-9.4l13.86,13.86l-13.86,13.86l-9.4-9.4v22.1
		l9.4-9.4l13.86,13.86l-13.86,13.86l-9.37-9.37c0.27,9.19,2.95,13.84,5.49,16.54l3.88-3.88l11.97,11.97
		c1.66,0.25,3.39,0.38,5.21,0.38c0.48,0,0.95-0.01,1.42-0.02l12.33-12.33l5.78,5.78c0.22-0.18,0.43-0.35,0.65-0.53
		c2.98-2.56,6.96-7.37,6.96-19.47v-2.46l-13.38,13.38l-13.86-13.86l13.86-13.86l13.38,13.38v-30.07l-13.38,13.38l-13.86-13.86
		l13.86-13.86l13.38,13.38v-30.07l-13.38,13.38l-13.86-13.86l13.86-13.86l13.38,13.38v-30.07l-13.38,13.38l-13.86-13.86l13.86-13.86
		l13.38,13.38v-30.07l-13.38,13.38l-13.86-13.86l13.86-13.86l13.38,13.38v-30.07l-13.38,13.38l-13.86-13.86l13.86-13.86l13.38,13.38
		v-30.07l-13.38,13.38l-13.86-13.86l13.86-13.86l13.38,13.38v-6.05c0-7.62,4.41-14.2,10.81-17.37l-7.13-7.13l13.86-13.86
		l15.46,15.46l15.46-15.46l15.46,15.46l11.76-11.76c1.12-2.66,1.81-5.51,2.09-8.62L2208.66,532.45z M2129.75,518.59l13.86,13.86
		l-13.86,13.86l-13.86-13.86L2129.75,518.59z M2098.83,518.59l13.86,13.86l-13.86,13.86l-13.86-13.86L2098.83,518.59z
		 M2036.98,546.32l-13.86-13.86l13.86-13.86l13.86,13.86L2036.98,546.32z M2067.9,546.32l-13.86-13.86l13.86-13.86l13.86,13.86
		L2067.9,546.32z M2098.83,577.34l-13.86-13.86l13.86-13.86l13.86,13.86L2098.83,577.34z M2129.75,577.34l-13.86-13.86l13.86-13.86
		l13.86,13.86L2129.75,577.34z M2160.67,546.32l-13.86-13.86l13.86-13.86l13.86,13.86L2160.67,546.32z M2191.6,546.32l-13.86-13.86
		l13.86-13.86l13.86,13.86L2191.6,546.32z"/>
</g>
<g>
	<path class="st0" d="M954.83,618.07c-5.84-17.96-21.07-30.81-39.76-33.52l-25.41-3.69l-11.36-23.03
		c-8.36-16.94-25.28-27.46-44.17-27.46s-35.81,10.52-44.17,27.46l-11.36,23.03l-25.41,3.69c-18.69,2.72-33.93,15.56-39.76,33.52
		c-5.84,17.96-1.06,37.31,12.47,50.49l18.39,17.92l-4.34,25.31c-3.19,18.61,4.32,37.07,19.59,48.17c8.63,6.27,18.73,9.46,28.9,9.46
		c7.83,0,15.7-1.89,22.97-5.71l22.73-11.95l22.73,11.95c7.08,3.72,15.02,5.69,22.95,5.69c10.42,0,20.43-3.27,28.92-9.44
		c15.28-11.1,22.79-29.56,19.59-48.17l-4.34-25.31l18.39-17.92C955.89,655.38,960.67,636.04,954.83,618.07z"/>
</g>
<g>
	<path class="st2" d="M936.39,624.07c-3.54-10.89-12.78-18.68-24.11-20.33l-35.5-5.16l-15.88-32.17
		c-5.07-10.27-15.33-16.65-26.78-16.65s-21.71,6.38-26.78,16.65l-15.88,32.17l-35.5,5.16c-11.33,1.65-20.57,9.44-24.11,20.33
		s-0.64,22.62,7.56,30.61l25.69,25.04l-6.06,35.36c-1.94,11.29,2.62,22.48,11.88,29.21c9.26,6.73,21.31,7.6,31.45,2.27l31.75-16.69
		l31.75,16.69c4.41,2.32,9.18,3.46,13.93,3.46c6.17,0,12.29-1.93,17.53-5.74c9.26-6.73,13.82-17.92,11.88-29.21l-6.06-35.36
		l25.69-25.04C937.03,646.69,939.93,634.96,936.39,624.07z"/>
</g>
<g>
	<path class="st1" d="M847.87,572.85l17.14,34.73c1.33,2.69,3.89,4.55,6.86,4.98l38.33,5.57c12.57,1.83,17.58,17.27,8.49,26.13
		l-27.73,27.03c-2.15,2.09-3.13,5.11-2.62,8.07l6.55,38.17c2.15,12.52-10.99,22.06-22.23,16.15l-34.28-18.02
		c-2.65-1.4-5.83-1.4-8.48,0l-34.28,18.02c-11.24,5.91-24.38-3.64-22.23-16.15l6.55-38.17c0.51-2.96-0.47-5.97-2.62-8.07
		l-27.73-27.03c-9.09-8.86-4.08-24.31,8.49-26.13l38.33-5.57c2.97-0.43,5.53-2.3,6.86-4.98l17.14-34.73
		C826.01,561.46,842.25,561.46,847.87,572.85z"/>
</g>
<g>
	<linearGradient id="SVGID_17_" gradientUnits="userSpaceOnUse" x1="278.7734" y1="292.9735" x2="278.7734" y2="540.0954">
		<stop  offset="0" style="stop-color:#E83E9F"/>
		<stop  offset="0.5" style="stop-color:#470932"/>
		<stop  offset="1" style="stop-color:#E83E9F"/>
	</linearGradient>
	<polygon class="st19" points="278.77,573.25 261.66,556.13 278.77,539.02 295.89,556.13 	"/>
	<linearGradient id="SVGID_18_" gradientUnits="userSpaceOnUse" x1="325.546" y1="259.2969" x2="314.0276" y2="531.5498">
		<stop  offset="0" style="stop-color:#E83E9F"/>
		<stop  offset="1" style="stop-color:#FFFFFF"/>
	</linearGradient>
	<polygon class="st20" points="312.99,573.25 295.88,556.13 312.99,539.02 330.1,556.13 	"/>
	<linearGradient id="SVGID_19_" gradientUnits="userSpaceOnUse" x1="359.6989" y1="260.7418" x2="348.1805" y2="532.9948">
		<stop  offset="0" style="stop-color:#E83E9F"/>
		<stop  offset="1" style="stop-color:#FFFFFF"/>
	</linearGradient>
	<polygon class="st21" points="347.2,573.25 330.09,556.13 347.2,539.02 364.31,556.13 	"/>
	<linearGradient id="SVGID_20_" gradientUnits="userSpaceOnUse" x1="278.7734" y1="292.9735" x2="278.7734" y2="540.0954">
		<stop  offset="0" style="stop-color:#E83E9F"/>
		<stop  offset="0.5" style="stop-color:#470932"/>
		<stop  offset="1" style="stop-color:#E83E9F"/>
	</linearGradient>
	<polygon class="st22" points="278.77,540.58 261.66,523.47 278.77,506.36 295.89,523.47 	"/>
	<linearGradient id="SVGID_21_" gradientUnits="userSpaceOnUse" x1="324.1666" y1="259.2385" x2="312.6482" y2="531.4915">
		<stop  offset="0" style="stop-color:#E83E9F"/>
		<stop  offset="1" style="stop-color:#FFFFFF"/>
	</linearGradient>
	<polygon class="st23" points="312.99,540.58 295.88,523.47 312.99,506.36 330.1,523.47 	"/>
	<linearGradient id="SVGID_22_" gradientUnits="userSpaceOnUse" x1="358.3195" y1="260.6834" x2="346.8011" y2="532.9363">
		<stop  offset="0" style="stop-color:#E83E9F"/>
		<stop  offset="1" style="stop-color:#FFFFFF"/>
	</linearGradient>
	<polygon class="st24" points="347.2,540.58 330.09,523.47 347.2,506.36 364.31,523.47 	"/>
	<linearGradient id="SVGID_23_" gradientUnits="userSpaceOnUse" x1="278.7734" y1="292.9735" x2="278.7734" y2="540.0954">
		<stop  offset="0" style="stop-color:#E83E9F"/>
		<stop  offset="0.5" style="stop-color:#470932"/>
		<stop  offset="1" style="stop-color:#E83E9F"/>
	</linearGradient>
	<polygon class="st25" points="278.77,507.92 261.66,490.81 278.77,473.7 295.89,490.81 	"/>
	<linearGradient id="SVGID_24_" gradientUnits="userSpaceOnUse" x1="322.7872" y1="259.1801" x2="311.2688" y2="531.433">
		<stop  offset="0" style="stop-color:#E83E9F"/>
		<stop  offset="1" style="stop-color:#FFFFFF"/>
	</linearGradient>
	<polygon class="st26" points="312.99,507.92 295.88,490.81 312.99,473.7 330.1,490.81 	"/>
	<linearGradient id="SVGID_25_" gradientUnits="userSpaceOnUse" x1="356.9402" y1="260.6251" x2="345.4218" y2="532.878">
		<stop  offset="0" style="stop-color:#E83E9F"/>
		<stop  offset="1" style="stop-color:#FFFFFF"/>
	</linearGradient>
	<polygon class="st27" points="347.2,507.92 330.09,490.81 347.2,473.7 364.31,490.81 	"/>
	<linearGradient id="SVGID_26_" gradientUnits="userSpaceOnUse" x1="278.7734" y1="292.9735" x2="278.7734" y2="540.0954">
		<stop  offset="0" style="stop-color:#E83E9F"/>
		<stop  offset="0.5" style="stop-color:#470932"/>
		<stop  offset="1" style="stop-color:#E83E9F"/>
	</linearGradient>
	<polygon class="st28" points="278.77,475.26 261.66,458.15 278.77,441.04 295.89,458.15 	"/>
	<linearGradient id="SVGID_27_" gradientUnits="userSpaceOnUse" x1="321.4078" y1="259.1218" x2="309.8894" y2="531.3747">
		<stop  offset="0" style="stop-color:#E83E9F"/>
		<stop  offset="1" style="stop-color:#FFFFFF"/>
	</linearGradient>
	<polygon class="st29" points="312.99,475.26 295.88,458.15 312.99,441.04 330.1,458.15 	"/>
	<linearGradient id="SVGID_28_" gradientUnits="userSpaceOnUse" x1="355.5608" y1="260.5667" x2="344.0424" y2="532.8196">
		<stop  offset="0" style="stop-color:#E83E9F"/>
		<stop  offset="1" style="stop-color:#FFFFFF"/>
	</linearGradient>
	<polygon class="st30" points="347.2,475.26 330.09,458.15 347.2,441.04 364.31,458.15 	"/>
	<linearGradient id="SVGID_29_" gradientUnits="userSpaceOnUse" x1="278.7734" y1="292.9735" x2="278.7734" y2="540.0954">
		<stop  offset="0" style="stop-color:#E83E9F"/>
		<stop  offset="0.5" style="stop-color:#470932"/>
		<stop  offset="1" style="stop-color:#E83E9F"/>
	</linearGradient>
	<polygon class="st31" points="278.77,442.6 261.66,425.49 278.77,408.37 295.89,425.49 	"/>
	<linearGradient id="SVGID_30_" gradientUnits="userSpaceOnUse" x1="320.0284" y1="259.0634" x2="308.51" y2="531.3163">
		<stop  offset="0" style="stop-color:#E83E9F"/>
		<stop  offset="1" style="stop-color:#FFFFFF"/>
	</linearGradient>
	<polygon class="st32" points="312.99,442.6 295.88,425.49 312.99,408.37 330.1,425.49 	"/>
	<linearGradient id="SVGID_31_" gradientUnits="userSpaceOnUse" x1="354.1814" y1="260.5084" x2="342.663" y2="532.7613">
		<stop  offset="0" style="stop-color:#E83E9F"/>
		<stop  offset="1" style="stop-color:#FFFFFF"/>
	</linearGradient>
	<polygon class="st33" points="347.2,442.6 330.09,425.49 347.2,408.37 364.31,425.49 	"/>
	<linearGradient id="SVGID_32_" gradientUnits="userSpaceOnUse" x1="278.7734" y1="292.9735" x2="278.7734" y2="540.0954">
		<stop  offset="0" style="stop-color:#E83E9F"/>
		<stop  offset="0.5" style="stop-color:#470932"/>
		<stop  offset="1" style="stop-color:#E83E9F"/>
	</linearGradient>
	<polygon class="st34" points="278.77,409.94 261.66,392.82 278.77,375.71 295.89,392.82 	"/>
	<linearGradient id="SVGID_33_" gradientUnits="userSpaceOnUse" x1="318.649" y1="259.0051" x2="307.1307" y2="531.258">
		<stop  offset="0" style="stop-color:#E83E9F"/>
		<stop  offset="1" style="stop-color:#FFFFFF"/>
	</linearGradient>
	<polygon class="st35" points="312.99,409.94 295.88,392.82 312.99,375.71 330.1,392.82 	"/>
	<linearGradient id="SVGID_34_" gradientUnits="userSpaceOnUse" x1="352.802" y1="260.45" x2="341.2836" y2="532.7029">
		<stop  offset="0" style="stop-color:#E83E9F"/>
		<stop  offset="1" style="stop-color:#FFFFFF"/>
	</linearGradient>
	<polygon class="st36" points="347.2,409.94 330.09,392.82 347.2,375.71 364.31,392.82 	"/>
	<linearGradient id="SVGID_35_" gradientUnits="userSpaceOnUse" x1="278.7734" y1="292.9735" x2="278.7734" y2="540.0954">
		<stop  offset="0" style="stop-color:#E83E9F"/>
		<stop  offset="0.5" style="stop-color:#470932"/>
		<stop  offset="1" style="stop-color:#E83E9F"/>
	</linearGradient>
	<polygon class="st37" points="278.77,377.27 261.66,360.16 278.77,343.05 295.89,360.16 	"/>
	<linearGradient id="SVGID_36_" gradientUnits="userSpaceOnUse" x1="317.2697" y1="258.9467" x2="305.7513" y2="531.1996">
		<stop  offset="0" style="stop-color:#E83E9F"/>
		<stop  offset="1" style="stop-color:#FFFFFF"/>
	</linearGradient>
	<polygon class="st38" points="312.99,377.27 295.88,360.16 312.99,343.05 330.1,360.16 	"/>
	<linearGradient id="SVGID_37_" gradientUnits="userSpaceOnUse" x1="351.4226" y1="260.3917" x2="339.9042" y2="532.6446">
		<stop  offset="0" style="stop-color:#E83E9F"/>
		<stop  offset="1" style="stop-color:#FFFFFF"/>
	</linearGradient>
	<polygon class="st39" points="347.2,377.27 330.09,360.16 347.2,343.05 364.31,360.16 	"/>
	<linearGradient id="SVGID_38_" gradientUnits="userSpaceOnUse" x1="278.7734" y1="292.9735" x2="278.7734" y2="540.0954">
		<stop  offset="0" style="stop-color:#E83E9F"/>
		<stop  offset="0.5" style="stop-color:#470932"/>
		<stop  offset="1" style="stop-color:#E83E9F"/>
	</linearGradient>
	<polygon class="st40" points="278.77,349.16 261.66,332.04 278.77,314.93 295.89,332.04 	"/>
	<linearGradient id="SVGID_39_" gradientUnits="userSpaceOnUse" x1="316.0822" y1="258.8965" x2="304.5638" y2="531.1494">
		<stop  offset="0" style="stop-color:#E83E9F"/>
		<stop  offset="1" style="stop-color:#FFFFFF"/>
	</linearGradient>
	<polygon class="st41" points="312.99,349.16 295.88,332.04 312.99,314.93 330.1,332.04 	"/>
	<linearGradient id="SVGID_40_" gradientUnits="userSpaceOnUse" x1="350.2351" y1="260.3414" x2="338.7167" y2="532.5944">
		<stop  offset="0" style="stop-color:#E83E9F"/>
		<stop  offset="1" style="stop-color:#FFFFFF"/>
	</linearGradient>
	<polygon class="st42" points="347.2,349.16 330.09,332.04 347.2,314.93 364.31,332.04 	"/>
	<linearGradient id="SVGID_41_" gradientUnits="userSpaceOnUse" x1="278.7734" y1="292.9735" x2="278.7734" y2="540.0954">
		<stop  offset="0" style="stop-color:#E83E9F"/>
		<stop  offset="0.5" style="stop-color:#470932"/>
		<stop  offset="1" style="stop-color:#E83E9F"/>
	</linearGradient>
	<polygon class="st43" points="278.77,321.04 261.66,303.93 278.77,286.82 295.89,303.93 	"/>
	<linearGradient id="SVGID_42_" gradientUnits="userSpaceOnUse" x1="314.8948" y1="258.8463" x2="303.3764" y2="531.0992">
		<stop  offset="0" style="stop-color:#E83E9F"/>
		<stop  offset="1" style="stop-color:#FFFFFF"/>
	</linearGradient>
	<polygon class="st44" points="312.99,321.04 295.88,303.93 312.99,286.82 330.1,303.93 	"/>
	<linearGradient id="SVGID_43_" gradientUnits="userSpaceOnUse" x1="349.0477" y1="260.2912" x2="337.5293" y2="532.5441">
		<stop  offset="0" style="stop-color:#E83E9F"/>
		<stop  offset="1" style="stop-color:#FFFFFF"/>
	</linearGradient>
	<polygon class="st45" points="347.2,321.04 330.09,303.93 347.2,286.82 364.31,303.93 	"/>
	<linearGradient id="SVGID_44_" gradientUnits="userSpaceOnUse" x1="278.7734" y1="292.9735" x2="278.7734" y2="540.0954">
		<stop  offset="0" style="stop-color:#E83E9F"/>
		<stop  offset="0.5" style="stop-color:#470932"/>
		<stop  offset="1" style="stop-color:#E83E9F"/>
	</linearGradient>
	<polygon class="st46" points="278.77,292.92 261.66,275.81 278.77,258.7 295.89,275.81 	"/>
	<linearGradient id="SVGID_45_" gradientUnits="userSpaceOnUse" x1="313.7073" y1="258.796" x2="302.1889" y2="531.049">
		<stop  offset="0" style="stop-color:#E83E9F"/>
		<stop  offset="1" style="stop-color:#FFFFFF"/>
	</linearGradient>
	<polygon class="st47" points="312.99,292.92 295.88,275.81 312.99,258.7 330.1,275.81 	"/>
	<linearGradient id="SVGID_46_" gradientUnits="userSpaceOnUse" x1="347.8602" y1="260.2409" x2="336.3419" y2="532.4938">
		<stop  offset="0" style="stop-color:#E83E9F"/>
		<stop  offset="1" style="stop-color:#FFFFFF"/>
	</linearGradient>
	<polygon class="st48" points="347.2,292.92 330.09,275.81 347.2,258.7 364.31,275.81 	"/>
</g>
<circle class="st0" cx="311.53" cy="711.69" r="29.09"/>
<ellipse class="st0" cx="311.53" cy="781.01" rx="36.84" ry="25.69"/>
<circle class="st2" cx="311.53" cy="711.69" r="15.51"/>
<ellipse class="st2" cx="311.53" cy="781.01" rx="24.24" ry="14.89"/>
<g>
	<path class="st0" d="M455.15,393.52c0,4.65-1.42,8.19-4.27,10.63c-2.85,2.44-6.25,3.66-10.19,3.66c-3.83,0-7.17-1.22-10.02-3.66
		c-2.85-2.44-4.27-5.98-4.27-10.63v-75.28c0-4.64,1.42-8.19,4.27-10.63c2.84-2.44,6.19-3.66,10.02-3.66h0.7
		c5.11,0,8.77,2.15,10.98,6.45l26.14,39.55v-31.71c0-4.64,1.42-8.19,4.27-10.63c2.85-2.44,6.19-3.66,10.02-3.66
		c3.95,0,7.35,1.22,10.19,3.66c2.85,2.44,4.27,5.98,4.27,10.63v75.28c0,4.65-1.42,8.19-4.27,10.63c-2.85,2.44-6.25,3.66-10.19,3.66
		c-1.98,0-3.66-0.23-5.05-0.7c-1.39-0.46-2.59-1.04-3.57-1.74c-0.99-0.7-1.77-1.39-2.35-2.09c-0.58-0.7-1.05-1.28-1.39-1.74
		l-25.27-37.64V393.52z"/>
	<path class="st0" d="M517.53,355.54c0-7.32,1.39-14.23,4.18-20.74c2.79-6.5,6.56-12.17,11.33-16.99c4.76-4.82,10.4-8.62,16.9-11.41
		c6.5-2.79,13.42-4.18,20.74-4.18c7.32,0,14.23,1.39,20.74,4.18c6.5,2.79,12.17,6.59,16.99,11.41c4.82,4.82,8.63,10.49,11.41,16.99
		c2.79,6.51,4.18,13.42,4.18,20.74c0,7.32-1.39,14.23-4.18,20.74c-2.79,6.51-6.59,12.14-11.41,16.9
		c-4.82,4.77-10.48,8.54-16.99,11.33c-6.51,2.79-13.42,4.18-20.74,4.18c-7.32,0-14.23-1.39-20.74-4.18
		c-6.51-2.79-12.14-6.56-16.9-11.33c-4.76-4.76-8.54-10.39-11.33-16.9C518.92,369.77,517.53,362.85,517.53,355.54z M546.8,355.88
		c0,3.37,0.61,6.51,1.83,9.41c1.22,2.91,2.93,5.46,5.14,7.67c2.21,2.21,4.76,3.92,7.67,5.14c2.9,1.22,6.04,1.83,9.41,1.83
		c3.37,0,6.53-0.61,9.5-1.83c2.96-1.22,5.52-2.93,7.67-5.14c2.15-2.21,3.86-4.76,5.14-7.67c1.28-2.9,1.92-6.04,1.92-9.41
		c0-3.37-0.64-6.53-1.92-9.5c-1.28-2.96-2.99-5.52-5.14-7.67c-2.15-2.15-4.7-3.86-7.67-5.14c-2.96-1.28-6.13-1.92-9.5-1.92
		c-3.37,0-6.51,0.64-9.41,1.92c-2.91,1.28-5.46,2.99-7.67,5.14c-2.21,2.15-3.92,4.7-5.14,7.67
		C547.41,349.35,546.8,352.52,546.8,355.88z"/>
	<path class="st0" d="M670,371.22c-2.9-3.95-4.36-8.13-4.36-12.55c0-2.79,0.52-4.91,1.57-6.36c1.04-1.45,2.38-2.55,4.01-3.31
		c1.62-0.75,3.37-1.28,5.23-1.57c1.86-0.29,3.6-0.7,5.23-1.22c1.62-0.52,3.02-1.31,4.18-2.35c1.16-1.05,1.8-2.67,1.92-4.88
		c0-5.23-3.02-7.84-9.06-7.84H663.2v62.03c0,9.88-4.82,14.81-14.46,14.81c-4.88,0-8.51-1.25-10.89-3.75
		c-2.38-2.5-3.57-6.07-3.57-10.72v-75.28c0-9.64,4.64-14.46,13.94-14.46h31.02c6.04,0,11.3,0.9,15.77,2.7
		c4.47,1.8,8.16,4.18,11.07,7.14c2.9,2.96,5.05,6.33,6.45,10.11c1.4,3.78,2.09,7.64,2.09,11.59c0,5.93-1.48,11.5-4.44,16.73
		c-2.96,5.23-7.35,9.18-13.16,11.85l12.37,19.69c1.86,3.02,2.79,6.1,2.79,9.24c0,2.09-0.41,4.07-1.22,5.92
		c-0.81,1.86-1.89,3.49-3.22,4.88c-1.34,1.39-2.88,2.47-4.62,3.22c-1.74,0.76-3.54,1.13-5.4,1.13c-2.09,0-4.16-0.61-6.19-1.83
		c-2.03-1.22-3.81-3.16-5.31-5.84L670,371.22z"/>
	<path class="st0" d="M775.59,393.52c0,4.65-1.42,8.19-4.27,10.63c-2.85,2.44-6.25,3.66-10.19,3.66c-3.83,0-7.17-1.22-10.02-3.66
		c-2.85-2.44-4.27-5.98-4.27-10.63v-60.81h-10.11c-4.53,0-8.08-1.42-10.63-4.27c-2.56-2.85-3.83-6.24-3.83-10.19
		c0-3.95,1.28-7.35,3.83-10.19c2.55-2.85,6.1-4.27,10.63-4.27h48.62c4.53,0,8.07,1.42,10.63,4.27c2.55,2.85,3.83,6.25,3.83,10.19
		c0,3.95-1.28,7.35-3.83,10.19c-2.56,2.85-6.1,4.27-10.63,4.27h-9.76V393.52z"/>
	<path class="st0" d="M889.55,393.52c0,4.65-1.42,8.19-4.27,10.63c-2.85,2.44-6.25,3.66-10.19,3.66c-3.83,0-7.17-1.22-10.02-3.66
		c-2.85-2.44-4.27-5.98-4.27-10.63v-23.18h-23.35v23.18c0,4.65-1.42,8.19-4.27,10.63c-2.85,2.44-6.25,3.66-10.19,3.66
		c-3.83,0-7.17-1.22-10.02-3.66c-2.85-2.44-4.27-5.98-4.27-10.63v-75.28c0-4.64,1.42-8.19,4.27-10.63
		c2.84-2.44,6.19-3.66,10.02-3.66c3.95,0,7.35,1.22,10.19,3.66c2.85,2.44,4.27,5.98,4.27,10.63v23.17h23.35v-23.17
		c0-4.64,1.42-8.19,4.27-10.63c2.85-2.44,6.19-3.66,10.02-3.66c3.95,0,7.35,1.22,10.19,3.66c2.85,2.44,4.27,5.98,4.27,10.63V393.52z
		"/>
	<path class="st0" d="M1008.74,313.02c0.93-3.49,2.5-6.01,4.7-7.58c2.21-1.57,4.64-2.35,7.32-2.35c1.74,0,3.48,0.32,5.23,0.96
		c1.74,0.64,3.31,1.57,4.7,2.79c1.39,1.22,2.53,2.7,3.4,4.44c0.87,1.74,1.31,3.66,1.31,5.75c0,1.51-0.29,3.25-0.87,5.23
		l-24.57,76.15c-1.05,3.37-2.87,5.87-5.49,7.49c-2.61,1.63-5.37,2.44-8.28,2.44c-3.02,0-5.84-0.84-8.45-2.53
		c-2.61-1.68-4.5-4.15-5.66-7.41l-13.24-38.34l-12.37,38.34c-1.04,3.37-2.87,5.87-5.49,7.49c-2.61,1.63-5.37,2.44-8.28,2.44
		c-3.02,0-5.84-0.84-8.45-2.53c-2.61-1.68-4.5-4.15-5.66-7.41l-26.31-76.5c-0.58-1.97-0.87-3.66-0.87-5.05
		c0-2.09,0.44-3.98,1.31-5.66c0.87-1.68,2-3.14,3.4-4.36c1.39-1.22,2.96-2.15,4.71-2.79c1.74-0.64,3.54-0.96,5.4-0.96
		c2.67,0,5.14,0.78,7.41,2.35c2.27,1.57,3.86,4.1,4.79,7.58l14.11,50.88l12.72-50.88c0.93-3.37,2.64-5.93,5.14-7.67
		c2.5-1.74,5.2-2.61,8.1-2.61c2.9,0,5.63,0.87,8.19,2.61c2.55,1.74,4.3,4.3,5.23,7.67l14.11,50.88L1008.74,313.02z"/>
	<path class="st0" d="M1059.27,407.98c-9.53,0-14.29-4.82-14.29-14.46v-75.28c0-9.64,4.76-14.46,14.29-14.46h48.79
		c4.53,0,8.07,1.42,10.63,4.27c2.55,2.85,3.83,6.25,3.83,10.19c0,3.95-1.28,7.35-3.83,10.19c-2.56,2.85-6.1,4.27-10.63,4.27h-34.5
		v8.71h27.53c4.53,0,8.07,1.42,10.63,4.27c2.55,2.85,3.83,6.24,3.83,10.19c0,3.95-1.28,7.35-3.83,10.19
		c-2.56,2.85-6.1,4.27-10.63,4.27h-27.53v8.71h34.5c4.53,0,8.07,1.42,10.63,4.27c2.55,2.85,3.83,6.25,3.83,10.19
		c0,3.95-1.28,7.35-3.83,10.19c-2.56,2.85-6.1,4.27-10.63,4.27H1059.27z"/>
	<path class="st0" d="M1209.64,374.7c0,22.19-10.8,33.28-32.41,33.28h-28.58c-9.18,0-13.77-4.64-13.77-13.94v-0.52
		c0.23-9.64,4.88-14.46,13.94-14.46h29.97c1.97,0,3.42-0.55,4.36-1.66c0.93-1.1,1.39-2.29,1.39-3.57c0-1.28-0.47-2.47-1.39-3.57
		c-0.93-1.1-2.38-1.65-4.36-1.65h-14.81c-20.45,0-30.67-10.51-30.67-31.54c0-22.19,10.92-33.28,32.76-33.28h23
		c9.18,0,13.77,4.65,13.77,13.94v0.52c-0.23,9.64-4.88,14.46-13.94,14.46h-24.74c-1.98,0-3.43,0.55-4.36,1.66
		c-0.93,1.1-1.4,2.29-1.4,3.57c0,1.28,0.46,2.47,1.4,3.57c0.93,1.11,2.38,1.66,4.36,1.66h14.81
		C1199.42,343.16,1209.64,353.68,1209.64,374.7z"/>
	<path class="st0" d="M1270.46,393.52c0,4.65-1.42,8.19-4.27,10.63c-2.85,2.44-6.25,3.66-10.19,3.66c-3.83,0-7.17-1.22-10.02-3.66
		c-2.85-2.44-4.27-5.98-4.27-10.63v-60.81h-10.11c-4.53,0-8.08-1.42-10.63-4.27c-2.56-2.85-3.83-6.24-3.83-10.19
		c0-3.95,1.28-7.35,3.83-10.19c2.55-2.85,6.1-4.27,10.63-4.27h48.62c4.53,0,8.07,1.42,10.63,4.27c2.55,2.85,3.83,6.25,3.83,10.19
		c0,3.95-1.28,7.35-3.83,10.19c-2.56,2.85-6.1,4.27-10.63,4.27h-9.76V393.52z"/>
</g>
<path class="st0" d="M433.15,313.11l-39.19-21.43l-21.43-39.19c-2.64-4.83-7.71-7.84-13.22-7.84c-5.51,0-10.58,3-13.22,7.84
	l-21.43,39.19l-39.19,21.43c-4.83,2.64-7.84,7.71-7.84,13.22s3,10.58,7.84,13.22l39.19,21.43l21.43,39.19
	c2.64,4.83,7.71,7.84,13.22,7.84c5.51,0,10.58-3,13.22-7.84l21.43-39.19l39.19-21.43c4.83-2.64,7.84-7.71,7.84-13.22
	S437.98,315.76,433.15,313.11z"/>
<path class="st0" d="M2254.57,744.18l-39.19-21.43l-21.43-39.19c-2.64-4.83-7.71-7.84-13.22-7.84c-5.51,0-10.58,3-13.22,7.84
	l-21.43,39.19l-39.19,21.43c-4.83,2.64-7.84,7.71-7.84,13.22s3,10.58,7.84,13.22l39.19,21.43l21.43,39.19
	c2.64,4.83,7.71,7.84,13.22,7.84c5.51,0,10.58-3,13.22-7.84l21.43-39.19l39.19-21.43c4.83-2.64,7.84-7.71,7.84-13.22
	S2259.4,746.83,2254.57,744.18z"/>
<path class="st0" d="M1538.39,596.56l-39.19-21.43l-21.43-39.19c-2.64-4.83-7.71-7.84-13.22-7.84s-10.58,3-13.22,7.84l-21.43,39.19
	l-39.19,21.43c-4.83,2.64-7.84,7.71-7.84,13.22c0,5.51,3,10.58,7.84,13.22l39.19,21.43l21.43,39.19c2.64,4.83,7.71,7.84,13.22,7.84
	s10.58-3,13.22-7.84l21.43-39.19l39.19-21.43c4.83-2.64,7.84-7.71,7.84-13.22C1546.23,604.27,1543.23,599.2,1538.39,596.56z"/>
<path class="st0" d="M739.04,675.55l-39.19-21.43l-21.43-39.19c-2.64-4.83-7.71-7.84-13.22-7.84c-5.51,0-10.58,3-13.22,7.84
	l-21.43,39.19l-39.19,21.43c-4.83,2.64-7.84,7.71-7.84,13.22c0,5.51,3,10.58,7.84,13.22l39.19,21.43l21.43,39.19
	c2.64,4.83,7.71,7.84,13.22,7.84c5.51,0,10.58-3,13.22-7.84l21.43-39.19l39.19-21.43c4.83-2.64,7.84-7.71,7.84-13.22
	C746.88,683.26,743.87,678.19,739.04,675.55z"/>
<path class="st0" d="M309.62,522.85l-27.51-15.05l-15.05-27.51c-2.64-4.83-7.71-7.84-13.22-7.84s-10.58,3-13.22,7.84l-15.05,27.51
	l-27.51,15.05c-4.83,2.64-7.84,7.71-7.84,13.22c0,5.51,3.01,10.58,7.84,13.22l27.51,15.05l15.05,27.51
	c2.64,4.83,7.71,7.84,13.22,7.84c5.51,0,10.58-3.01,13.22-7.84l15.05-27.51l27.51-15.05c4.83-2.64,7.84-7.71,7.84-13.22
	C317.46,530.57,314.45,525.5,309.62,522.85z"/>
<path class="st0" d="M2341.62,610.78l-47.57-26.02l-26.02-47.57c-2.64-4.83-7.71-7.84-13.22-7.84c-5.51,0-10.58,3-13.22,7.84
	l-26.02,47.57L2168,610.78c-4.83,2.64-7.84,7.71-7.84,13.22c0,5.51,3,10.58,7.84,13.22l47.57,26.02l26.02,47.57
	c2.64,4.83,7.71,7.84,13.22,7.84c5.51,0,10.58-3,13.22-7.84l26.02-47.57l47.57-26.02c4.83-2.64,7.84-7.71,7.84-13.22
	C2349.46,618.49,2346.45,613.43,2341.62,610.78z"/>
<polygon class="st1" points="359.31,259.72 382.86,302.78 425.92,326.33 382.86,349.88 359.31,392.94 335.76,349.88 292.7,326.33 
	335.76,302.78 "/>
<polygon class="st1" points="2180.73,690.79 2204.28,733.85 2247.34,757.4 2204.28,780.95 2180.73,824.01 2157.18,780.95 
	2114.12,757.4 2157.18,733.85 "/>
<polygon class="st1" points="1464.56,543.17 1488.11,586.23 1531.16,609.78 1488.11,633.33 1464.56,676.39 1441.01,633.33 
	1397.95,609.78 1441.01,586.23 "/>
<polygon class="st1" points="665.2,622.16 688.75,665.22 731.81,688.77 688.75,712.32 665.2,755.37 641.65,712.32 598.59,688.77 
	641.65,665.22 "/>
<polygon class="st1" points="253.84,487.53 271.01,518.91 302.39,536.07 271.01,553.24 253.84,584.62 236.68,553.24 205.3,536.07 
	236.68,518.91 "/>
<polygon class="st1" points="2254.81,544.42 2282.94,595.87 2334.39,624 2282.94,652.14 2254.81,703.58 2226.67,652.14 2175.23,624 
	2226.67,595.87 "/>
</svg>
