<?xml version="1.0" encoding="utf-8"?>
<!-- Generator: Adobe Illustrator 23.0.1, SVG Export Plug-In . SVG Version: 6.00 Build 0)  -->
<svg version="1.1" id="Star" xmlns="http://www.w3.org/2000/svg" xmlns:xlink="http://www.w3.org/1999/xlink" x="0px" y="0px"
	 viewBox="0 0 2500 2500" style="enable-background:new 0 0 2500 2500;" xml:space="preserve">
<style type="text/css">
	.st0{fill:#470932;}
	.st1{fill:#E83E9F;}
	.st2{fill:#FFFFFF;}
</style>
<g>
	<path class="st0" d="M2328.14,965.71c-52.13-160.44-188.21-275.17-355.14-299.43l-226.98-32.99l-101.5-205.67
		c-74.67-151.26-225.84-245.23-394.52-245.23s-319.85,93.97-394.52,245.24l-101.5,205.67l-226.97,32.99
		c-166.94,24.25-303.02,138.99-355.15,299.43c-52.12,160.43-9.46,333.24,111.34,450.98l164.23,160.08l-38.77,226.07
		c-28.51,166.25,38.55,331.13,175,430.27c77.1,56.04,167.31,84.5,258.17,84.5c69.91-0.01,140.22-16.86,205.18-51L1250,2159.88
		l203.03,106.74c63.25,33.24,134.12,50.81,204.98,50.81c93.11-0.02,182.44-29.17,258.32-84.32
		c136.47-99.15,203.53-264.03,175.02-430.29l-38.77-226.06l164.24-160.08C2337.61,1298.94,2380.26,1126.14,2328.14,965.71z"/>
</g>
<g>
	<path class="st1" d="M2163.42,1019.31c-31.6-97.27-114.12-166.84-215.33-181.55l-317.08-46.08l-141.8-287.32
		c-45.27-91.72-136.93-148.69-239.21-148.69s-193.94,56.97-239.21,148.69l-141.8,287.32l-317.08,46.08
		c-101.21,14.71-183.73,84.27-215.33,181.55s-5.74,202.05,67.5,273.44l229.43,223.64l-54.16,315.81
		c-17.29,100.81,23.38,200.77,106.12,260.89c82.72,60.11,190.36,67.89,280.93,20.31l283.6-149.11l283.61,149.11
		c39.38,20.69,81.98,30.93,124.38,30.93c55.08-0.01,109.79-17.26,156.54-51.23c82.74-60.12,123.4-160.08,106.12-260.89
		l-54.16-315.81l229.44-223.64C2169.16,1221.36,2195.02,1116.59,2163.42,1019.31z"/>
</g>
<g>
	<path class="st2" d="M1372.72,561.85l153.09,310.2c11.85,24.02,34.76,40.67,61.28,44.52l342.32,49.74
		c112.24,16.31,157.06,154.25,75.84,233.42l-247.7,241.45c-19.18,18.7-27.94,45.64-23.4,72.04l58.47,340.93
		c19.18,111.8-98.16,197.04-198.56,144.27l-306.18-160.97c-23.71-12.46-52.04-12.46-75.75,0l-306.18,160.97
		c-100.4,52.78-217.74-32.47-198.56-144.27l58.47-340.93c4.53-26.4-4.22-53.34-23.4-72.04l-247.7-241.45
		c-81.22-79.17-36.4-217.11,75.84-233.42l342.32-49.74c26.51-3.85,49.42-20.5,61.28-44.52l153.09-310.2
		C1177.48,460.14,1322.52,460.14,1372.72,561.85z"/>
</g>
</svg>
